<svg viewBox="0 0 24 24" fill="black" xmlns="http://www.w3.org/2000/svg">
<path fill-rule="evenodd" clip-rule="evenodd" d="M2.84614 3.84614C3.38791 3.30436 4.12271 3 4.88889 3H11C11.5523 3 12 3.44772 12 4C12 4.55228 11.5523 5 11 5H4.88889C4.65314 5 4.42705 5.09365 4.26035 5.26035C4.09365 5.42705 4 5.65314 4 5.88889V19.1111C4 19.3469 4.09365 19.573 4.26035 19.7397C4.42705 19.9063 4.65314 20 4.88889 20H18.1111C18.3469 20 18.573 19.9063 18.7397 19.7397C18.9063 19.573 19 19.3469 19 19.1111V13C19 12.4477 19.4477 12 20 12C20.5523 12 21 12.4477 21 13V19.1111C21 19.8773 20.6956 20.6121 20.1539 21.1539C19.6121 21.6956 18.8773 22 18.1111 22H4.88889C4.12271 22 3.38791 21.6956 2.84614 21.1539C2.30436 20.6121 2 19.8773 2 19.1111V5.88889C2 5.12271 2.30436 4.38791 2.84614 3.84614Z"/>
<path fill-rule="evenodd" clip-rule="evenodd" d="M20 2.87866C19.7026 2.87866 19.4174 2.9968 19.2071 3.20709L9.90299 12.5112L9.37439 14.6256L11.4888 14.097L20.7929 4.79288C21.0032 4.58259 21.1213 4.29737 21.1213 3.99998C21.1213 3.70259 21.0032 3.41738 20.7929 3.20709C20.5826 2.9968 20.2974 2.87866 20 2.87866ZM17.7929 1.79288C18.3783 1.20751 19.1722 0.878662 20 0.878662C20.8278 0.878662 21.6218 1.20751 22.2071 1.79288C22.7925 2.37824 23.1213 3.17216 23.1213 3.99998C23.1213 4.82781 22.7925 5.62173 22.2071 6.20709L12.7071 15.7071C12.579 15.8352 12.4184 15.9262 12.2426 15.9701L8.24256 16.9701C7.90178 17.0553 7.54129 16.9555 7.29291 16.7071C7.04453 16.4587 6.94468 16.0982 7.02988 15.7574L8.02988 11.7574C8.07384 11.5816 8.16476 11.421 8.29291 11.2929L17.7929 1.79288Z"/>
</svg>
