<svg viewBox="0 0 12 12" fill="black" xmlns="http://www.w3.org/2000/svg">
<path fill-rule="evenodd" clip-rule="evenodd" d="M1.25 2.99983C1.25 2.03334 2.0335 1.24983 3 1.24983H5C5.41421 1.24983 5.75 1.58562 5.75 1.99983C5.75 2.41405 5.41421 2.74983 5 2.74983H3C2.86193 2.74983 2.75 2.86176 2.75 2.99983V8.99983C2.75 9.13791 2.86193 9.24983 3 9.24983H9C9.13807 9.24983 9.25 9.13791 9.25 8.99983V6.99983C9.25 6.58562 9.58579 6.24983 10 6.24983C10.4142 6.24983 10.75 6.58562 10.75 6.99983V8.99983C10.75 9.96633 9.9665 10.7498 9 10.7498H3C2.0335 10.7498 1.25 9.96633 1.25 8.99983V2.99983Z"/>
<path fill-rule="evenodd" clip-rule="evenodd" d="M8.13172 0.937368C8.81513 0.253951 9.92317 0.25395 10.6066 0.937368L11.2315 1.56231C11.9149 2.24572 11.915 3.35376 11.2315 4.03718L7.72543 7.54329C7.41762 7.8511 7.00613 8.03314 6.57131 8.05386L4.87118 8.1349C4.39982 8.15737 4.01153 7.76908 4.034 7.29772L4.11504 5.59759C4.13576 5.16277 4.3178 4.75128 4.62561 4.44347L8.13172 0.937368ZM9.54593 1.99803C9.4483 1.9004 9.29001 1.9004 9.19238 1.99803L5.68627 5.50413C5.6423 5.54811 5.6163 5.60689 5.61333 5.66901L5.56896 6.59994L6.4999 6.55557C6.56201 6.55261 6.6208 6.5266 6.66477 6.48263L10.1709 2.97652C10.2685 2.87889 10.2685 2.7206 10.1709 2.62297L9.54593 1.99803Z" />
</svg>
