<svg viewBox="0 0 16 16" fill="black" xmlns="http://www.w3.org/2000/svg">
<path fill-rule="evenodd" clip-rule="evenodd" d="M1.25 3.33329C1.25 2.1827 2.18274 1.24996 3.33333 1.24996H6.5C6.91421 1.24996 7.25 1.58575 7.25 1.99996C7.25 2.41418 6.91421 2.74996 6.5 2.74996H3.33333C3.01117 2.74996 2.75 3.01113 2.75 3.33329V12.6666C2.75 12.9888 3.01117 13.25 3.33333 13.25H12.6667C12.9888 13.25 13.25 12.9888 13.25 12.6666V9.49996C13.25 9.08575 13.5858 8.74996 14 8.74996C14.4142 8.74996 14.75 9.08575 14.75 9.49996V12.6666C14.75 13.8172 13.8173 14.75 12.6667 14.75H3.33333C2.18274 14.75 1.25 13.8172 1.25 12.6666V3.33329Z"/>
<path fill-rule="evenodd" clip-rule="evenodd" d="M10.9082 1.41244C11.7218 0.598848 13.0409 0.598849 13.8545 1.41244L14.7973 2.35525C15.6109 3.16884 15.6109 4.48794 14.7973 5.30153L10.2139 9.88489C9.83417 10.2647 9.32242 10.4831 8.78548 10.4946L6.5001 10.5436C6.03543 10.5536 5.65613 10.1743 5.6661 9.70964L5.71513 7.42425C5.72665 6.88731 5.94509 6.37556 6.32485 5.9958L10.9082 1.41244ZM12.7938 2.4731C12.566 2.24529 12.1967 2.24529 11.9689 2.4731L7.38551 7.05646C7.27918 7.16279 7.21801 7.30608 7.21479 7.45643L7.18106 9.02868L8.75331 8.99495C8.90365 8.99172 9.04694 8.93056 9.15328 8.82423L13.7366 4.24087C13.9644 4.01306 13.9644 3.64372 13.7366 3.41591L12.7938 2.4731Z"/>
</svg>