<svg width="12" height="12" fill="#5E6C8A" xmlns="http://www.w3.org/2000/svg"><path fill-rule="evenodd" clip-rule="evenodd" d="m5.664 2.691 1.028-1.028 3.535 3.536L9.2 6.226 5.664 2.69ZM6.337.604a.5.5 0 0 1 .707 0l4.242 4.242a.5.5 0 0 1 0 .707L9.553 7.287a.5.5 0 0 1-.707 0l-.069-.069-2.025 3.719c-.16.292-.454.486-.785.517l-5.796.542L.713 6.2a.997.997 0 0 1 .517-.785L4.948 3.39l-.345-.345a.5.5 0 0 1 0-.708L6.337.604Zm-.652 3.523L1.708 6.293l-.356 3.814 1.583-1.583a1.543 1.543 0 1 1 .735.679l-1.612 1.611 3.816-.357L8.041 6.48 5.686 4.126ZM3.75 7.793a.543.543 0 1 0 1.086 0 .543.543 0 0 0-1.086 0Z"/></svg>