<svg viewBox="0 0 16 16" fill="black" xmlns="http://www.w3.org/2000/svg">
<path fill-rule="evenodd" clip-rule="evenodd" d="M5.7145 2.46436C5.49753 2.46436 5.32164 2.64024 5.32164 2.85721V3.8215H10.6788V2.85721C10.6788 2.64024 10.5029 2.46436 10.2859 2.46436H5.7145ZM12.1788 3.8215V2.85721C12.1788 1.81182 11.3313 0.964355 10.2859 0.964355H5.7145C4.6691 0.964355 3.82164 1.81182 3.82164 2.85721V3.8215H1.14307C0.728853 3.8215 0.393066 4.15728 0.393066 4.5715C0.393066 4.98571 0.728853 5.3215 1.14307 5.3215H2.10735V13.1429C2.10735 14.1883 2.95481 15.0358 4.00021 15.0358H12.0002C13.0456 15.0358 13.8931 14.1883 13.8931 13.1429V5.3215H14.8574C15.2716 5.3215 15.6074 4.98571 15.6074 4.5715C15.6074 4.15728 15.2716 3.8215 14.8574 3.8215H12.1788ZM12.3931 5.3215H3.60735V13.1429C3.60735 13.3599 3.78324 13.5358 4.00021 13.5358H12.0002C12.2172 13.5358 12.3931 13.3599 12.3931 13.1429V5.3215Z"/>
<path fill-rule="evenodd" clip-rule="evenodd" d="M6.28592 6.67864C6.70014 6.67864 7.03592 7.01443 7.03592 7.42864V11.4286C7.03592 11.8429 6.70014 12.1786 6.28592 12.1786C5.87171 12.1786 5.53592 11.8429 5.53592 11.4286V7.42864C5.53592 7.01443 5.87171 6.67864 6.28592 6.67864ZM9.71449 6.67864C10.1287 6.67864 10.4645 7.01443 10.4645 7.42864V11.4286C10.4645 11.8429 10.1287 12.1786 9.71449 12.1786C9.30028 12.1786 8.96449 11.8429 8.96449 11.4286V7.42864C8.96449 7.01443 9.30028 6.67864 9.71449 6.67864Z"/>
</svg>
