<svg viewBox="0 0 14 14" fill="black" xmlns="http://www.w3.org/2000/svg">
<path fill-rule="evenodd" clip-rule="evenodd" d="M5 2.75C4.86193 2.75 4.75 2.86193 4.75 3V3.25H9.25V3C9.25 2.86193 9.13807 2.75 9 2.75H5ZM10.75 3.25V3C10.75 2.0335 9.9665 1.25 9 1.25H5C4.0335 1.25 3.25 2.0335 3.25 3V3.25H2C1.58579 3.25 1.25 3.58579 1.25 4C1.25 4.41421 1.58579 4.75 2 4.75H2.25V11C2.25 11.9665 3.0335 12.75 4 12.75H10C10.9665 12.75 11.75 11.9665 11.75 11V4.75H12C12.4142 4.75 12.75 4.41421 12.75 4C12.75 3.58579 12.4142 3.25 12 3.25H10.75ZM10.25 4.75H3.75V11C3.75 11.1381 3.86193 11.25 4 11.25H10C10.1381 11.25 10.25 11.1381 10.25 11V4.75Z"/>
<path fill-rule="evenodd" clip-rule="evenodd" d="M5.5 6.25C5.91421 6.25 6.25 6.58579 6.25 7V9C6.25 9.41421 5.91421 9.75 5.5 9.75C5.08579 9.75 4.75 9.41421 4.75 9V7C4.75 6.58579 5.08579 6.25 5.5 6.25ZM8.5 6.25C8.91421 6.25 9.25 6.58579 9.25 7V9C9.25 9.41421 8.91421 9.75 8.5 9.75C8.08579 9.75 7.75 9.41421 7.75 9V7C7.75 6.58579 8.08579 6.25 8.5 6.25Z"/>
</svg>
