<svg width="47" height="48" viewBox="0 0 47 48" fill="none" xmlns="http://www.w3.org/2000/svg">
<path d="M0 23.5711C0 10.7136 10.4231 0.290527 23.2806 0.290527V0.290527C36.1382 0.290527 46.5612 10.7136 46.5612 23.5712V24.4288C46.5612 37.2863 36.1382 47.7094 23.2806 47.7094V47.7094C10.4231 47.7094 0 37.2863 0 24.4288V23.5711Z" fill="#2DB300"/>
<path fill-rule="evenodd" clip-rule="evenodd" d="M29.3015 17.7641C29.8887 19.4188 29.5755 20.7721 28.362 21.8238C29.517 21.8151 30.4512 22.0934 31.1645 22.6587C31.8779 23.2241 32.3342 24.1695 32.5334 25.4949C32.6318 26.1727 32.6244 26.7927 32.5111 27.3547C32.3979 27.9167 32.1999 28.4058 31.9171 28.8219C31.6343 29.238 31.2497 29.6223 30.7633 29.975C30.2769 30.3277 29.7504 30.6285 29.184 30.8773C28.6175 31.1262 27.9568 31.3637 27.2018 31.59L28.0832 35.1549L25.9303 35.6872L25.0627 32.1782C24.3171 32.3626 23.7474 32.4985 23.3537 32.586L24.2248 36.1089L22.0719 36.6413L21.1904 33.0764C21.0226 33.1179 20.7704 33.1778 20.4338 33.2561C20.0971 33.3344 19.8402 33.3954 19.6631 33.4392L16.8672 34.1306L16.6679 31.4651L18.2197 31.0814C18.6857 30.9662 18.8972 30.6617 18.8543 30.1679L17.4646 24.548L17.6883 24.4927C17.6301 24.4972 17.5544 24.511 17.4612 24.534L16.4691 20.5218C16.1912 19.918 15.6981 19.7037 14.9898 19.8788L13.438 20.2625L12.8711 17.9698L15.8383 17.251C16.4348 17.1035 16.8856 16.987 17.1909 16.9017L16.3198 13.3788L18.4727 12.8464L19.3265 16.2994C20.0861 16.0918 20.6523 15.9419 21.0251 15.8497L20.1782 12.4247L22.3311 11.8923L23.2022 15.4153C23.9547 15.2984 24.633 15.242 25.2372 15.2459C25.8414 15.2497 26.4199 15.3292 26.9725 15.4843C27.5251 15.6394 27.9994 15.9078 28.3955 16.2896C28.7915 16.6713 29.0935 17.1628 29.3015 17.7641ZM28.1798 26.1263C28.0968 25.7908 27.9532 25.5099 27.7489 25.2835C27.5445 25.0571 27.3191 24.8854 27.0726 24.7683C26.8261 24.6513 26.523 24.5754 26.1633 24.5407C25.8037 24.506 25.4771 24.4953 25.1837 24.5085C24.8903 24.5217 24.5351 24.565 24.1181 24.6385C23.7011 24.7119 23.3761 24.7774 23.1431 24.835C22.9101 24.8927 22.6107 24.9716 22.2448 25.072C21.879 25.1723 21.6588 25.2317 21.5843 25.2502L22.7527 29.9754C22.8272 29.9569 23.0002 29.9166 23.2716 29.8545C23.5431 29.7923 23.7673 29.7393 23.9444 29.6955C24.1215 29.6517 24.3667 29.5837 24.6802 29.4913C24.9936 29.399 25.2616 29.313 25.4841 29.2332C25.7067 29.1534 25.9625 29.0481 26.2516 28.9173C26.5407 28.7865 26.7832 28.6573 26.9791 28.5298C27.175 28.4022 27.3722 28.2496 27.5706 28.072C27.7689 27.8944 27.9184 27.7091 28.0191 27.516C28.1197 27.323 28.1878 27.1084 28.2233 26.8722C28.2588 26.6359 28.2443 26.3873 28.1798 26.1263ZM25.1648 18.9427C25.3401 19.1516 25.4658 19.4098 25.5418 19.7174C25.6063 19.9783 25.6232 20.2263 25.5923 20.4614C25.5614 20.6965 25.4799 20.9071 25.3479 21.093C25.2159 21.2789 25.0746 21.4474 24.924 21.5984C24.7734 21.7493 24.5687 21.8914 24.3099 22.0246C24.0511 22.1579 23.8238 22.2685 23.628 22.3564C23.4322 22.4444 23.1822 22.5334 22.8781 22.6235C22.574 22.7135 22.3433 22.7804 22.186 22.8243C22.0287 22.8681 21.812 22.9217 21.5359 22.985C21.2599 23.0483 21.0985 23.0857 21.0519 23.0973L19.9907 18.8054C20.0559 18.7893 20.2394 18.7415 20.5412 18.6619C20.8429 18.5824 21.0934 18.5155 21.2926 18.4613C21.4918 18.4071 21.765 18.3519 22.1121 18.2957C22.4592 18.2396 22.755 18.206 22.9995 18.195C23.244 18.184 23.5193 18.1975 23.8254 18.2355C24.1315 18.2736 24.3875 18.3487 24.5933 18.461C24.799 18.5733 24.9896 18.7339 25.1648 18.9427Z" fill="white"/>
</svg>
