<svg width="48" height="48" viewBox="0 0 48 48" fill="none" xmlns="http://www.w3.org/2000/svg">
<path d="M0 24C0 10.7452 10.7452 0 24 0V0C37.2548 0 48 10.7452 48 24V24C48 37.2548 37.2548 48 24 48V48C10.7452 48 0 37.2548 0 24V24Z" fill="#FFA800"/>
<path fill-rule="evenodd" clip-rule="evenodd" d="M32.2332 21.2889C31.9815 23.0266 31.0738 24.0779 29.51 24.4428C30.5359 24.9734 31.2326 25.655 31.6003 26.4877C31.968 27.3204 31.9311 28.3694 31.4896 29.6349C31.2608 30.2805 30.9653 30.8256 30.6032 31.2701C30.241 31.7146 29.8379 32.055 29.3938 32.2913C28.9496 32.5276 28.4302 32.6884 27.8355 32.7738C27.2408 32.8591 26.6348 32.8799 26.0177 32.836C25.4005 32.7922 24.7052 32.6944 23.9318 32.5427L23.0502 36.1076L20.8973 35.5752L21.765 32.0663C21.0194 31.8819 20.4521 31.7366 20.063 31.6305L19.1918 35.1534L17.0389 34.6211L17.9204 31.0562C17.7527 31.0147 17.5016 30.9502 17.1673 30.8625C16.8329 30.7749 16.5772 30.7092 16.4001 30.6654L13.6041 29.974L14.6701 27.5228L16.2219 27.9066C16.6879 28.0218 17.0169 27.851 17.209 27.3941L18.5988 21.7742L18.8225 21.8295C18.7689 21.8064 18.6954 21.7833 18.6022 21.7603L19.5944 17.748C19.63 17.0843 19.2936 16.6649 18.5853 16.4897L17.0335 16.106L17.6005 13.8133L20.5608 14.5602C21.1572 14.7077 21.6104 14.8148 21.9203 14.8816L22.7914 11.3586L24.9443 11.891L24.0904 15.344C24.8593 15.5144 25.4301 15.6457 25.8029 15.7378L26.6499 12.3128L28.8028 12.8452L27.9316 16.3681C28.6517 16.6154 29.2782 16.8816 29.811 17.1666C30.3438 17.4517 30.8185 17.7916 31.2351 18.1864C31.6518 18.5811 31.9463 19.0397 32.1188 19.562C32.2913 20.0843 32.3294 20.6599 32.2332 21.2889ZM27.3435 28.1646C27.4264 27.8291 27.4303 27.5136 27.355 27.218C27.2798 26.9225 27.1604 26.6655 26.9968 26.4471C26.8333 26.2286 26.6005 26.0202 26.2984 25.8219C25.9964 25.6236 25.7125 25.4619 25.4467 25.3368C25.1809 25.2118 24.8464 25.0845 24.4433 24.9552C24.0401 24.8258 23.7221 24.7323 23.4891 24.6747C23.2561 24.6171 22.9543 24.5474 22.5839 24.4657C22.2135 24.384 21.991 24.3339 21.9164 24.3155L20.7479 29.0407C20.8225 29.0591 20.9943 29.1041 21.2634 29.1756C21.5326 29.247 21.7557 29.3047 21.9327 29.3485C22.1098 29.3923 22.3585 29.4464 22.6789 29.5107C22.9992 29.5751 23.2764 29.6239 23.5105 29.6571C23.7446 29.6902 24.02 29.7163 24.3367 29.7353C24.6535 29.7543 24.9282 29.753 25.161 29.7314C25.3938 29.7099 25.6394 29.6668 25.8977 29.6021C26.156 29.5374 26.3746 29.4431 26.5536 29.3192C26.7325 29.1954 26.8928 29.0372 27.0344 28.8447C27.1759 28.6523 27.2789 28.4256 27.3435 28.1646ZM28.024 20.4037C28.0817 20.6702 28.0725 20.9572 27.9965 21.2648C27.9319 21.5257 27.8312 21.753 27.6943 21.9466C27.5575 22.1402 27.3873 22.2885 27.1838 22.3915C26.9803 22.4945 26.7768 22.5777 26.5732 22.641C26.3696 22.7044 26.1223 22.7347 25.8312 22.732C25.5402 22.7292 25.2875 22.7212 25.0732 22.7077C24.859 22.6943 24.5963 22.6566 24.2853 22.5945C23.9743 22.5324 23.739 22.4841 23.5794 22.4496C23.4198 22.4151 23.2031 22.3615 22.9294 22.2888C22.6556 22.2162 22.4954 22.1741 22.4488 22.1626L23.5101 17.8708C23.5753 17.8869 23.76 17.9301 24.064 18.0003C24.3681 18.0706 24.6209 18.1282 24.8224 18.173C25.0239 18.2179 25.2913 18.2964 25.6246 18.4085C25.9579 18.5206 26.2352 18.6287 26.4567 18.733C26.6782 18.8372 26.9154 18.9774 27.1685 19.1538C27.4216 19.3301 27.613 19.5159 27.7428 19.7111C27.8725 19.9064 27.9662 20.1373 28.024 20.4037Z" fill="white"/>
</svg>
