<svg width="48" height="48" viewBox="0 0 48 48" fill="none" xmlns="http://www.w3.org/2000/svg">
<path fill-rule="evenodd" clip-rule="evenodd" d="M24 48C37.2548 48 48 37.2548 48 24C48 10.7452 37.2548 0 24 0C10.7452 0 0 10.7452 0 24C0 37.2548 10.7452 48 24 48ZM23.7382 36.48C24.3975 36.4845 25.0332 36.2344 25.5127 35.7818V35.8109C25.7562 35.5786 25.9491 35.2984 26.0792 34.9881C26.2094 34.6777 26.274 34.3438 26.2691 34.0073C26.2825 33.6809 26.2243 33.3556 26.0987 33.054C25.973 32.7525 25.783 32.4821 25.5418 32.2618C25.3045 32.0288 25.0221 31.8467 24.712 31.7267C24.4019 31.6066 24.0705 31.5512 23.7382 31.5636C23.4105 31.5534 23.0842 31.6101 22.7791 31.7301C22.474 31.8501 22.1965 32.0311 21.9636 32.2618C21.7225 32.4821 21.5324 32.7525 21.4068 33.054C21.2812 33.3556 21.223 33.6809 21.2364 34.0073C21.2322 34.3324 21.2946 34.655 21.4197 34.9551C21.5447 35.2553 21.7299 35.5267 21.9636 35.7527C22.1941 35.9887 22.4704 36.175 22.7756 36.3001C23.0808 36.4252 23.4084 36.4864 23.7382 36.48ZM27.5491 25.0764C28.5683 24.2396 29.5396 23.3461 30.4582 22.4V22.4291C31.3926 21.2449 31.8954 19.7775 31.8836 18.2691C31.9313 17.347 31.7703 16.4261 31.4127 15.5749C31.0551 14.7237 30.51 13.9641 29.8182 13.3527C28.2749 12.1197 26.3172 11.5262 24.3491 11.6945C23.2588 11.6319 22.1672 11.7932 21.1415 12.1684C20.1159 12.5436 19.1779 13.1249 18.3855 13.8764C17.656 14.653 17.0896 15.5681 16.7198 16.5674C16.3501 17.5668 16.1845 18.6301 16.2327 19.6945H19.7236C19.6556 18.4616 19.9817 17.239 20.6545 16.2036C21.0429 15.6955 21.5529 15.2932 22.1375 15.034C22.7222 14.7747 23.3627 14.6667 24 14.72C24.5284 14.6864 25.0581 14.7593 25.5578 14.9342C26.0575 15.1091 26.517 15.3825 26.9091 15.7382C27.6025 16.4586 27.9975 17.4148 28.0145 18.4145C27.9882 19.3334 27.6496 20.2158 27.0546 20.9164L26.4727 21.5564C24.9657 22.7717 23.6685 24.2262 22.6327 25.8618C22.1337 26.8733 21.8938 27.9929 21.9346 29.12V29.7018H25.5709V29.12C25.5567 28.3287 25.7471 27.5471 26.1236 26.8509C26.4645 26.163 26.9509 25.5575 27.5491 25.0764Z" fill="#DBDBDB"/>
</svg>
