<svg width="47" height="48" viewBox="0 0 47 48" fill="none" xmlns="http://www.w3.org/2000/svg">
<path d="M0 24C0 11.0507 10.4975 0.382446 23.4468 0.382446V0.382446C36.3961 0.382446 46.8935 11.0507 46.8935 24V24C46.8935 36.9493 36.3961 47.6175 23.4468 47.6175V47.6175C10.4975 47.6175 0 36.9493 0 24V24Z" fill="#ECECEC"/>
<path d="M14 20.6491C14.013 20.5599 14.0318 20.4711 14.037 20.3816C14.069 19.8581 14.1446 19.3383 14.2631 18.8274C15.1406 15.0163 18.2421 12.1184 22.1039 11.5013C22.6612 11.4074 23.2264 11.3689 23.7913 11.3866C24.2245 11.4073 24.6557 11.4586 25.0816 11.5402C26.1159 11.7272 27.1109 12.0882 28.0246 12.6078C29.6715 13.5413 30.9348 14.8475 31.8145 16.5265C33.2088 19.2072 33.2542 22.389 31.9371 25.1084C30.6199 27.8278 28.0952 29.7648 25.1275 30.3327C24.7175 30.4085 24.3033 30.4588 23.8871 30.4833C23.5082 30.5089 23.1278 30.5322 22.7526 30.5877C22.1467 30.677 21.5782 30.9349 21.1118 31.3318C20.4994 31.8451 20.116 32.4971 19.9521 33.2783C19.8182 33.9162 19.6858 34.5546 19.5551 35.1936C19.5317 35.3087 19.5206 35.4249 19.4755 35.5355C19.248 36.0758 18.6807 36.3906 18.1019 36.2978C17.8825 36.2608 17.6745 36.2105 17.4947 36.0758C17.0732 35.7609 16.8841 35.3379 16.9848 34.8228C17.1979 33.7345 17.431 32.6503 17.6612 31.5664C17.9102 30.3927 18.1648 29.22 18.4172 28.047C18.7051 26.7101 18.9933 25.3731 19.282 24.0357C19.5188 22.9384 19.756 21.8407 19.9936 20.7424C20.1234 20.144 20.583 19.7333 21.1899 19.6878C21.827 19.6427 22.403 20.0655 22.5509 20.6869C22.5993 20.9009 22.5972 21.1233 22.5446 21.3363C22.1316 23.1895 21.72 25.0431 21.3098 26.8973C21.2287 27.2647 21.171 27.6373 21.1022 28.0074C21.0963 28.0403 21.0844 28.0718 21.0778 28.1047C21.063 28.1787 21.1148 28.2268 21.1825 28.205C21.6635 28.0529 22.1631 28.0103 22.6627 27.9719C23.1992 27.9304 23.7358 27.8979 24.272 27.849C24.7875 27.7984 25.295 27.6859 25.7836 27.5138C27.7316 26.8445 29.2794 25.3408 30.0046 23.413C30.1937 22.9119 30.3225 22.3902 30.3884 21.8588C30.4326 21.5252 30.4515 21.1887 30.445 20.8523C30.4245 19.9046 30.2105 18.9711 29.8159 18.1092C29.4648 17.3392 28.9742 16.6407 28.3691 16.0491C27.7872 15.4771 27.1071 15.0145 26.3612 14.6837C25.8606 14.4615 25.3356 14.2988 24.7971 14.1989C24.2608 14.0966 23.7139 14.0609 23.1689 14.0927C21.8926 14.1701 20.7174 14.5564 19.6601 15.2795C18.4734 16.0902 17.6205 17.1704 17.0976 18.5092C16.8784 19.0735 16.7369 19.6651 16.6772 20.2676C16.6277 20.7295 16.6225 21.195 16.6617 21.6579C16.7058 22.1541 16.8116 22.6428 16.9766 23.1129C17.0506 23.3219 17.0917 23.5354 17.065 23.7567C17.0003 24.2937 16.7191 24.6796 16.2202 24.8824C15.9131 25.0071 15.5912 24.9768 15.2852 24.8491C14.8933 24.6859 14.6324 24.3984 14.5007 23.9936C14.3332 23.4893 14.2101 22.9714 14.1328 22.4457C14.091 22.1522 14.0696 21.8588 14.037 21.5628C14.0263 21.4665 14.0111 21.3707 14 21.2749V20.6491Z" fill="black"/>
<path d="M23.5648 36.6175C23.5211 36.6031 23.4775 36.5872 23.4334 36.5746C22.7873 36.3896 22.3855 35.964 22.2697 35.3057C22.1172 34.4417 22.6767 33.5702 23.6148 33.4381C24.484 33.3156 25.1789 33.9029 25.375 34.6082C25.4361 34.8273 25.4339 35.0493 25.4254 35.2765C25.4061 35.8031 24.9502 36.3977 24.3297 36.5716C24.2956 36.5841 24.2626 36.5992 24.2309 36.6168L23.5648 36.6175Z" fill="#E6007A"/>
</svg>
