<svg width="47" height="48" viewBox="0 0 47 48" fill="none" xmlns="http://www.w3.org/2000/svg">
<path d="M0 23.589C0 10.6356 10.5007 0.134888 23.4541 0.134888V0.134888C36.4074 0.134888 46.9082 10.6356 46.9082 23.589V24.4111C46.9082 37.3645 36.4074 47.8652 23.4541 47.8652V47.8652C10.5007 47.8652 0 37.3645 0 24.4111V23.589Z" fill="#1E52DB"/>
<path d="M23.4537 11.1349L17.5213 19.4437L15 31.6652L23.4537 36.8652L31.9082 31.6652L29.3877 19.3895L23.4545 11.1349H23.4537ZM18.8851 19.6577L23.4537 13.2788L28.0223 19.6577L23.4537 33.6487L18.8851 19.6577ZM28.6522 21.7488L30.5428 31.0754L24.3474 34.8811L28.6522 21.7488ZM16.3654 31.0754L18.2559 21.7488L22.5615 34.8811L16.3654 31.0754Z" fill="white"/>
</svg>
