<svg width="48" height="48" viewBox="0 0 48 48" fill="none" xmlns="http://www.w3.org/2000/svg">
<path d="M0 24C0 10.7452 10.7452 0 24 0V0C37.2548 0 48 10.7452 48 24V24C48 37.2548 37.2548 48 24 48V48C10.7452 48 0 37.2548 0 24V24Z" fill="#FFE9F1"/>
<path fill-rule="evenodd" clip-rule="evenodd" d="M12.5545 11.6919C15.3625 15.0863 17.5187 16.9936 18.553 17.9085C18.9055 18.2203 19.1277 18.4168 19.2009 18.5177C19.4389 18.8453 19.3493 19.1398 18.9417 19.3706C18.715 19.4989 18.249 19.6289 18.0156 19.6289C17.7517 19.6289 17.6611 19.5275 17.6611 19.5275C17.6426 19.51 17.625 19.495 17.607 19.4796C17.4769 19.3683 17.3266 19.2397 16.6361 18.019C15.5452 16.333 14.6322 14.9344 14.6073 14.9109C14.5497 14.8568 14.5506 14.8586 16.5249 18.3768C16.7785 18.96 16.6689 19.2496 16.6133 19.3963C16.599 19.434 16.5883 19.4623 16.5883 19.4837C16.5883 19.6961 16.5301 19.8078 16.267 20.1002C15.8283 20.5876 15.6322 21.1352 15.4907 22.2686C15.332 23.5392 14.8857 24.4367 13.6491 25.9728C12.9252 26.8719 12.8068 27.0368 12.6241 27.3992C12.394 27.8555 12.3308 28.1112 12.3051 28.6874C12.278 29.2968 12.3308 29.6905 12.5177 30.273C12.6814 30.7831 12.8522 31.1198 13.2888 31.7933C13.6656 32.3746 13.8826 32.8067 13.8826 32.9757C13.8826 33.1101 13.9084 33.1103 14.4923 32.9789C15.8897 32.6647 17.0244 32.1119 17.6625 31.4344C18.0575 31.0151 18.1502 30.7836 18.1532 30.2092C18.1552 29.8333 18.1419 29.7546 18.0399 29.5384C17.8739 29.1865 17.5716 28.8939 16.9054 28.4404C16.0325 27.846 15.6597 27.3675 15.5567 26.7095C15.4722 26.1696 15.5702 25.7887 16.0531 24.7806C16.5529 23.7372 16.6768 23.2926 16.7606 22.2409C16.8147 21.5614 16.8896 21.2934 17.0857 21.0783C17.2901 20.8541 17.4741 20.7781 17.98 20.7092C18.8049 20.597 19.3301 20.3845 19.7618 19.9883C20.1363 19.6445 20.293 19.3134 20.317 18.8148L20.3353 18.4369L20.126 18.1939C19.3681 17.3137 12.0469 11 12.0003 11C11.9903 11 12.2397 11.3114 12.5545 11.6919ZM14.3077 29.3769C14.479 29.0746 14.388 28.6861 14.1014 28.4962C13.8305 28.3169 13.4098 28.4014 13.4098 28.6351C13.4098 28.7065 13.4494 28.7584 13.5387 28.8041C13.6889 28.8811 13.6998 28.9678 13.5816 29.1447C13.4619 29.324 13.4715 29.4816 13.6089 29.5887C13.8302 29.7613 14.1436 29.6663 14.3077 29.3769ZM19.4657 12.8944C19.1276 12.8422 19.1133 12.8361 19.2724 12.8117C19.5774 12.765 20.2974 12.8287 20.7936 12.9462C21.9519 13.2204 23.0059 13.9229 24.1311 15.1706L24.43 15.502L24.8576 15.4335C26.659 15.1452 28.4915 15.3744 30.0243 16.0796C30.446 16.2736 31.1109 16.6598 31.1939 16.7591C31.2204 16.7907 31.2689 16.9943 31.3018 17.2116C31.4156 17.9632 31.3586 18.5394 31.128 18.9697C31.0023 19.2038 30.9953 19.2781 31.0798 19.4785C31.1472 19.6384 31.3351 19.7567 31.5212 19.7565C31.902 19.756 32.312 19.1427 32.502 18.2894L32.5775 17.9505L32.727 18.1191C33.5469 19.0443 34.1909 20.3061 34.3015 21.2042L34.3303 21.4384L34.1926 21.2255C33.9554 20.8592 33.717 20.6098 33.4118 20.4087C32.8616 20.0462 32.28 19.9228 30.7396 19.8419C29.3482 19.7689 28.5608 19.6506 27.78 19.397C26.4515 18.9656 25.7819 18.3911 24.2038 16.329C23.5029 15.4131 23.0697 14.9064 22.6387 14.4983C21.6595 13.571 20.6974 13.0847 19.4657 12.8944ZM31.5078 14.9394C31.5429 14.3257 31.6263 13.9209 31.7945 13.5512C31.861 13.4048 31.9232 13.2851 31.9329 13.2851C31.9424 13.2851 31.9135 13.3931 31.8685 13.5251C31.7465 13.8839 31.7263 14.3746 31.8105 14.9456C31.9173 15.67 31.978 15.7745 32.7469 16.557C33.1074 16.9241 33.5269 17.387 33.6788 17.5858L33.9554 17.9472L33.6788 17.6889C33.3408 17.3731 32.5633 16.7571 32.3916 16.6691C32.2763 16.61 32.2593 16.611 32.1882 16.6815C32.1228 16.7463 32.1089 16.8438 32.0999 17.3048C32.0857 18.0232 31.9874 18.4843 31.7502 18.9453C31.6218 19.1947 31.6015 19.1415 31.7177 18.86C31.8043 18.6498 31.8132 18.5575 31.8126 17.862C31.8112 16.4647 31.6447 16.1288 30.668 15.5533C30.4206 15.4075 30.0128 15.1973 29.7619 15.0861C29.5111 14.9749 29.3118 14.878 29.319 14.8708C29.3467 14.8434 30.2992 15.1203 30.6827 15.2672C31.2531 15.4857 31.3471 15.514 31.4163 15.4876C31.4629 15.4699 31.4854 15.3353 31.5078 14.9394ZM19.1033 13.8667C19.0113 14.9455 19.436 16.3886 20.1225 17.3298C20.6546 18.0594 21.4795 18.6264 22.0884 18.6812C22.4871 18.717 22.607 18.5927 22.4266 18.3303C22.1762 17.9661 21.8681 17.4052 21.7866 17.165C21.736 17.0159 21.626 16.5752 21.5421 16.1858C21.2558 14.8563 20.9743 14.3386 20.3242 13.9454C20.0873 13.8021 19.5814 13.6145 19.288 13.5612L19.1317 13.5328L19.1033 13.8667ZM30.6755 24.3349C27.4677 23.0485 26.3379 21.9319 26.3379 20.0479C26.3379 19.7706 26.3475 19.5438 26.3591 19.5438C26.3708 19.5438 26.495 19.6353 26.6349 19.7471C27.2854 20.2668 28.0139 20.4887 30.0304 20.7817C31.2171 20.9541 31.8849 21.0934 32.5009 21.2969C34.4588 21.9436 35.6702 23.2561 35.9591 25.0437C36.0431 25.5632 35.9938 26.5372 35.8577 27.0506C35.7504 27.4561 35.4224 28.187 35.3354 28.2151C35.3113 28.2229 35.2877 28.1308 35.2814 28.0056C35.2485 27.3343 34.908 26.6808 34.336 26.1913C33.6857 25.6347 32.812 25.1916 30.6755 24.3349ZM28.2683 24.1933C28.3134 24.3269 28.3831 24.6311 28.4233 24.8693C28.6801 26.3924 27.8775 27.6228 26.3161 28.0996C26.1508 28.1501 25.4996 28.2769 24.8691 28.3816C23.5928 28.5933 23.0231 28.7431 22.4508 29.0177C22.045 29.2124 21.5536 29.5041 21.5828 29.5332C21.5922 29.5425 21.6848 29.5204 21.7886 29.4841C22.5103 29.2317 23.3135 29.1011 24.5338 29.0378C25.018 29.0128 25.5688 28.9728 25.7578 28.9492C26.845 28.8128 27.5984 28.484 28.1843 27.8899C28.5104 27.5594 28.7048 27.2515 28.8614 26.8173C28.9607 26.5419 28.9741 26.4396 28.9749 25.9515C28.9757 25.4543 28.9636 25.3633 28.8561 25.0574C28.7152 24.6565 28.5489 24.3556 28.3385 24.1204L28.1865 23.9504L28.2683 24.1933ZM29.8936 27.4704C29.4674 26.5579 29.3695 25.6768 29.603 24.8552C29.628 24.7674 29.6682 24.6955 29.6924 24.6955C29.7165 24.6955 29.8171 24.7496 29.9158 24.8158C30.1123 24.9475 30.5062 25.1693 31.5556 25.7392C32.8651 26.4503 33.6118 27.0009 34.1196 27.63C34.5643 28.1809 34.8394 28.8085 34.9719 29.5737C35.0469 30.007 35.0028 31.0499 34.8911 31.4863C34.5391 32.8625 33.7208 33.9434 32.5537 34.5742C32.3827 34.6667 32.2291 34.7425 32.2126 34.7429C32.1959 34.7433 32.2583 34.5854 32.351 34.3923C32.7435 33.5748 32.7883 32.7796 32.4915 31.8946C32.3097 31.3526 31.9391 30.6914 31.1909 29.5737C30.3208 28.2744 30.1076 27.9286 29.8936 27.4704ZM21.8655 30.4634C20.5163 30.6818 19.0351 31.393 17.8446 32.3941L17.4902 32.6921L17.8017 32.7405C19.4271 32.9932 19.8647 33.2173 20.9922 34.3741C21.641 35.0396 21.8601 35.1877 22.3982 35.3247C23.1886 35.5256 23.9678 35.1564 24.235 34.4541C24.3544 34.1404 24.3385 33.6207 24.2016 33.3598C23.8756 32.7386 22.9263 32.5378 22.4672 32.9928C22.0849 33.3719 22.1963 33.9429 22.6719 34.0411C22.7807 34.0636 22.7776 34.0589 22.6441 33.9987C22.436 33.9049 22.3456 33.7751 22.3444 33.5683C22.3418 33.0834 22.8989 32.811 23.4172 33.044C23.7967 33.2146 23.9474 33.4375 23.9474 33.8281C23.9474 34.4297 23.4333 34.8831 22.835 34.8088C22.5152 34.7692 22.1241 34.5656 21.9144 34.3294C21.3868 33.7351 21.5923 32.7975 22.3291 32.4377C22.8899 32.1638 23.6354 32.2314 24.2135 32.6083C24.8778 33.0416 25.1603 33.4375 25.7324 34.7371C25.9187 35.1604 26.1584 35.6366 26.265 35.7957C26.8069 36.6038 27.4562 37 28.2384 37C28.6697 37 28.9943 36.9214 29.4026 36.7184C29.7059 36.5674 30.136 36.2807 30.1049 36.2501C30.0961 36.2413 29.9703 36.2802 29.8254 36.3366C28.9714 36.6683 28.1032 36.6456 27.5991 36.278C27.2816 36.0465 27.0255 35.5858 26.8938 35.0092C26.8711 34.9094 26.7959 34.4688 26.7267 34.0299C26.5515 32.9175 26.3831 32.4175 25.9907 31.8438C25.5892 31.2568 24.8171 30.764 23.954 30.544C23.4156 30.4067 22.4469 30.3694 21.8655 30.4634ZM19.9756 21.8632C20.0921 21.4347 20.4685 21.0259 20.8557 20.9075C21.1019 20.8322 21.6109 20.8803 21.8502 21.0014C22.3139 21.2363 22.6506 21.7712 22.5775 22.1572C22.4884 22.6281 21.7218 23.0047 20.84 23.0109C20.3896 23.014 20.2233 22.9538 20.0513 22.725C19.9448 22.5833 19.9045 22.1247 19.9756 21.8632ZM21.7305 21.1692C21.9618 21.3099 22.0212 21.5179 21.8853 21.7103C21.7916 21.8429 21.5016 21.9687 21.2897 21.9687C20.9713 21.9687 20.624 21.7437 20.624 21.5374C20.624 21.123 21.2901 20.9014 21.7305 21.1692Z" fill="#E33376"/>
</svg>
