<svg width="48" height="48" viewBox="0 0 48 48" fill="none" xmlns="http://www.w3.org/2000/svg">
<path d="M0 24C0 10.7452 10.7452 0 24 0V0C37.2548 0 48 10.7452 48 24V24C48 37.2548 37.2548 48 24 48V48C10.7452 48 0 37.2548 0 24V24Z" fill="black"/>
<path d="M12.6301 34.1766C13.4934 34.1715 14.3566 34.1842 15.2199 34.169C16.9693 32.2494 18.7264 30.3375 20.4834 28.4256C21.5955 27.2373 23.3678 26.5188 24.9725 27.0291C26.2191 27.344 27.2906 28.1311 28.1082 29.1035C29.7002 30.7895 31.2795 32.4881 32.8715 34.174C33.7094 34.1639 34.5473 34.1842 35.3852 34.1613C33.3209 31.9854 31.277 29.7891 29.2229 27.6029C27.8848 26.0871 25.9348 25.0969 23.9061 25.0232C22.21 25.0613 20.5367 25.7824 19.3459 26.9885C17.3629 29.0883 15.4027 31.2109 13.4248 33.3184C13.1684 33.5977 12.9195 33.8846 12.6301 34.1283V34.1766ZM19.7268 21.3315C20.9277 22.3217 22.4512 22.9158 24.0051 23.0047C25.8078 22.9996 27.5877 22.215 28.8141 20.8973C30.66 18.9193 32.5059 16.944 34.3492 14.966C34.6945 14.6131 35.0043 14.2246 35.3826 13.9047V13.8565C34.5193 13.8691 33.6561 13.8539 32.7953 13.8615C31.2135 15.5957 29.6189 17.3172 28.032 19.0514C27.5547 19.582 27.0647 20.1229 26.435 20.4783C25.5057 21.0191 24.3758 21.3289 23.3068 21.075C22.1693 20.8389 21.1004 20.2574 20.3057 19.4094C18.5867 17.5584 16.8678 15.7049 15.1463 13.8565C14.3059 13.8666 13.468 13.8438 12.6301 13.8717V13.8742C14.5445 15.8775 16.4234 17.9113 18.3252 19.9274C18.7848 20.4047 19.2088 20.9176 19.7268 21.3315Z" fill="white"/>
</svg>
