<svg width="24" height="24" xmlns="http://www.w3.org/2000/svg"><path d="M11.799 4.276c-.212.043-.39.165-.468.322-.062.124-.073.289-.083 1.303l-.012 1.162-.267.05c-.529.101-1.226.392-1.716.717l-.217.144-.808-.805c-.444-.442-.862-.825-.928-.85a.718.718 0 0 0-.529.015c-.167.087-.433.39-.488.557a.474.474 0 0 0-.001.316c.039.147.168.296.865.998l.819.825-.149.231c-.326.511-.605 1.186-.704 1.707l-.05.266-1.162.013c-1.143.013-1.164.015-1.33.11-.221.126-.308.308-.31.643-.001.332.101.542.322.657.146.077.236.084 1.318.095l1.162.012.05.267c.099.522.377 1.196.704 1.708l.149.231-.819.825c-.704.709-.825.85-.866 1.001a.438.438 0 0 0 .018.346c.083.218.402.519.608.574.316.085.395.032 1.301-.866l.827-.821.213.14c.488.324 1.195.618 1.721.718l.267.05.012 1.162c.011 1.082.018 1.172.095 1.318.115.22.325.323.657.323s.542-.103.657-.323c.077-.146.084-.236.095-1.318l.012-1.162.267-.05c.526-.1 1.233-.394 1.721-.718l.213-.14.827.821c.909.902.986.953 1.309.865.216-.059.556-.401.614-.616.087-.322.037-.398-.865-1.307l-.821-.827.14-.213c.324-.488.618-1.195.718-1.721l.05-.267 1.162-.012c1.082-.011 1.172-.018 1.318-.095.221-.115.323-.325.322-.657-.002-.335-.089-.517-.31-.643-.166-.095-.187-.097-1.33-.11l-1.162-.013-.05-.266c-.1-.525-.395-1.232-.718-1.72l-.14-.213.821-.827c.899-.906.953-.988.866-1.303-.047-.171-.31-.479-.487-.571a.718.718 0 0 0-.529-.015c-.066.025-.484.408-.928.85l-.808.805-.217-.144c-.49-.325-1.187-.616-1.716-.717l-.267-.05-.012-1.162c-.011-1.019-.021-1.179-.083-1.304-.123-.246-.516-.391-.87-.321m1.154 4.361a3.51 3.51 0 0 1 2.182 1.831c.259.519.325.827.325 1.532 0 .525-.014.668-.09.932-.374 1.289-1.447 2.274-2.734 2.509-.328.06-.944.06-1.272 0-1.287-.235-2.36-1.22-2.734-2.509-.076-.264-.09-.407-.09-.932 0-.525.014-.668.09-.932.382-1.319 1.427-2.257 2.81-2.523.055-.01.352-.013.66-.006.424.01.631.033.853.098" fill-rule="evenodd"/></svg>