<svg width="24" height="24" xmlns="http://www.w3.org/2000/svg"><path d="M11.54 5.023c-1.062.102-1.848.312-2.63.703-2.072 1.036-3.462 2.94-3.836 5.254-.066.413-.066 1.627 0 2.04.5 3.092 2.814 5.406 5.906 5.906.412.066 1.627.066 2.04 0 1.528-.247 2.852-.917 3.922-1.986.365-.363.834-.957 1.037-1.31.06-.104.134-.19.165-.19.033 0 .056-.041.056-.101 0-.056.052-.204.115-.33a8.28 8.28 0 0 0 .481-1.349c.14-.574.181-.949.181-1.66 0-.944-.101-1.538-.404-2.38-.858-2.383-2.992-4.147-5.471-4.522-.376-.057-1.289-.101-1.562-.075m1.35 1.559c.759.132 1.563.447 2.158.845 1.269.849 2.112 2.168 2.376 3.721.05.289.06.535.044 1.026-.022.69-.076 1.01-.275 1.612-.093.282-.141.373-.207.393-.179.055-1.454.072-1.791.024-1.417-.204-2.572-.773-3.583-1.764a5.584 5.584 0 0 1-1.172-1.619c-.505-1.014-.654-1.639-.657-2.76-.002-.418.011-.843.029-.946l.032-.185.368-.122c.202-.067.512-.149.688-.183.176-.033.356-.068.4-.078.211-.044 1.267-.021 1.59.036M8.377 9.415a7.754 7.754 0 0 0 5.154 5.925c.744.248 1.661.416 2.297.422l.192.002-.24.223a5.637 5.637 0 0 1-2.084 1.235 5.496 5.496 0 0 1-5.576-1.338A5.378 5.378 0 0 1 6.52 12c0-.883.168-1.625.539-2.38.272-.554.46-.838.851-1.285l.31-.354.044.54c.025.296.076.699.113.894" fill-rule="evenodd"/></svg>