<svg width="24" height="24" xmlns="http://www.w3.org/2000/svg" fill-rule="evenodd"><path d="M11.207 4.043A8.055 8.055 0 0 0 6.9 5.847a7.857 7.857 0 0 0-2.1 2.682 7.94 7.94 0 0 0 .001 6.945 7.632 7.632 0 0 0 1.645 2.267A7.375 7.375 0 0 0 8.529 19.2c2.73 1.319 5.938.984 8.371-.874.339-.259 1.025-.932 1.311-1.286a7.993 7.993 0 0 0 .989-8.511 7.857 7.857 0 0 0-2.1-2.682c-1.617-1.353-3.763-2.01-5.893-1.804m1.733 1.534c2.154.331 3.918 1.619 4.898 3.576.655 1.309.823 3.004.445 4.476a6.51 6.51 0 0 1-5.303 4.794 8.134 8.134 0 0 1-1.96 0c-2.818-.432-5.005-2.635-5.443-5.483-.116-.751-.059-1.797.14-2.569.644-2.508 2.714-4.378 5.303-4.791.436-.069 1.478-.071 1.92-.003m-.198 3.906c-2.433.526-2.458.534-2.673.882-.095.154-.187.528-.59 2.396a103.446 103.446 0 0 0-.466 2.225c.006.006 1.007-.204 2.225-.466 2.454-.528 2.477-.535 2.693-.886.096-.155.184-.511.571-2.318l.478-2.226c.012-.05.008-.088-.009-.086-.017.002-1.02.217-2.229.479m.298 1.487c0 .038-.365 1.688-.375 1.698-.022.023-1.676.374-1.69.36-.014-.014.338-1.674.359-1.695a48.032 48.032 0 0 1 1.656-.368c.028-.003.05 0 .05.005"/></svg>