<svg width="48" height="48" viewBox="0 0 48 48" fill="none" xmlns="http://www.w3.org/2000/svg">
<circle cx="24" cy="24" r="24" fill="#FF2539"/>
<path d="M13.9463 34.7632C12.7781 34.7632 11.6099 34.7805 10.4417 34.7545C9.53304 34.7372 8.89268 34.1747 8.96191 33.4132C8.99652 33.0411 9.14363 32.6517 9.32535 32.3229C10.2253 30.696 11.1512 29.0865 12.0685 27.4682C15.1319 22.0771 18.1866 16.6946 21.2499 11.3035C21.6739 10.5506 22.1066 9.79777 22.5306 9.05357C22.5652 8.99299 22.5999 8.93242 22.6431 8.87184C23.396 7.71227 24.4863 7.70362 25.2132 8.8805C25.7151 9.68527 26.1478 10.5333 26.6151 11.3641C27.2295 12.4544 27.8525 13.5447 28.4756 14.6351C29.3669 16.1841 29.3756 17.7244 28.4756 19.2734C25.9055 23.7299 23.3354 28.1865 20.7567 32.6344C19.9346 34.0449 18.6885 34.7632 17.0529 34.7718C16.0232 34.7718 14.9848 34.7632 13.9463 34.7632Z" fill="white"/>
<path d="M32.7244 34.763C31.3226 34.763 29.9293 34.763 28.5275 34.763C28.3544 34.763 28.1813 34.763 28.0083 34.7544C26.6583 34.7111 26.0699 33.7246 26.7016 32.5218C27.117 31.7343 27.5929 30.9728 28.0429 30.2026C29.1592 28.2815 30.2668 26.3605 31.3831 24.4394C31.66 23.9721 31.9802 23.5394 32.5687 23.4529C33.3302 23.349 33.7888 23.7817 34.1263 24.3788C35.208 26.2653 36.281 28.1604 37.3541 30.0555C37.7781 30.791 38.2021 31.5353 38.6175 32.2708C38.6954 32.4093 38.7732 32.5477 38.8338 32.6948C39.3098 33.8025 38.73 34.7284 37.5185 34.7457C35.9262 34.7803 34.3253 34.763 32.7244 34.763Z" fill="white"/>
</svg>
