<svg width="30" height="31" viewBox="0 0 30 31" fill="none" xmlns="http://www.w3.org/2000/svg">
<circle cx="15" cy="15.5" r="15" fill="#F3BA2F"/>
<path fill-rule="evenodd" clip-rule="evenodd" d="M15 10.02L11.1158 13.9042L11.1159 13.904L8.856 11.644L15 5.5L21.146 11.6458L18.886 13.9058L15 10.02ZM7.26008 13.2396L5 15.5L7.25992 17.7596L9.52 15.4995L7.26008 13.2396ZM15 20.98L11.1158 17.0961L8.8528 19.3528L8.856 19.356L15 25.5L21.146 19.3542L21.1471 19.353L18.8859 17.0942L15 20.98ZM22.7401 13.2409L20.48 15.501L22.74 17.7609L25 15.5008L22.7401 13.2409ZM17.2933 15.4988H17.2925L17.2946 15.4999L17.2934 15.5012L15.0002 17.7945L12.7089 15.5029L12.7057 15.4996L12.7089 15.4965L13.1105 15.0948L13.3052 14.9L15.0002 13.2055L17.2933 15.4988Z" fill="black"/>
</svg>
