<svg width="30" height="31" viewBox="0 0 30 31" fill="none" xmlns="http://www.w3.org/2000/svg">
<path d="M0 15.5C0 7.21573 6.71573 0.5 15 0.5C23.2843 0.5 30 7.21573 30 15.5C30 23.7843 23.2843 30.5 15 30.5C6.71573 30.5 0 23.7843 0 15.5Z" fill="#FFA800"/>
<path fill-rule="evenodd" clip-rule="evenodd" d="M19.9369 13.7963C19.7796 14.8823 19.2122 15.5394 18.2349 15.7675C18.876 16.0991 19.3115 16.5251 19.5414 17.0455C19.7712 17.566 19.7481 18.2216 19.4722 19.0126C19.3291 19.4161 19.1444 19.7567 18.9181 20.0345C18.6918 20.3123 18.4398 20.5251 18.1622 20.6728C17.8847 20.8205 17.56 20.921 17.1883 20.9743C16.8166 21.0277 16.4379 21.0407 16.0522 21.0133C15.6665 20.9859 15.2319 20.9248 14.7485 20.8299L14.1975 23.058L12.852 22.7252L13.3943 20.5322C12.9283 20.4169 12.5737 20.3261 12.3305 20.2598L11.786 22.4616L10.4404 22.1289L10.9914 19.9009C10.8866 19.8749 10.7296 19.8346 10.5207 19.7798C10.3117 19.725 10.1519 19.684 10.0412 19.6566L8.29372 19.2245L8.95998 17.6925L9.92983 17.9324C10.2211 18.0044 10.4267 17.8976 10.5468 17.6121L11.4154 14.0996L11.5552 14.1342C11.5217 14.1197 11.4758 14.1053 11.4175 14.0909L12.0377 11.5833C12.0599 11.1684 11.8496 10.9063 11.407 10.7968L10.4371 10.557L10.7914 9.12406L12.6416 9.59086C13.0144 9.68305 13.2976 9.75 13.4913 9.79171L14.0358 7.58989L15.3813 7.92263L14.8477 10.0808C15.3282 10.1872 15.6849 10.2693 15.9179 10.3269L16.4473 8.18623L17.7929 8.51897L17.2484 10.7208C17.6985 10.8754 18.09 11.0417 18.423 11.2199C18.756 11.398 19.0527 11.6105 19.3131 11.8572C19.5735 12.104 19.7576 12.3905 19.8654 12.717C19.9732 13.0434 19.997 13.4032 19.9369 13.7963ZM16.88 18.0937C16.9319 17.884 16.9343 17.6868 16.8873 17.5021C16.8402 17.3174 16.7656 17.1567 16.6634 17.0202C16.5611 16.8837 16.4156 16.7534 16.2269 16.6295C16.0381 16.5055 15.8606 16.4045 15.6945 16.3263C15.5284 16.2481 15.3194 16.1686 15.0674 16.0878C14.8154 16.0069 14.6166 15.9485 14.471 15.9125C14.3254 15.8765 14.1368 15.8329 13.9053 15.7818C13.6738 15.7308 13.5347 15.6995 13.4881 15.688L12.7578 18.6412C12.8044 18.6527 12.9118 18.6808 13.08 18.7255C13.2482 18.7702 13.3876 18.8062 13.4983 18.8336C13.609 18.861 13.7644 18.8948 13.9646 18.935C14.1649 18.9752 14.3381 19.0057 14.4844 19.0264C14.6307 19.0472 14.8029 19.0635 15.0008 19.0753C15.1988 19.0872 15.3705 19.0864 15.516 19.0729C15.6615 19.0595 15.815 19.0325 15.9764 18.9921C16.1378 18.9516 16.2745 18.8927 16.3863 18.8153C16.4982 18.7379 16.5984 18.639 16.6868 18.5187C16.7753 18.3984 16.8397 18.2568 16.88 18.0937ZM17.3057 13.2431C17.3418 13.4096 17.336 13.589 17.2885 13.7812C17.2482 13.9443 17.1852 14.0864 17.0997 14.2074C17.0141 14.3284 16.9077 14.4211 16.7806 14.4855C16.6534 14.5498 16.5262 14.6018 16.399 14.6414C16.2717 14.681 16.1171 14.7 15.9352 14.6983C15.7533 14.6966 15.5954 14.6915 15.4615 14.6831C15.3276 14.6747 15.1634 14.6511 14.969 14.6123C14.7747 14.5735 14.6276 14.5433 14.5278 14.5218C14.4281 14.5002 14.2927 14.4667 14.1216 14.4213C13.9504 14.3759 13.8503 14.3496 13.8212 14.3424L14.4845 11.66C14.5253 11.6701 14.6407 11.6971 14.8307 11.741C15.0208 11.7849 15.1787 11.8209 15.3047 11.8489C15.4307 11.877 15.5978 11.926 15.8061 11.9961C16.0144 12.0661 16.1877 12.1337 16.3261 12.1989C16.4646 12.264 16.6129 12.3517 16.771 12.4619C16.9292 12.5721 17.0489 12.6882 17.1299 12.8102C17.211 12.9323 17.2696 13.0766 17.3057 13.2431Z" fill="white"/>
</svg>
