<svg width="48" height="48" viewBox="0 0 48 48" fill="none" xmlns="http://www.w3.org/2000/svg">
<rect width="48" height="48" rx="24" fill="#F2F2F2"/>
<path d="M24 7L38.7224 15.5V32.5L24 41L9.27757 32.5V15.5L24 7Z" fill="url(#paint0_linear_8518_56695)"/>
<path fill-rule="evenodd" clip-rule="evenodd" d="M23.8474 41V7L9.125 15.5V32.5L23.8474 41Z" fill="url(#paint1_linear_8518_56695)"/>
<path fill-rule="evenodd" clip-rule="evenodd" d="M19.3308 15.1265C18.8802 15.1265 18.4941 15.4487 18.4135 15.892L17.8202 19.1552C17.7161 19.7275 18.1558 20.2544 18.7375 20.2544H28.6237C29.2054 20.2544 29.6451 19.7275 29.541 19.1552L28.9477 15.892C28.8671 15.4487 28.481 15.1265 28.0304 15.1265H19.3308ZM18.1481 22.0489L20.0445 23.4712C20.2792 23.6473 20.4174 23.9236 20.4174 24.2171V27.2472L22.2886 29.1184C22.5648 29.3946 22.6395 29.8137 22.4758 30.1683L21.5997 32.0666C21.4473 32.3967 21.1169 32.6082 20.7532 32.6082H18.6276C18.293 32.6082 17.9841 32.4289 17.8181 32.1384L13.8566 25.2058C13.6135 24.7803 13.7412 24.2393 14.1489 23.9674L17.0715 22.0191C17.4004 21.7998 17.8318 21.8118 18.1481 22.0489ZM27.7829 23.4712L29.6793 22.0489C29.9955 21.8118 30.427 21.7998 30.7559 22.0191L33.6785 23.9674C34.0862 24.2393 34.2139 24.7803 33.9708 25.2058L30.0093 32.1384C29.8433 32.4289 29.5344 32.6082 29.1998 32.6082H27.0742C26.7105 32.6082 26.38 32.3967 26.2276 32.0666L25.3516 30.1683C25.1879 29.8137 25.2626 29.3946 25.5388 29.1184L27.41 27.2472V24.2171C27.41 23.9236 27.5481 23.6473 27.7829 23.4712ZM21.3497 21.1866H26.0115V21.1872H26.9438L26.2445 22.5857H26.0115V27.2468H21.3497V22.5857H21.1166L19.9512 21.1872H21.3497V21.1866Z" fill="white"/>
<defs>
<linearGradient id="paint0_linear_8518_56695" x1="24" y1="7" x2="24" y2="41" gradientUnits="userSpaceOnUse">
<stop offset="0.0507812" stop-color="#1D3569"/>
<stop offset="1" stop-color="#101C3B"/>
</linearGradient>
<linearGradient id="paint1_linear_8518_56695" x1="16.4862" y1="7" x2="20.0156" y2="37.8125" gradientUnits="userSpaceOnUse">
<stop stop-color="#00153F"/>
<stop offset="1" stop-color="#1D376C" stop-opacity="0"/>
</linearGradient>
</defs>
</svg>
