<svg width="30" height="31" viewBox="0 0 30 31" fill="none" xmlns="http://www.w3.org/2000/svg">
<path d="M0 15.5C0 7.21573 6.71573 0.5 15 0.5V0.5C23.2843 0.5 30 7.21573 30 15.5V15.5C30 23.7843 23.2843 30.5 15 30.5V30.5C6.71573 30.5 0 23.7843 0 15.5V15.5Z" fill="black"/>
<path fill-rule="evenodd" clip-rule="evenodd" d="M15.1111 14.1936V13.5078L15.1115 13.5079V8.00439L19.5825 15.5855L19.5813 15.5851L19.5822 15.5855L15.1111 17.7816V14.1937L15.1107 14.1939V17.7816L10.6396 15.5855L10.6401 15.5853L15.1111 8.00438V13.5076L15.1111 13.5076V13.5078L15.1111 13.5078V14.1936L15.1111 14.1936ZM15.1113 8.00406L15.1111 8.00438V8.00374L15.1113 8.00406ZM15.1113 8.00406L15.1115 8.00372V8.00439L15.1113 8.00406ZM15.1109 17.7817L15.1111 17.7816V17.7818L15.1109 17.7817ZM15.1109 17.7817L15.1107 17.7816V17.7818L15.1109 17.7817ZM15.1111 18.6892V22.9962L15.1111 22.9963L15.1111 22.9962V18.6892L10.6396 16.2233L15.1111 22.9962V22.9963L15.1111 22.9963L15.1111 22.9963V22.9962L19.5825 16.2233L15.1111 18.6892Z" fill="white"/>
</svg>
