<svg width="90" height="90" viewBox="0 0 90 90" fill="none" xmlns="http://www.w3.org/2000/svg">
<g filter="url(#filter0_d_701_128)">
<path d="M3 44C3 20.804 21.804 2 45 2C68.196 2 87 20.804 87 44C87 67.196 68.196 86 45 86C21.804 86 3 67.196 3 44Z" fill="#312755"/>
<g clip-path="url(#clip0_701_128)">
<path d="M71.1213 25.6807C70.5371 23.4692 68.6594 21.2576 65.2796 18.7958C62.5673 16.8346 59.6882 15.708 57.3932 15.708C56.9342 15.708 56.517 15.7497 56.0997 15.8332C55.0565 16.0418 54.1386 16.7929 53.5544 17.9195C52.845 19.2548 52.6781 21.049 53.1371 22.1339C53.304 22.4677 53.5127 22.885 53.763 23.2605C51.5515 24.5958 50.2997 24.9713 50.1328 25.013C55.8911 26.9325 60.6896 30.9382 63.694 36.1541L63.7357 35.6533C63.8609 34.2764 64.2781 32.6907 64.8623 31.0634C65.4465 31.2303 66.0306 31.3138 66.6148 31.3138C68.1587 31.3138 69.494 30.6879 70.3285 29.5612C71.163 28.4346 71.4968 26.9325 71.1213 25.6807Z" fill="#5E12A0"/>
<path d="M65.1114 29.8546C68.9085 30.8978 70.4524 27.9769 69.9517 26.0158C69.4093 24.0546 67.6567 22.0518 64.569 19.7985C61.4812 17.5453 58.3517 16.6273 56.3488 17.0446C54.3459 17.4618 53.7618 20.5079 54.2625 21.6762C54.4711 22.1352 54.9301 22.8028 55.556 23.5539C54.7632 24.0964 54.0121 24.5136 53.3862 24.8892C57.2251 26.6 60.5632 29.2705 63.0668 32.6086C63.3589 31.482 63.7762 30.4805 64.1517 29.6043C64.4438 29.646 64.7776 29.7295 65.1114 29.8546Z" fill="url(#paint0_radial_701_128)"/>
<path d="M43.3716 70.748C56.2538 70.748 66.6967 60.3051 66.6967 47.4228C66.6967 34.5406 56.2538 24.0977 43.3716 24.0977C30.4893 24.0977 20.0464 34.5406 20.0464 47.4228C20.0464 60.3051 30.4893 70.748 43.3716 70.748Z" fill="url(#paint1_radial_701_128)"/>
<path d="M68.0336 24.0956C64.8624 20.7575 62.1919 19.8812 58.9789 19.1719C56.4753 18.5877 57.143 17.169 60.189 17.4611C58.7286 16.9604 57.3516 16.8352 56.3502 17.0438C54.3473 17.4611 53.7631 20.5071 54.2638 21.6755C54.4725 22.1345 54.9315 22.8021 55.5574 23.5532C54.4307 24.3043 53.471 24.8467 52.6782 25.264C53.0538 25.4309 53.5128 25.6395 54.0552 25.9316C55.4739 26.6827 57.0178 27.9345 57.0178 27.9345C54.6811 25.9316 55.1818 25.0136 58.3948 22.7604C59.3962 22.051 61.2322 22.1345 62.943 23.0107C64.6538 23.887 66.6566 26.0985 66.6566 26.0985L64.7372 29.7704C64.8624 29.8122 64.9876 29.8539 65.1127 29.8956C66.3228 30.2294 67.2825 30.146 68.0336 29.8539C68.9099 29.3115 71.2048 27.4755 68.0336 24.0956Z" fill="#A98698" fill-opacity="0.6"/>
<path d="M58.9359 21.1761C59.7704 21.5099 60.8553 22.0941 62.1906 22.9704C63.7762 24.0135 65.1532 25.1819 66.0294 26.0999C64.569 28.0193 63.6093 30.6481 63.0251 32.484C63.3172 32.9013 63.651 33.3186 63.9431 33.7358C64.2352 32.6927 64.7359 31.1488 65.4035 29.6049C65.5704 29.6466 65.7791 29.6466 65.9877 29.6466C66.4884 29.6466 67.0726 29.5632 67.5316 29.1876C67.8654 28.9373 68.2409 28.4783 68.1992 27.6438C68.1992 26.8509 67.5733 25.8495 66.2798 24.6394C65.3618 23.7632 64.11 22.8035 62.8582 21.9272C59.2697 19.5488 56.7661 18.8812 55.6395 20.0078C54.8884 20.7589 54.9719 21.6768 55.2222 22.3445C53.887 23.2207 52.7604 23.8466 52.0093 24.2639C52.51 24.4308 52.969 24.6394 53.4697 24.8481C54.805 24.1387 56.7244 22.9286 58.9359 21.1761ZM66.8222 27.143C66.9474 27.3517 66.9891 27.5603 66.9891 27.6855C66.9891 28.061 66.8639 28.1862 66.7805 28.2696C66.6136 28.3948 66.2798 28.4783 65.9877 28.4783C66.2381 27.9776 66.5301 27.5603 66.8222 27.143ZM56.5157 20.9258C56.6409 20.8006 56.9747 20.7171 57.5172 20.8006C57.0999 21.1344 56.6827 21.4265 56.2654 21.7186C56.2237 21.4265 56.2654 21.1344 56.5157 20.9258Z" fill="#5E12A0"/>
<path d="M43.3716 22.7173C29.727 22.7173 18.6694 33.7748 18.6694 47.4194C18.6694 61.064 29.727 72.1216 43.3716 72.1216C57.0162 72.1216 68.0737 61.064 68.0737 47.4194C68.0737 33.7748 56.9745 22.7173 43.3716 22.7173ZM43.3716 70.7446C30.4781 70.7446 20.0464 60.313 20.0464 47.4194C20.0464 34.5259 30.4781 24.0943 43.3716 24.0943C56.2651 24.0943 66.6968 34.5259 66.6968 47.4194C66.6968 60.313 56.2234 70.7446 43.3716 70.7446Z" fill="#5E12A0"/>
<path d="M43.3716 70.748C56.2538 70.748 66.6967 60.3051 66.6967 47.4228C66.6967 34.5406 56.2538 24.0977 43.3716 24.0977C30.4893 24.0977 20.0464 34.5406 20.0464 47.4228C20.0464 60.3051 30.4893 70.748 43.3716 70.748Z" fill="url(#paint2_linear_701_128)"/>
<path d="M43.2049 67.9113C30.4782 65.8667 21.8408 53.8911 23.9272 41.1645C24.8451 35.5314 27.6826 30.7328 31.6883 27.2695C25.8466 30.6494 21.507 36.5328 20.3387 43.7098C18.2941 56.4364 26.9315 68.412 39.6164 70.4566C46.7099 71.6249 53.5531 69.4134 58.602 65.0738C54.1372 67.6609 48.7128 68.7875 43.2049 67.9113Z" fill="#A98698" fill-opacity="0.6"/>
<path d="M47.0869 24.4334C41.2035 23.4737 35.4869 24.8089 30.8136 27.7715C30.7301 27.855 30.6467 27.9384 30.6467 27.9384C32.4409 26.8535 35.0697 25.8938 35.0697 25.8938C28.31 29.8161 26.2236 34.2809 26.2236 34.2809C28.8524 29.1902 36.5718 25.6017 42.6222 25.3514C48.6726 25.101 52.6366 26.8952 57.4769 30.7758C62.3172 34.6981 65.238 42.7096 64.9459 49.0521C64.6956 55.3945 61.3575 60.5269 61.3575 60.5269C63.6524 57.5643 65.0294 55.3945 65.9057 53.183C66.0726 52.5154 66.2395 51.8478 66.3229 51.1384C68.4093 38.4535 59.8136 26.478 47.0869 24.4334Z" fill="url(#paint3_linear_701_128)"/>
<path d="M65.5307 47.2144C65.5307 59.4403 55.5998 69.3712 43.3739 69.3712C31.148 69.3712 21.1753 59.4403 21.1753 47.2144H65.5307Z" fill="url(#paint4_linear_701_128)"/>
<path d="M63.7776 47.2144C63.7776 59.1482 54.3474 68.9122 42.4971 69.3712H43.3733C55.5992 69.3712 65.5302 59.4403 65.5302 47.2144H63.7776Z" fill="url(#paint5_linear_701_128)"/>
<path d="M24.3048 47.2144H21.1753C21.1753 59.4403 31.1062 69.3712 43.3321 69.3712C43.8746 69.3712 44.3753 69.3712 44.876 69.3295C33.4012 68.4949 24.3048 58.8978 24.3048 47.2144Z" fill="url(#paint6_linear_701_128)"/>
<path d="M65.489 47.4249C65.489 44.8796 61.0659 43.4191 55.1825 42.9184C50.9264 42.5846 46.6285 43.0019 41.7048 44.504C37.4487 45.7558 33.6098 45.5472 30.8141 45.2134C24.5969 44.504 21.1753 44.4206 21.1753 47.4249C21.1753 51.7644 30.0213 57.1889 43.2904 55.3112C50.0084 54.3515 53.4717 52.3903 57.4357 51.0551C61.7336 49.6364 65.489 49.6781 65.489 47.4249Z" fill="url(#paint7_linear_701_128)"/>
<path d="M56.7668 39.702C57.6426 39.702 58.3524 38.9922 58.3524 38.1164C58.3524 37.2405 57.6426 36.5308 56.7668 36.5308C55.8909 36.5308 55.1812 37.2405 55.1812 38.1164C55.1812 38.9922 55.8909 39.702 56.7668 39.702Z" fill="white"/>
<path d="M50.6319 36.9048C52.7061 36.9048 54.3873 35.2237 54.3873 33.1494C54.3873 31.0752 52.7061 29.394 50.6319 29.394C48.5576 29.394 46.8765 31.0752 46.8765 33.1494C46.8765 35.2237 48.5576 36.9048 50.6319 36.9048Z" fill="white"/>
<path d="M62.4434 30.1486H62.36C62.1096 30.1069 61.9427 29.8565 61.9844 29.5645C62.36 27.645 63.9456 25.8091 64.029 25.7256C64.1959 25.517 64.5297 25.517 64.6966 25.6839C64.9053 25.8508 64.9053 26.1846 64.7384 26.3515C64.6966 26.3932 63.2362 28.104 62.9024 29.7731C62.8607 30.0234 62.652 30.1486 62.4434 30.1486Z" fill="url(#paint8_linear_701_128)"/>
<path d="M57.3916 15.7094C59.7283 15.7094 62.6074 16.836 65.2779 18.7971C68.6578 21.259 70.5355 23.4288 71.1196 25.682C71.4534 26.9755 71.1614 28.436 70.3268 29.5209C69.4506 30.6475 68.157 31.2734 66.6132 31.2734C66.0707 31.2734 65.4865 31.1899 64.8606 31.023C64.4851 31.9827 64.193 32.9424 63.9844 33.8604C66.5297 37.741 68.0319 42.4144 68.0319 47.4216C68.0319 61.0662 56.9743 72.1237 43.3297 72.1237C29.6851 72.1237 18.6693 61.0662 18.6693 47.4216C18.6693 33.777 29.7268 22.7194 43.3714 22.7194C46.3757 22.7194 49.2549 23.2619 51.9254 24.2633C52.4261 24.013 53.052 23.6791 53.7614 23.2619C53.511 22.8863 53.2606 22.5108 53.1355 22.1353C52.6765 21.0086 52.8434 19.2561 53.5527 17.9209C54.1369 16.836 55.0132 16.0849 56.098 15.8345C56.4736 15.7511 56.9326 15.7094 57.3916 15.7094ZM57.3916 15C56.8909 15 56.3901 15.0417 55.9311 15.1669C54.6793 15.459 53.5944 16.2935 52.8851 17.6288C52.0923 19.1727 51.8837 21.1755 52.4261 22.4691C52.5096 22.636 52.593 22.8446 52.7182 23.0532C52.4261 23.2201 52.134 23.3871 51.8419 23.5122C49.088 22.5525 46.2506 22.0518 43.3297 22.0518C39.9081 22.0518 36.57 22.7194 33.4405 24.0547C30.3944 25.3482 27.6822 27.1842 25.3455 29.5209C23.0088 31.8576 21.1729 34.5698 19.8793 37.6158C18.5441 40.7453 17.8765 44.0835 17.8765 47.505C17.8765 50.9266 18.5441 54.2648 19.8793 57.3942C21.1729 60.4403 23.0088 63.1525 25.3455 65.4892C27.6822 67.8259 30.3944 69.6619 33.4405 70.9554C36.57 72.2907 39.9081 72.9583 43.3297 72.9583C46.7513 72.9583 50.0894 72.2907 53.2189 70.9554C56.2649 69.6619 58.9772 67.8259 61.3139 65.4892C63.6506 63.1525 65.4865 60.4403 66.7801 57.3942C68.1153 54.2648 68.7829 50.9266 68.7829 47.505C68.7829 42.623 67.406 37.9079 64.7772 33.8187C64.9024 33.1928 65.111 32.5669 65.3196 31.941C65.7369 32.0245 66.1959 32.0662 66.6132 32.0662C68.3657 32.0662 69.9096 31.3568 70.911 30.0216C71.8707 28.7698 72.2462 27.0173 71.829 25.5568C71.1614 23.1367 69.2419 20.8417 65.6952 18.2964C62.8995 16.1683 59.8534 15 57.3916 15Z" fill="white"/>
<path d="M44.9168 66.9503C45.4008 66.9503 45.793 66.558 45.793 66.074C45.793 65.59 45.4008 65.1978 44.9168 65.1978C44.4328 65.1978 44.0405 65.59 44.0405 66.074C44.0405 66.558 44.4328 66.9503 44.9168 66.9503Z" fill="white" fill-opacity="0.2"/>
<path d="M44.4161 66.6172C44.0823 66.2834 44.0823 65.6992 44.4161 65.3654C44.4578 65.3237 44.5412 65.282 44.583 65.2402C44.4578 65.282 44.3743 65.3654 44.2909 65.4489C43.9571 65.7827 43.9571 66.3669 44.2909 66.7007C44.583 66.9928 45.0002 67.0345 45.3758 66.8258C45.042 66.951 44.6664 66.8676 44.4161 66.6172Z" fill="url(#paint9_linear_701_128)"/>
<path d="M45.2094 65.7796C45.3016 65.7796 45.3763 65.7049 45.3763 65.6127C45.3763 65.5205 45.3016 65.4458 45.2094 65.4458C45.1172 65.4458 45.0425 65.5205 45.0425 65.6127C45.0425 65.7049 45.1172 65.7796 45.2094 65.7796Z" fill="white" fill-opacity="0.3"/>
<path d="M50.2976 66.3272C50.7817 66.3272 51.1739 65.935 51.1739 65.451C51.1739 64.9669 50.7817 64.5747 50.2976 64.5747C49.8136 64.5747 49.4214 64.9669 49.4214 65.451C49.4214 65.935 49.8136 66.3272 50.2976 66.3272Z" fill="white" fill-opacity="0.2"/>
<path d="M49.7969 65.9873C49.4631 65.6535 49.4631 65.0693 49.7969 64.7355C49.8387 64.6938 49.9221 64.6521 49.9638 64.6104C49.8387 64.6521 49.7552 64.7355 49.6717 64.819C49.3379 65.1528 49.3379 65.737 49.6717 66.0708C49.9638 66.3629 50.3811 66.4046 50.7566 66.196C50.4228 66.3211 50.0473 66.2377 49.7969 65.9873Z" fill="url(#paint10_linear_701_128)"/>
<path d="M50.5902 65.1561C50.6825 65.1561 50.7572 65.0814 50.7572 64.9892C50.7572 64.897 50.6825 64.8223 50.5902 64.8223C50.498 64.8223 50.4233 64.897 50.4233 64.9892C50.4233 65.0814 50.498 65.1561 50.5902 65.1561Z" fill="white" fill-opacity="0.3"/>
<path d="M41.8285 64.8225C42.4736 64.8225 42.9968 64.2993 42.9968 63.6542C42.9968 63.0091 42.4736 62.4858 41.8285 62.4858C41.1834 62.4858 40.6602 63.0091 40.6602 63.6542C40.6602 64.2993 41.1834 64.8225 41.8285 64.8225Z" fill="white" fill-opacity="0.2"/>
<path d="M41.1606 64.406C40.7016 63.947 40.7016 63.1959 41.1606 62.737C41.244 62.6535 41.3275 62.6118 41.4109 62.5283C41.244 62.57 41.1188 62.6535 40.9937 62.7787C40.5347 63.2377 40.5347 63.9888 40.9937 64.4477C41.3692 64.8233 41.9534 64.9067 42.4124 64.6564C41.9951 64.8233 41.4944 64.7398 41.1606 64.406Z" fill="url(#paint11_linear_701_128)"/>
<path d="M42.245 63.3196C42.3831 63.3196 42.4953 63.2073 42.4953 63.0692C42.4953 62.9311 42.3831 62.8188 42.245 62.8188C42.1069 62.8188 41.9946 62.9311 41.9946 63.0692C41.9946 63.2073 42.1069 63.3196 42.245 63.3196Z" fill="white" fill-opacity="0.3"/>
<path d="M47.9208 64.2351C48.5659 64.2351 49.0891 63.7119 49.0891 63.0668C49.0891 62.4217 48.5659 61.8984 47.9208 61.8984C47.2757 61.8984 46.7524 62.4217 46.7524 63.0668C46.7524 63.7119 47.2757 64.2351 47.9208 64.2351Z" fill="white" fill-opacity="0.2"/>
<path d="M47.2529 63.8186C46.7939 63.3596 46.7939 62.6085 47.2529 62.1496C47.3363 62.0661 47.4198 62.0244 47.5032 61.9409C47.3363 61.9826 47.2111 62.0661 47.0859 62.1913C46.627 62.6503 46.627 63.4013 47.0859 63.8603C47.4615 64.2359 48.0457 64.3193 48.5047 64.069C48.0874 64.2359 47.5867 64.1524 47.2529 63.8186Z" fill="url(#paint12_linear_701_128)"/>
<path d="M48.3373 62.7322C48.4754 62.7322 48.5876 62.6199 48.5876 62.4818C48.5876 62.3437 48.4754 62.2314 48.3373 62.2314C48.1992 62.2314 48.0869 62.3437 48.0869 62.4818C48.0869 62.6199 48.1992 62.7322 48.3373 62.7322Z" fill="white" fill-opacity="0.3"/>
<path d="M36.8623 64.4062C37.9226 64.4062 38.7817 63.5471 38.7817 62.4868C38.7817 61.427 37.9226 60.5674 36.8623 60.5674C35.8024 60.5674 34.9429 61.427 34.9429 62.4868C34.9429 63.5471 35.8024 64.4062 36.8623 64.4062Z" fill="white" fill-opacity="0.2"/>
<path d="M35.7775 63.6923C35.0265 62.9412 35.0265 61.7312 35.7775 60.9801C35.9027 60.8549 36.0279 60.7714 36.1948 60.688C35.9444 60.7714 35.7358 60.9383 35.5272 61.1053C34.7761 61.8563 34.7761 63.0664 35.5272 63.8175C36.1531 64.4434 37.1128 64.5686 37.8639 64.1096C37.1545 64.4017 36.32 64.2765 35.7775 63.6923Z" fill="url(#paint13_linear_701_128)"/>
<path d="M37.5301 61.8975C37.7604 61.8975 37.9473 61.7106 37.9473 61.4803C37.9473 61.2499 37.7604 61.063 37.5301 61.063C37.2997 61.063 37.1128 61.2499 37.1128 61.4803C37.1128 61.7106 37.2997 61.8975 37.5301 61.8975Z" fill="white" fill-opacity="0.3"/>
<path d="M54.0137 59.6909C55.0739 59.6909 55.9331 58.8317 55.9331 57.7715C55.9331 56.7116 55.0739 55.8521 54.0137 55.8521C52.9538 55.8521 52.0942 56.7116 52.0942 57.7715C52.0942 58.8317 52.9538 59.6909 54.0137 59.6909Z" fill="white" fill-opacity="0.2"/>
<path d="M52.8864 58.977C52.1353 58.2259 52.1353 57.0158 52.8864 56.2647C53.0116 56.1396 53.1368 56.0561 53.3037 55.9727C53.0533 56.0561 52.8447 56.223 52.6361 56.3899C51.885 57.141 51.885 58.3511 52.6361 59.1022C53.262 59.7281 54.2217 59.8532 54.9728 59.3942C54.2634 59.6863 53.4706 59.5611 52.8864 58.977Z" fill="url(#paint14_linear_701_128)"/>
<path d="M54.6814 57.1822C54.9118 57.1822 55.0987 56.9953 55.0987 56.7649C55.0987 56.5346 54.9118 56.3477 54.6814 56.3477C54.4511 56.3477 54.2642 56.5346 54.2642 56.7649C54.2642 56.9953 54.4511 57.1822 54.6814 57.1822Z" fill="white" fill-opacity="0.3"/>
</g>
</g>
<defs>
<filter id="filter0_d_701_128" x="0" y="0" width="90" height="90" filterUnits="userSpaceOnUse" color-interpolation-filters="sRGB">
<feFlood flood-opacity="0" result="BackgroundImageFix"/>
<feColorMatrix in="SourceAlpha" type="matrix" values="0 0 0 0 0 0 0 0 0 0 0 0 0 0 0 0 0 0 127 0" result="hardAlpha"/>
<feOffset dy="1"/>
<feGaussianBlur stdDeviation="1.5"/>
<feColorMatrix type="matrix" values="0 0 0 0 0.129412 0 0 0 0 0.105882 0 0 0 0 0.305882 0 0 0 0.15 0"/>
<feBlend mode="normal" in2="BackgroundImageFix" result="effect1_dropShadow_701_128"/>
<feBlend mode="normal" in="SourceGraphic" in2="effect1_dropShadow_701_128" result="shape"/>
</filter>
<radialGradient id="paint0_radial_701_128" cx="0" cy="0" r="1" gradientUnits="userSpaceOnUse" gradientTransform="translate(69.1906 23.387) scale(18.6495)">
<stop stop-color="#FFEAFF" stop-opacity="0.6"/>
<stop offset="0.68" stop-color="#A087C9"/>
<stop offset="1" stop-color="#10002F"/>
</radialGradient>
<radialGradient id="paint1_radial_701_128" cx="0" cy="0" r="1" gradientUnits="userSpaceOnUse" gradientTransform="translate(58.8148 31.342) scale(45.6285)">
<stop stop-color="#FFEAFF" stop-opacity="0.6"/>
<stop offset="0.68" stop-color="#A087C9"/>
<stop offset="1" stop-color="#10002F"/>
</radialGradient>
<linearGradient id="paint2_linear_701_128" x1="39.63" y1="70.4171" x2="47.0906" y2="24.3897" gradientUnits="userSpaceOnUse">
<stop stop-color="#81FFFF" stop-opacity="0.6"/>
<stop offset="0.62" stop-color="white" stop-opacity="0"/>
<stop offset="1" stop-color="white" stop-opacity="0"/>
</linearGradient>
<linearGradient id="paint3_linear_701_128" x1="59.8115" y1="31.5839" x2="40.5238" y2="49.281" gradientUnits="userSpaceOnUse">
<stop stop-color="white" stop-opacity="0.6"/>
<stop offset="0.29" stop-color="white" stop-opacity="0.6"/>
<stop offset="0.78" stop-color="white" stop-opacity="0"/>
<stop offset="1" stop-color="white" stop-opacity="0"/>
</linearGradient>
<linearGradient id="paint4_linear_701_128" x1="21.1941" y1="58.2798" x2="65.5199" y2="58.2798" gradientUnits="userSpaceOnUse">
<stop stop-color="#0002E9"/>
<stop offset="1" stop-color="#FF00C7"/>
</linearGradient>
<linearGradient id="paint5_linear_701_128" x1="67.6177" y1="49.1586" x2="43.4913" y2="71.9595" gradientUnits="userSpaceOnUse">
<stop stop-color="white" stop-opacity="0.6"/>
<stop offset="0.29" stop-color="white" stop-opacity="0.6"/>
<stop offset="0.78" stop-color="white" stop-opacity="0"/>
<stop offset="1" stop-color="white" stop-opacity="0"/>
</linearGradient>
<linearGradient id="paint6_linear_701_128" x1="21.1941" y1="58.2798" x2="44.9082" y2="58.2798" gradientUnits="userSpaceOnUse">
<stop stop-color="#000292" stop-opacity="0.7"/>
<stop offset="1" stop-color="#7D00C7" stop-opacity="0.7"/>
</linearGradient>
<linearGradient id="paint7_linear_701_128" x1="21.2238" y1="49.2656" x2="65.4903" y2="49.2656" gradientUnits="userSpaceOnUse">
<stop stop-color="#000292"/>
<stop offset="1" stop-color="#BE00C7"/>
</linearGradient>
<linearGradient id="paint8_linear_701_128" x1="64.7642" y1="25.5224" x2="61.583" y2="30.6923" gradientUnits="userSpaceOnUse">
<stop stop-color="white" stop-opacity="0.6"/>
<stop offset="0.29" stop-color="white" stop-opacity="0.6"/>
<stop offset="0.78" stop-color="white" stop-opacity="0"/>
<stop offset="1" stop-color="white" stop-opacity="0"/>
</linearGradient>
<linearGradient id="paint9_linear_701_128" x1="44.0351" y1="66.0848" x2="45.3604" y2="66.0848" gradientUnits="userSpaceOnUse">
<stop stop-color="white" stop-opacity="0.6"/>
<stop offset="0.29" stop-color="white" stop-opacity="0.6"/>
<stop offset="0.78" stop-color="white" stop-opacity="0"/>
<stop offset="1" stop-color="white" stop-opacity="0"/>
</linearGradient>
<linearGradient id="paint10_linear_701_128" x1="49.3979" y1="65.4532" x2="50.7233" y2="65.4532" gradientUnits="userSpaceOnUse">
<stop stop-color="white" stop-opacity="0.6"/>
<stop offset="0.29" stop-color="white" stop-opacity="0.6"/>
<stop offset="0.78" stop-color="white" stop-opacity="0"/>
<stop offset="1" stop-color="white" stop-opacity="0"/>
</linearGradient>
<linearGradient id="paint11_linear_701_128" x1="40.6482" y1="63.6908" x2="42.4137" y2="63.6908" gradientUnits="userSpaceOnUse">
<stop stop-color="white" stop-opacity="0.6"/>
<stop offset="0.29" stop-color="white" stop-opacity="0.6"/>
<stop offset="0.78" stop-color="white" stop-opacity="0"/>
<stop offset="1" stop-color="white" stop-opacity="0"/>
</linearGradient>
<linearGradient id="paint12_linear_701_128" x1="46.7363" y1="63.0955" x2="48.5017" y2="63.0955" gradientUnits="userSpaceOnUse">
<stop stop-color="white" stop-opacity="0.6"/>
<stop offset="0.29" stop-color="white" stop-opacity="0.6"/>
<stop offset="0.78" stop-color="white" stop-opacity="0"/>
<stop offset="1" stop-color="white" stop-opacity="0"/>
</linearGradient>
<linearGradient id="paint13_linear_701_128" x1="34.9447" y1="62.5311" x2="37.8278" y2="62.5311" gradientUnits="userSpaceOnUse">
<stop stop-color="white" stop-opacity="0.6"/>
<stop offset="0.29" stop-color="white" stop-opacity="0.6"/>
<stop offset="0.78" stop-color="white" stop-opacity="0"/>
<stop offset="1" stop-color="white" stop-opacity="0"/>
</linearGradient>
<linearGradient id="paint14_linear_701_128" x1="52.0696" y1="57.8145" x2="54.9526" y2="57.8145" gradientUnits="userSpaceOnUse">
<stop stop-color="white" stop-opacity="0.6"/>
<stop offset="0.29" stop-color="white" stop-opacity="0.6"/>
<stop offset="0.78" stop-color="white" stop-opacity="0"/>
<stop offset="1" stop-color="white" stop-opacity="0"/>
</linearGradient>
<clipPath id="clip0_701_128">
<rect width="58" height="58" fill="white" transform="translate(16 15)"/>
</clipPath>
</defs>
</svg>
