<svg width="30" height="31" viewBox="0 0 30 31" fill="none" xmlns="http://www.w3.org/2000/svg">
<circle cx="15" cy="15.5" r="15" fill="#ECECEC"/>
<path d="M9.52437 7.91406L24.0594 17.8385L20.4647 23.1524L5.92969 13.1498L9.52437 7.91406Z" fill="url(#paint0_linear_6386_26790)"/>
<path d="M24.06 17.8385C22.8097 19.6359 18.5899 18.9326 14.6044 16.1193C10.5409 13.3843 8.35283 9.71143 9.52501 7.91409C10.7753 6.11675 14.9952 6.82006 18.9806 9.63329C23.0441 12.2902 25.2322 16.0412 24.06 17.8385Z" fill="url(#paint1_linear_6386_26790)"/>
<path d="M20.4652 23.0742C19.2149 24.8716 14.995 24.1682 11.0096 21.355C7.02423 18.5418 4.75802 14.9471 6.00834 13.0716C7.25866 11.2743 11.4785 11.9776 15.4639 14.7908C19.4493 17.604 21.6374 21.2769 20.4652 23.0742Z" fill="url(#paint2_linear_6386_26790)"/>
<path d="M24.0596 17.8385L20.4649 23.1524C19.2146 24.9497 14.9948 24.1683 11.0094 21.4332C10.2279 20.8862 9.5246 20.3392 8.82129 19.714C9.36831 19.6358 10.0716 19.3233 10.7749 18.5418C12.0252 17.2133 12.6504 16.9008 13.1974 16.9789C13.7444 16.9789 14.3696 17.5259 15.3855 18.8544C16.4014 20.1829 17.808 20.5736 18.6676 19.8703C18.7457 19.7921 18.8239 19.7921 18.902 19.714C19.6053 19.167 19.8398 18.9325 21.1682 16.4319C21.4808 15.8067 22.5748 14.7908 24.0596 15.2597C24.4503 16.2756 24.4503 17.1352 24.0596 17.8385Z" fill="#0E0F23"/>
<path fill-rule="evenodd" clip-rule="evenodd" d="M23.5131 17.526C22.419 19.0889 18.5899 18.3074 14.9171 15.7286C11.1661 13.1498 8.97805 9.86773 10.0721 8.30483C11.1661 6.74192 14.9952 7.52337 18.6681 10.1022C22.3409 12.681 24.5289 15.9631 23.5131 17.526ZM20.0747 15.1816C19.5276 15.9631 17.6522 15.5723 15.7767 14.322C13.9793 13.0717 12.8853 11.4306 13.4323 10.6492C13.9793 9.86773 15.8548 10.2585 17.7303 11.5088C19.5276 12.7591 20.6217 14.4002 20.0747 15.1816Z" fill="white"/>
<path d="M9.21199 9.71141C9.21199 9.63326 9.13385 9.55511 9.0557 9.63326C8.97756 9.71141 8.89941 9.71141 8.89941 9.78955C8.97756 10.024 9.0557 10.1803 9.0557 10.3366C9.0557 10.4147 9.13385 10.4929 9.21199 10.4147C9.29014 10.4147 9.36829 10.3366 9.29014 10.2584C9.29014 10.1021 9.29014 9.94584 9.21199 9.71141Z" fill="white"/>
<path d="M9.6026 10.9618C9.6026 10.8836 9.52445 10.8055 9.44631 10.8836C9.36816 10.9618 9.36816 10.9618 9.36816 11.0399C10.2278 12.9935 12.0251 15.1035 14.3695 16.6664C14.4476 16.7445 14.5257 16.6664 14.6039 16.6664C14.682 16.5882 14.6039 16.5101 14.6039 16.4319C12.1814 14.869 10.4622 12.8373 9.6026 10.9618Z" fill="white"/>
<path d="M19.0586 18.62C18.9805 18.62 18.9023 18.62 18.9023 18.6981C18.9023 18.7763 18.9023 18.8544 18.9805 18.8544C19.2149 18.9326 19.5275 19.0107 19.7619 19.0889C19.8401 19.0889 19.9182 19.0889 19.9182 19.0107C19.9182 18.9326 19.9182 18.8544 19.8401 18.8544C19.6057 18.7763 19.2931 18.6981 19.0586 18.62Z" fill="white"/>
<path d="M20.4649 18.9326C20.3867 18.9326 20.3086 19.0107 20.3086 19.0888C20.3086 19.167 20.3867 19.2451 20.4649 19.2451C21.09 19.3233 21.7934 19.4014 22.3404 19.3233C22.4185 19.3233 22.4967 19.2451 22.4967 19.167C22.4967 19.0888 22.4185 19.0107 22.3404 19.0107C21.7152 19.0888 21.09 19.0107 20.4649 18.9326Z" fill="white"/>
<defs>
<linearGradient id="paint0_linear_6386_26790" x1="12.3721" y1="6.50299" x2="15.2546" y2="16.401" gradientUnits="userSpaceOnUse">
<stop stop-color="#03B8FF"/>
<stop offset="1" stop-color="#FA52A0"/>
</linearGradient>
<linearGradient id="paint1_linear_6386_26790" x1="14.7465" y1="5.81167" x2="17.6291" y2="15.7098" gradientUnits="userSpaceOnUse">
<stop stop-color="#03B8FF"/>
<stop offset="1" stop-color="#FA52A0"/>
</linearGradient>
<linearGradient id="paint2_linear_6386_26790" x1="10.0062" y1="7.19206" x2="12.8888" y2="17.0902" gradientUnits="userSpaceOnUse">
<stop stop-color="#03B8FF"/>
<stop offset="1" stop-color="#FA52A0"/>
</linearGradient>
</defs>
</svg>
