<svg width="17" height="18" viewBox="0 0 17 18" fill="none" xmlns="http://www.w3.org/2000/svg">
<path fill-rule="evenodd" clip-rule="evenodd" d="M1.83317 9.00008C1.83317 5.31818 4.81794 2.33341 8.49984 2.33341C12.1817 2.33341 15.1665 5.31818 15.1665 9.00008C15.1665 12.682 12.1817 15.6667 8.49984 15.6667C4.81794 15.6667 1.83317 12.682 1.83317 9.00008ZM8.49984 0.666748C3.89746 0.666748 0.166504 4.39771 0.166504 9.00008C0.166504 13.6025 3.89746 17.3334 8.49984 17.3334C13.1022 17.3334 16.8332 13.6025 16.8332 9.00008C16.8332 4.39771 13.1022 0.666748 8.49984 0.666748ZM7.6665 5.66675C7.6665 5.20651 8.0396 4.83341 8.49984 4.83341C8.96007 4.83341 9.33317 5.20651 9.33317 5.66675V8.16675H11.8332C12.2934 8.16675 12.6665 8.53984 12.6665 9.00008C12.6665 9.46032 12.2934 9.83342 11.8332 9.83342H9.33317V12.3334C9.33317 12.7937 8.96007 13.1667 8.49984 13.1667C8.0396 13.1667 7.6665 12.7937 7.6665 12.3334V9.83342H5.1665C4.70627 9.83342 4.33317 9.46032 4.33317 9.00008C4.33317 8.53984 4.70627 8.16675 5.1665 8.16675H7.6665V5.66675Z" fill="#42B856"/>
</svg>
