<svg width="129" height="22" viewBox="0 0 129 22" fill="none" xmlns="http://www.w3.org/2000/svg">
<path fill-rule="evenodd" clip-rule="evenodd" d="M0.131283 2.13896C-0.25704 1.4246 0.26271 0.556641 1.07881 0.556641H6.99202C8.44921 0.556641 9.80885 1.28547 10.6107 2.49642L18.5655 14.5102L13.9865 21.5125C13.5639 22.1587 12.6146 22.1631 12.1861 21.5207C12.1513 21.4683 12.1836 21.5169 12.1861 21.5207C12.1861 21.5207 11.6506 20.7136 11.4041 20.3398C9.42747 17.3424 4.11609 9.20769 0.85729 3.4465C0.602366 2.99582 0.359472 2.55874 0.131283 2.13896ZM13.0767 16.6054C12.3481 15.4895 11.4677 14.1316 10.5196 12.6491C8.77605 9.92301 6.81944 6.8001 5.15875 3.9927H7.46724L14.4391 14.522L13.0767 16.6054Z" fill="#56FAA5"/>
<path d="M14.0172 7.51904L8.99439 0L5.10576 0.268537L9.69651 7.51904H14.0172Z" fill="url(#paint0_linear_830_118879)" fill-opacity="0.35"/>
<path d="M10.5287 8.81862L14.4559 14.4346L18.5657 14.4346L14.8567 8.81862L10.5287 8.81862Z" fill="url(#paint1_linear_830_118879)" fill-opacity="0.5"/>
<path fill-rule="evenodd" clip-rule="evenodd" d="M15.5299 2.49826C16.3289 1.28627 17.6847 0.556641 19.138 0.556641H25.0096C25.8227 0.556641 26.3408 1.42405 25.9542 2.13833C25.7276 2.55717 25.4863 2.99326 25.2331 3.44291C24.9118 4.01336 24.6184 4.53714 24.3425 5.02972C22.9112 7.58513 21.9502 9.30062 20.0118 12.3349L19.4799 13.1675C19.3116 13.4309 18.9275 13.4338 18.7552 13.1731L17.2032 10.8251C17.1094 10.6832 17.1078 10.4996 17.1992 10.3562L17.4222 10.0059C18.9126 7.66514 19.6175 6.40797 20.5943 4.66577C20.6006 4.65459 20.6069 4.64338 20.6132 4.63215C20.7744 4.3445 20.5662 3.98956 20.236 3.98956H18.8947C18.7494 3.98956 18.6138 4.06252 18.5339 4.18372L14.7433 9.93382L14.5024 10.3249C14.4238 10.4525 14.2845 10.5302 14.1345 10.5302H10.3935C10.2444 10.5302 10.1059 10.4535 10.027 10.3273L8.4209 7.75685C8.2414 7.4696 8.44826 7.09732 8.78737 7.09732H12.2653C12.4106 7.09732 12.5462 7.02436 12.6261 6.90316L15.5299 2.49826Z" fill="#FFCC4A"/>
<path fill-rule="evenodd" clip-rule="evenodd" d="M37.3902 11.6132V18.0558H40.1353C40.8823 18.0558 41.5452 17.9344 42.1241 17.6917C42.703 17.4489 43.1605 17.0847 43.4967 16.5992C43.8328 16.1137 44.0009 15.5068 44.0009 14.7785C44.0009 14.2556 43.8982 13.7981 43.6927 13.4059C43.506 12.9951 43.2352 12.659 42.8804 12.3975C42.5443 12.1174 42.1428 11.9213 41.6759 11.8093C41.2091 11.6786 40.6955 11.6132 40.1353 11.6132H37.3902ZM43.1981 10.1461C43.9665 10.3517 44.6542 10.654 45.2614 11.053C45.9336 11.4825 46.4565 12.0334 46.83 12.7057C47.2035 13.3779 47.3902 14.1809 47.3902 15.1146C47.3902 16.4031 47.0821 17.4676 46.4659 18.3079C45.8683 19.1482 45.0373 19.7738 43.9729 20.1846C42.9271 20.5768 41.7133 20.7729 40.3314 20.7729H34.0849V1.16504H39.9953C41.2278 1.16504 42.3109 1.34244 43.2446 1.69725C44.1969 2.05206 44.9346 2.59361 45.4574 3.3219C45.999 4.05019 46.2698 4.97456 46.2698 6.09501C46.2698 7.06607 45.999 7.89706 45.4574 8.58801C44.9346 9.26028 44.1969 9.77382 43.2446 10.1286L43.1981 10.1461ZM37.3902 9.03619H39.7712C40.3874 9.03619 40.929 8.93348 41.3958 8.72807C41.8627 8.52265 42.2268 8.2332 42.4883 7.85972C42.7497 7.46756 42.8804 7.00071 42.8804 6.45916C42.8804 5.6375 42.591 5.00257 42.0121 4.55439C41.4332 4.10622 40.6862 3.88213 39.7712 3.88213H37.3902V9.03619ZM87.9975 20.1846C86.9331 20.7635 85.6539 21.053 84.16 21.053C82.8528 21.053 81.695 20.7729 80.6866 20.2127C79.6968 19.6524 78.9312 18.8681 78.3897 17.8597C77.8481 16.8513 77.5773 15.6748 77.5773 14.3303C77.5773 12.9671 77.8481 11.7813 78.3897 10.7729C78.9499 9.76448 79.7342 8.9895 80.7426 8.44795C81.751 7.88773 82.9368 7.60762 84.3 7.60762C85.6632 7.60762 86.821 7.86905 87.7734 8.39193C88.7258 8.9148 89.4541 9.67111 89.9583 10.6608C90.4812 11.6319 90.7426 12.8084 90.7426 14.1902C90.7426 14.3396 90.7333 14.4984 90.7146 14.6664C90.7146 14.8345 90.7052 14.9559 90.6866 15.0306H80.6693C80.7286 15.6213 80.8557 16.1442 81.0507 16.5992C81.3308 17.2341 81.7417 17.7197 82.2832 18.0558C82.8434 18.3919 83.5157 18.56 84.3 18.56C85.1217 18.56 85.8406 18.3919 86.4569 18.0558C87.0731 17.7197 87.5867 17.2061 87.9975 16.5152L90.6025 17.5796C89.9303 18.7374 89.0619 19.6057 87.9975 20.1846ZM80.7513 12.9578C80.8262 12.5545 80.9353 12.1903 81.0787 11.8653C81.3588 11.2304 81.7697 10.7449 82.3112 10.4087C82.8528 10.0726 83.5064 9.90453 84.272 9.90453C84.9069 9.90453 85.4578 10.0446 85.9247 10.3247C86.4102 10.6048 86.7837 10.997 87.0451 11.5012C87.2788 11.9217 87.415 12.4073 87.4537 12.9578H80.7513ZM104.586 16.5432L102.821 18.3079C103.195 18.7934 103.652 19.2603 104.194 19.7085C104.754 20.138 105.398 20.4928 106.126 20.7729C106.873 21.0343 107.686 21.165 108.563 21.165C109.983 21.165 111.103 20.8009 111.925 20.0726C112.765 19.3256 113.185 18.3452 113.185 17.1314C113.185 16.3471 112.999 15.7122 112.625 15.2267C112.27 14.7411 111.794 14.3303 111.196 13.9942C110.599 13.658 109.945 13.3499 109.236 13.0698C108.713 12.8644 108.237 12.6683 107.807 12.4816C107.396 12.2948 107.06 12.0894 106.799 11.8653C106.556 11.6226 106.435 11.3518 106.435 11.053C106.435 10.6982 106.575 10.4274 106.855 10.2407C107.135 10.0539 107.49 9.96056 107.919 9.96056C108.554 9.96056 109.17 10.1193 109.768 10.4367C110.365 10.7542 110.879 11.165 111.309 11.6692L112.989 9.87652C112.634 9.44702 112.205 9.0642 111.701 8.72807C111.196 8.39193 110.627 8.12116 109.992 7.91574C109.376 7.71032 108.713 7.60762 108.003 7.60762C107.219 7.60762 106.481 7.73834 105.79 7.99977C105.118 8.24254 104.576 8.62536 104.166 9.14823C103.773 9.67111 103.577 10.3247 103.577 11.109C103.577 11.8747 103.755 12.5096 104.11 13.0138C104.483 13.518 104.95 13.9288 105.51 14.2463C106.089 14.5451 106.668 14.8065 107.247 15.0306C107.826 15.236 108.33 15.4414 108.759 15.6468C109.189 15.8336 109.525 16.067 109.768 16.3471C110.011 16.6085 110.132 16.926 110.132 17.2995C110.132 17.729 109.973 18.0651 109.656 18.3079C109.357 18.5507 108.937 18.672 108.395 18.672C107.966 18.672 107.536 18.5973 107.107 18.448C106.677 18.2799 106.248 18.0371 105.818 17.7197C105.407 17.3835 104.997 16.9914 104.586 16.5432ZM125.309 20.1846C124.245 20.7635 122.966 21.053 121.472 21.053C120.165 21.053 119.007 20.7729 117.998 20.2127C117.009 19.6524 116.243 18.8681 115.701 17.8597C115.16 16.8513 114.889 15.6748 114.889 14.3303C114.889 12.9671 115.16 11.7813 115.701 10.7729C116.262 9.76448 117.046 8.9895 118.054 8.44795C119.063 7.88773 120.249 7.60762 121.612 7.60762C122.975 7.60762 124.133 7.86905 125.085 8.39193C126.038 8.9148 126.766 9.67111 127.27 10.6608C127.793 11.6319 128.054 12.8084 128.054 14.1902C128.054 14.3396 128.045 14.4984 128.026 14.6664C128.026 14.8345 128.017 14.9559 127.998 15.0306H117.981C118.04 15.6213 118.168 16.1442 118.363 16.5992C118.643 17.2341 119.053 17.7197 119.595 18.0558C120.155 18.3919 120.828 18.56 121.612 18.56C122.433 18.56 123.152 18.3919 123.769 18.0558C124.385 17.7197 124.898 17.2061 125.309 16.5152L127.914 17.5796C127.242 18.7374 126.374 19.6057 125.309 20.1846ZM118.063 12.9578C118.138 12.5545 118.247 12.1903 118.391 11.8653C118.671 11.2304 119.081 10.7449 119.623 10.4087C120.165 10.0726 120.818 9.90453 121.584 9.90453C122.219 9.90453 122.77 10.0446 123.236 10.3247C123.722 10.6048 124.095 10.997 124.357 11.5012C124.591 11.9217 124.727 12.4073 124.766 12.9578H118.063ZM64.3933 8.19636L70.3693 20.8013H71.7535L77.7546 8.19636H74.4213L71.0599 15.6193L67.6986 8.19636H64.3933Z" fill="#56FAA5"/>
<path d="M96.5498 7.88851H93.1884V20.7737H96.5498V7.88851ZM100.611 11.2779L102.068 8.72885C101.788 8.37404 101.296 7.96321 100.885 7.83249C100.474 7.6831 100.035 7.6084 99.5684 7.6084C98.9148 7.6084 98.2799 7.84183 97.6637 8.30868C97.0661 8.77553 96.5712 9.41045 96.1791 10.2134C95.8056 10.9978 95.5414 11.9035 95.5414 12.9306L96.5498 13.5188C96.5498 12.9025 96.6926 12.3703 96.8233 11.9221C96.9727 11.4553 97.2062 11.0911 97.5236 10.8297C97.8411 10.5683 98.2519 10.4375 98.7561 10.4375C99.1296 10.4375 99.4377 10.4936 99.6805 10.6056C99.9232 10.7176 100.331 11.0538 100.611 11.2779Z" fill="#56FAA5"/>
<path d="M56.4941 7.91539V10.5765H63.777V7.91539H56.4941ZM58.4549 3.43359V20.8005H61.8162V3.43359H58.4549Z" fill="#56FAA5"/>
<path d="M50.6123 7.91602V20.8012H53.9736V7.91602H50.6123Z" fill="#56FAA5"/>
<circle cx="52.293" cy="3.43442" r="1.96078" fill="#FFC701"/>
<defs>
<linearGradient id="paint0_linear_830_118879" x1="12.0189" y1="8.00241" x2="9.18124" y2="2.67216" gradientUnits="userSpaceOnUse">
<stop offset="0.124993" stop-color="#171727"/>
<stop offset="1" stop-color="#171727" stop-opacity="0"/>
</linearGradient>
<linearGradient id="paint1_linear_830_118879" x1="12.5345" y1="8.33513" x2="15.3721" y2="13.6654" gradientUnits="userSpaceOnUse">
<stop offset="0.124993" stop-color="#171727"/>
<stop offset="1" stop-color="#171727" stop-opacity="0"/>
</linearGradient>
</defs>
</svg>
