<svg width="17" height="16" viewBox="0 0 17 16" fill="#E05651" xmlns="http://www.w3.org/2000/svg">
<path d="M10.9729 5.52672C10.9109 5.46423 10.8372 5.41464 10.7559 5.38079C10.6747 5.34695 10.5876 5.32952 10.4996 5.32952C10.4116 5.32952 10.3244 5.34695 10.2432 5.38079C10.1619 5.41464 10.0882 5.46423 10.0262 5.52672L8.49956 7.06005L6.9729 5.52672C6.84736 5.40118 6.6771 5.33066 6.49956 5.33066C6.32203 5.33066 6.15177 5.40118 6.02623 5.52672C5.9007 5.65226 5.83017 5.82252 5.83017 6.00005C5.83017 6.17759 5.9007 6.34785 6.02623 6.47339L7.55956 8.00005L6.02623 9.52672C5.96375 9.58869 5.91415 9.66243 5.8803 9.74367C5.84646 9.82491 5.82903 9.91205 5.82903 10.0001C5.82903 10.0881 5.84646 10.1752 5.8803 10.2564C5.91415 10.3377 5.96375 10.4114 6.02623 10.4734C6.08821 10.5359 6.16194 10.5855 6.24318 10.6193C6.32442 10.6532 6.41156 10.6706 6.49956 10.6706C6.58757 10.6706 6.67471 10.6532 6.75595 10.6193C6.83719 10.5855 6.91092 10.5359 6.9729 10.4734L8.49956 8.94005L10.0262 10.4734C10.0882 10.5359 10.1619 10.5855 10.2432 10.6193C10.3244 10.6532 10.4116 10.6706 10.4996 10.6706C10.5876 10.6706 10.6747 10.6532 10.7559 10.6193C10.8372 10.5855 10.9109 10.5359 10.9729 10.4734C11.0354 10.4114 11.085 10.3377 11.1188 10.2564C11.1527 10.1752 11.1701 10.0881 11.1701 10.0001C11.1701 9.91205 11.1527 9.82491 11.1188 9.74367C11.085 9.66243 11.0354 9.58869 10.9729 9.52672L9.43956 8.00005L10.9729 6.47339C11.0354 6.41141 11.085 6.33768 11.1188 6.25644C11.1527 6.1752 11.1701 6.08806 11.1701 6.00005C11.1701 5.91205 11.1527 5.82491 11.1188 5.74367C11.085 5.66243 11.0354 5.5887 10.9729 5.52672ZM13.2129 3.28672C12.5979 2.64998 11.8623 2.1421 11.0489 1.79271C10.2356 1.44332 9.36077 1.25941 8.47557 1.25172C7.59038 1.24402 6.71251 1.4127 5.8932 1.74791C5.0739 2.08311 4.32955 2.57814 3.7036 3.20409C3.07765 3.83004 2.58263 4.57438 2.24742 5.39369C1.91221 6.213 1.74354 7.09087 1.75123 7.97606C1.75892 8.86126 1.94283 9.73606 2.29222 10.5494C2.64162 11.3628 3.1495 12.0984 3.78623 12.7134C4.40121 13.3501 5.13684 13.858 5.9502 14.2074C6.76356 14.5568 7.63836 14.7407 8.52356 14.7484C9.40875 14.7561 10.2866 14.5874 11.1059 14.2522C11.9252 13.917 12.6696 13.422 13.2955 12.796C13.9215 12.1701 14.4165 11.4257 14.7517 10.6064C15.0869 9.7871 15.2556 8.90924 15.2479 8.02404C15.2402 7.13885 15.0563 6.26405 14.7069 5.45069C14.3575 4.63733 13.8496 3.9017 13.2129 3.28672ZM12.2729 11.7734C11.4009 12.6463 10.2533 13.1899 9.02543 13.3116C7.7976 13.4332 6.56557 13.1254 5.53925 12.4406C4.51292 11.7557 3.7558 10.7362 3.39688 9.55571C3.03796 8.37523 3.09943 7.10681 3.57084 5.96658C4.04225 4.82634 4.89441 3.88482 5.98216 3.30243C7.0699 2.72004 8.32593 2.53281 9.53624 2.77263C10.7465 3.01246 11.8363 3.66451 12.6197 4.61769C13.4032 5.57087 13.8319 6.76621 13.8329 8.00005C13.8353 8.70091 13.6986 9.39528 13.4309 10.043C13.1631 10.6907 12.7695 11.2788 12.2729 11.7734Z"/>
</svg>
