<svg width="21" height="20" viewBox="0 0 21 20" fill="none" xmlns="http://www.w3.org/2000/svg">
<path fill-rule="evenodd" clip-rule="evenodd" d="M5.31481 2.5C4.70089 2.5 4.11211 2.74388 3.67799 3.17799C3.24388 3.61211 3 4.20089 3 4.81481V15.1852C3 15.7991 3.24388 16.3879 3.67799 16.822C4.11211 17.2561 4.70089 17.5 5.31481 17.5H15.6852C16.2991 17.5 16.8879 17.2561 17.322 16.822C17.7561 16.3879 18 15.7991 18 15.1852V10C18 9.53976 17.6269 9.16667 17.1667 9.16667C16.7064 9.16667 16.3333 9.53976 16.3333 10V15.1852C16.3333 15.3571 16.265 15.5219 16.1435 15.6435C16.0219 15.765 15.8571 15.8333 15.6852 15.8333H5.31481C5.14292 15.8333 4.97806 15.765 4.8565 15.6435C4.73495 15.5219 4.66667 15.3571 4.66667 15.1852V4.81481C4.66667 4.64292 4.73495 4.47806 4.8565 4.3565C4.97806 4.23495 5.14292 4.16667 5.31481 4.16667H10.5C10.9602 4.16667 11.3333 3.79357 11.3333 3.33333C11.3333 2.8731 10.9602 2.5 10.5 2.5H5.31481ZM15.1915 4.36258C15.3169 4.23714 15.4871 4.16667 15.6645 4.16667C15.8419 4.16667 16.012 4.23714 16.1374 4.36258C16.2629 4.48802 16.3333 4.65815 16.3333 4.83554C16.3333 5.01294 16.2629 5.18307 16.1374 5.30851L9.57324 11.8727L8.31199 12.188L8.6273 10.9268L15.1915 4.36258ZM15.6645 2.5C15.045 2.5 14.451 2.74607 14.013 3.18407L7.28558 9.91148C7.17878 10.0183 7.10301 10.1521 7.06638 10.2986L6.35823 13.1312C6.28724 13.4152 6.37045 13.7156 6.57743 13.9226C6.78441 14.1296 7.08482 14.2128 7.3688 14.1418L10.2014 13.4336C10.3479 13.397 10.4817 13.3212 10.5885 13.2144L17.316 6.48702C17.754 6.04902 18 5.45497 18 4.83554C18 4.21612 17.754 3.62206 17.316 3.18407C16.878 2.74607 16.2839 2.5 15.6645 2.5Z" fill="white"/>
</svg>
