<svg width="15" height="16" viewBox="0 0 15 16" fill="none" xmlns="http://www.w3.org/2000/svg">
<path fill-rule="evenodd" clip-rule="evenodd" d="M2.31481 0.5C1.70089 0.5 1.11211 0.743881 0.677993 1.17799C0.243881 1.61211 0 2.20089 0 2.81481V13.1852C0 13.7991 0.243882 14.3879 0.677993 14.822C1.11211 15.2561 1.70089 15.5 2.31481 15.5H12.6852C13.2991 15.5 13.8879 15.2561 14.322 14.822C14.7561 14.3879 15 13.7991 15 13.1852V8C15 7.53976 14.6269 7.16667 14.1667 7.16667C13.7064 7.16667 13.3333 7.53976 13.3333 8V13.1852C13.3333 13.3571 13.265 13.5219 13.1435 13.6435C13.0219 13.765 12.8571 13.8333 12.6852 13.8333H2.31481C2.14292 13.8333 1.97806 13.765 1.8565 13.6435C1.73495 13.5219 1.66667 13.3571 1.66667 13.1852V2.81481C1.66667 2.64292 1.73495 2.47806 1.8565 2.3565C1.97806 2.23495 2.14292 2.16667 2.31481 2.16667H7.5C7.96024 2.16667 8.33333 1.79357 8.33333 1.33333C8.33333 0.873096 7.96024 0.5 7.5 0.5H2.31481ZM12.1915 2.36258C12.3169 2.23714 12.4871 2.16667 12.6645 2.16667C12.8419 2.16667 13.012 2.23714 13.1374 2.36258C13.2629 2.48802 13.3334 2.65815 13.3334 2.83554C13.3334 3.01294 13.2629 3.18307 13.1374 3.30851L6.57324 9.87271L5.31199 10.188L5.6273 8.92678L12.1915 2.36258ZM12.6645 0.5C12.045 0.5 11.451 0.746066 11.013 1.18407L4.28558 7.91148C4.17878 8.01828 4.10301 8.1521 4.06638 8.29862L3.35823 11.1312C3.28724 11.4152 3.37044 11.7156 3.57743 11.9226C3.78441 12.1296 4.08482 12.2128 4.3688 12.1418L7.20139 11.4336C7.34792 11.397 7.48174 11.3212 7.58854 11.2144L14.316 4.48702C14.754 4.04902 15 3.45497 15 2.83554C15 2.21612 14.754 1.62206 14.316 1.18407C13.878 0.746066 13.2839 0.5 12.6645 0.5Z" fill="#364361"/>
</svg>
