<svg width="17" height="18" viewBox="0 0 17 18" fill="none" xmlns="http://www.w3.org/2000/svg">
<path fill-rule="evenodd" clip-rule="evenodd" d="M8.49984 8C8.49984 4.77834 11.1115 2.16667 14.3332 2.16667H15.9998C16.4601 2.16667 16.8332 1.79357 16.8332 1.33333C16.8332 0.873096 16.4601 0.5 15.9998 0.5H14.3332C10.191 0.5 6.83317 3.85786 6.83317 8V10.1548L4.92243 8.24408C4.59699 7.91864 4.06935 7.91864 3.74391 8.24408C3.41848 8.56952 3.41848 9.09715 3.74391 9.42259L6.48799 12.1667C7.13887 12.8175 8.19414 12.8175 8.84502 12.1667L11.5891 9.42259C11.9145 9.09715 11.9145 8.56952 11.5891 8.24408C11.2637 7.91864 10.736 7.91864 10.4106 8.24408L8.49984 10.1548V8ZM5.56417 3.48038C5.7592 3.89725 5.57938 4.3933 5.16251 4.58834C3.18726 5.5125 1.83317 7.48904 1.83317 9.7676C1.83317 12.9217 4.43284 15.5002 7.6665 15.5002C10.9002 15.5002 13.4998 12.9217 13.4998 9.7676C13.4998 8.20947 12.8682 6.79595 11.8377 5.76017C11.5131 5.43391 11.5144 4.90627 11.8406 4.58166C12.1669 4.25705 12.6945 4.25838 13.0192 4.58464C14.3451 5.91735 15.1665 7.74766 15.1665 9.7676C15.1665 13.866 11.7966 17.1669 7.6665 17.1669C3.53638 17.1669 0.166504 13.866 0.166504 9.7676C0.166504 6.80769 1.9268 4.26216 4.45621 3.07873C4.87308 2.88369 5.36913 3.06351 5.56417 3.48038Z" fill="#56FAA5"/>
</svg>
