<svg width="6" height="10" viewBox="0 0 6 10" fill="none" xmlns="http://www.w3.org/2000/svg">
<path fill-rule="evenodd" clip-rule="evenodd" d="M3 9C3.82843 9 4.5 8.32843 4.5 7.5C4.5 6.67157 3.82843 6 3 6C2.17157 6 1.5 6.67157 1.5 7.5C1.5 8.32843 2.17157 9 3 9ZM3 10C4.38071 10 5.5 8.88071 5.5 7.5C5.5 6.11929 4.38071 5 3 5C1.61929 5 0.5 6.11929 0.5 7.5C0.5 8.88071 1.61929 10 3 10Z" fill="#56FAA5"/>
<rect x="2.5" width="1" height="6" rx="0.5" fill="#56FAA5"/>
<rect x="5.5" y="1" width="1" height="3" rx="0.5" transform="rotate(90 5.5 1)" fill="#56FAA5"/>
<rect x="5.5" y="3" width="1" height="3" rx="0.5" transform="rotate(90 5.5 3)" fill="#56FAA5"/>
</svg>
