<svg width="15" height="18" viewBox="0 0 15 18" fill="none" xmlns="http://www.w3.org/2000/svg">
<path d="M7.49967 9.83342C7.24596 9.83045 6.99744 9.90528 6.78754 10.0478C6.57765 10.1904 6.41646 10.3938 6.32569 10.6308C6.23491 10.8677 6.21889 11.1267 6.2798 11.373C6.3407 11.6194 6.4756 11.8411 6.66634 12.0084V13.1667C6.66634 13.3878 6.75414 13.5997 6.91042 13.756C7.0667 13.9123 7.27866 14.0001 7.49967 14.0001C7.72069 14.0001 7.93265 13.9123 8.08893 13.756C8.24521 13.5997 8.33301 13.3878 8.33301 13.1667V12.0084C8.52375 11.8411 8.65865 11.6194 8.71955 11.373C8.78046 11.1267 8.76444 10.8677 8.67366 10.6308C8.58288 10.3938 8.4217 10.1904 8.21181 10.0478C8.00191 9.90528 7.75338 9.83045 7.49967 9.83342ZM11.6663 6.50008V4.83342C11.6663 3.72835 11.2274 2.66854 10.446 1.88714C9.66455 1.10573 8.60474 0.666748 7.49967 0.666748C6.39461 0.666748 5.3348 1.10573 4.5534 1.88714C3.77199 2.66854 3.33301 3.72835 3.33301 4.83342V6.50008C2.66997 6.50008 2.03408 6.76347 1.56524 7.23231C1.0964 7.70116 0.833008 8.33704 0.833008 9.00008V14.8334C0.833008 15.4965 1.0964 16.1323 1.56524 16.6012C2.03408 17.07 2.66997 17.3334 3.33301 17.3334H11.6663C12.3294 17.3334 12.9653 17.07 13.4341 16.6012C13.9029 16.1323 14.1663 15.4965 14.1663 14.8334V9.00008C14.1663 8.33704 13.9029 7.70116 13.4341 7.23231C12.9653 6.76347 12.3294 6.50008 11.6663 6.50008ZM4.99967 4.83342C4.99967 4.17037 5.26307 3.53449 5.73191 3.06565C6.20075 2.59681 6.83663 2.33341 7.49967 2.33341C8.16271 2.33341 8.7986 2.59681 9.26744 3.06565C9.73628 3.53449 9.99967 4.17037 9.99967 4.83342V6.50008H4.99967V4.83342ZM12.4997 14.8334C12.4997 15.0544 12.4119 15.2664 12.2556 15.4227C12.0993 15.579 11.8874 15.6667 11.6663 15.6667H3.33301C3.11199 15.6667 2.90003 15.579 2.74375 15.4227C2.58747 15.2664 2.49967 15.0544 2.49967 14.8334V9.00008C2.49967 8.77907 2.58747 8.56711 2.74375 8.41083C2.90003 8.25455 3.11199 8.16675 3.33301 8.16675H11.6663C11.8874 8.16675 12.0993 8.25455 12.2556 8.41083C12.4119 8.56711 12.4997 8.77907 12.4997 9.00008V14.8334Z" fill="#364361"/>
</svg>
