<svg width="720" height="720" viewBox="0 0 720 720" fill="none" xmlns="http://www.w3.org/2000/svg">
<circle cx="360" cy="360" r="340" fill="#171727"/>
<path fill-rule="evenodd" clip-rule="evenodd" d="M125.387 237.896C118.327 224.908 127.777 209.127 142.615 209.127H250.127C276.621 209.127 301.341 222.378 315.92 244.395L460.553 462.827L377.299 590.139C369.615 601.889 352.355 601.968 344.564 590.289C343.93 589.337 344.518 590.219 344.564 590.289C344.564 590.289 334.827 575.614 330.345 568.818C294.407 514.321 197.837 366.417 138.587 261.669C133.952 253.475 129.536 245.528 125.387 237.896ZM360.757 500.92C347.51 480.632 331.502 455.943 314.263 428.989C282.563 379.423 246.989 322.643 216.795 271.6H258.767L385.528 463.04L360.757 500.92Z" fill="#56FAA5"/>
<path d="M377.853 335.709L286.53 199L215.828 203.882L299.296 335.709H377.853Z" fill="url(#paint0_linear_4621_48146)" fill-opacity="0.35"/>
<path d="M314.435 359.337L385.837 461.445L460.561 461.445L393.125 359.338L314.435 359.337Z" fill="url(#paint1_linear_4621_48146)" fill-opacity="0.5"/>
<path fill-rule="evenodd" clip-rule="evenodd" d="M405.361 244.429C419.888 222.393 444.539 209.127 470.962 209.127H577.717C592.502 209.127 601.921 224.898 594.893 237.885C590.771 245.5 586.385 253.429 581.781 261.604C575.94 271.976 570.606 281.499 565.589 290.455C539.564 336.916 522.093 368.107 486.849 423.274L477.178 438.414C474.119 443.202 467.135 443.256 464.002 438.516L435.784 395.825C434.079 393.245 434.051 389.907 435.711 387.299L439.766 380.93C466.865 338.371 479.68 315.514 497.44 283.838C497.554 283.634 497.669 283.431 497.783 283.226C500.715 277.996 496.929 271.543 490.926 271.543H466.539C463.896 271.543 461.431 272.87 459.978 275.073L391.06 379.62L386.679 386.73C385.25 389.05 382.718 390.464 379.99 390.464H311.972C309.262 390.464 306.744 389.069 305.309 386.773L276.107 340.039C272.844 334.816 276.605 328.047 282.77 328.047H346.005C348.648 328.047 351.113 326.721 352.565 324.517L405.361 244.429Z" fill="#FFCC4A"/>
<defs>
<linearGradient id="paint0_linear_4621_48146" x1="341.52" y1="344.497" x2="289.927" y2="247.584" gradientUnits="userSpaceOnUse">
<stop offset="0.124993" stop-color="#171727"/>
<stop offset="1" stop-color="#171727" stop-opacity="0"/>
</linearGradient>
<linearGradient id="paint1_linear_4621_48146" x1="350.903" y1="350.547" x2="402.496" y2="447.46" gradientUnits="userSpaceOnUse">
<stop offset="0.124993" stop-color="#171727"/>
<stop offset="1" stop-color="#171727" stop-opacity="0"/>
</linearGradient>
</defs>
</svg>
