<svg width="24" height="21" viewBox="0 0 24 21" fill="none" xmlns="http://www.w3.org/2000/svg">
<path fill-rule="evenodd" clip-rule="evenodd" d="M0.12079 1.9683C-0.236496 1.31104 0.241713 0.512451 0.992586 0.512451H6.43317C7.77389 0.512451 9.02486 1.18303 9.76259 2.29719L17.0816 13.3508L12.8686 19.7934C12.4798 20.3879 11.6064 20.3919 11.2121 19.8009C11.1801 19.7527 11.2098 19.7974 11.2121 19.8009C11.2121 19.8009 10.7194 19.0583 10.4926 18.7144C8.67396 15.9566 3.7871 8.47205 0.78877 3.17133C0.55422 2.75667 0.330741 2.35453 0.12079 1.9683ZM12.0315 15.2785C11.3612 14.2518 10.5511 13.0024 9.67876 11.6384C8.0746 9.13019 6.27438 6.25689 4.74642 3.67388H6.87041L13.2851 13.3616L12.0315 15.2785Z" fill="#56FAA5"/>
<path d="M12.8969 6.91807L8.27552 0L4.69769 0.247074L8.92152 6.91807H12.8969Z" fill="url(#paint0_linear_837_125837)" fill-opacity="0.35"/>
<path d="M9.68722 8.11368L13.3005 13.2808L17.0818 13.2808L13.6693 8.11368L9.68722 8.11368Z" fill="url(#paint1_linear_837_125837)" fill-opacity="0.5"/>
<path fill-rule="evenodd" clip-rule="evenodd" d="M14.2886 2.29889C15.0238 1.18376 16.2712 0.512451 17.6083 0.512451H23.0106C23.7588 0.512451 24.2354 1.31053 23.8798 1.96772C23.6712 2.35308 23.4492 2.75432 23.2163 3.16803C22.9207 3.69288 22.6507 4.1748 22.3969 4.62801C21.0799 6.97917 20.1958 8.55755 18.4123 11.3493L17.9229 12.1154C17.7681 12.3577 17.4147 12.3604 17.2561 12.1205L15.8282 9.96018C15.7419 9.82966 15.7405 9.66073 15.8245 9.52876L16.0297 9.20646C17.401 7.05279 18.0495 5.8961 18.9483 4.29315C18.954 4.28286 18.9598 4.27255 18.9656 4.26222C19.114 3.99756 18.9224 3.67099 18.6186 3.67099H17.3845C17.2508 3.67099 17.126 3.73812 17.0525 3.84963L13.5649 9.14014L13.3433 9.49998C13.2709 9.61737 13.1428 9.68889 13.0047 9.68889H9.56276C9.42562 9.68889 9.29817 9.6183 9.22558 9.50213L7.74782 7.13717C7.58268 6.87288 7.773 6.53036 8.08501 6.53036H11.285C11.4187 6.53036 11.5434 6.46323 11.6169 6.35171L14.2886 2.29889Z" fill="#FFCC4A"/>
<defs>
<linearGradient id="paint0_linear_837_125837" x1="11.0583" y1="7.3628" x2="8.44744" y2="2.45858" gradientUnits="userSpaceOnUse">
<stop offset="0.124993" stop-color="#171727"/>
<stop offset="1" stop-color="#171727" stop-opacity="0"/>
</linearGradient>
<linearGradient id="paint1_linear_837_125837" x1="11.5326" y1="7.66883" x2="14.1435" y2="12.573" gradientUnits="userSpaceOnUse">
<stop offset="0.124993" stop-color="#171727"/>
<stop offset="1" stop-color="#171727" stop-opacity="0"/>
</linearGradient>
</defs>
</svg>
