<svg width="1008" height="1008" viewBox="0 0 1008 1008" fill="none" xmlns="http://www.w3.org/2000/svg">
<path fill-rule="evenodd" clip-rule="evenodd" d="M823.477 424.087C790.282 404.922 733.549 437.027 679.621 499.653C701.417 482.7 721.662 476.156 735.293 484.026C762.841 499.931 752.941 568.658 713.176 637.533C673.411 706.408 618.841 749.346 591.293 733.441C577.662 725.571 573.207 704.766 576.991 677.413C549.719 755.43 550.282 820.614 583.477 839.779C629.393 866.289 720.34 794.725 786.615 679.933C852.89 565.142 869.393 450.597 823.477 424.087Z" fill="url(#paint0_linear_791_8398)"/>
<path fill-rule="evenodd" clip-rule="evenodd" d="M321.937 688.779C276.02 662.269 292.524 547.725 358.799 432.933C425.074 318.141 516.02 246.577 561.937 273.087C584.757 286.262 592.154 321.19 585.686 367.073C617.292 262.969 612.386 177.506 565.708 150.556C496.833 110.791 363.1 213.483 267 379.933C170.9 546.383 148.833 713.545 217.708 753.31C264.386 780.26 340.852 741.777 415.206 662.353C378.704 690.896 344.757 701.954 321.937 688.779Z" fill="url(#paint1_linear_791_8398)"/>
<path d="M648.731 558.757L524.023 486.757C478.107 460.247 462.375 401.535 488.885 355.618L613.592 427.618C659.509 454.128 675.241 512.84 648.731 558.757Z" fill="#00C6D2"/>
<path d="M481.592 656.249L356.885 584.249C383.395 538.332 442.107 522.6 488.023 549.11L612.731 621.11C586.221 667.027 527.509 682.759 481.592 656.249Z" fill="#00C6D2"/>
<defs>
<linearGradient id="paint0_linear_791_8398" x1="582.5" y1="842.056" x2="806.355" y2="437.976" gradientUnits="userSpaceOnUse">
<stop stop-color="#009EFD"/>
<stop offset="1" stop-color="#12EFCF"/>
</linearGradient>
<linearGradient id="paint1_linear_791_8398" x1="611" y1="161.556" x2="261.5" y2="782.056" gradientUnits="userSpaceOnUse">
<stop stop-color="#009EFD"/>
<stop offset="1" stop-color="#12EFCF"/>
</linearGradient>
</defs>
</svg>
