<svg width="91" height="84" viewBox="0 0 91 84" fill="none" xmlns="http://www.w3.org/2000/svg">
<g clip-path="url(#clip0_18641_256865)">
<path d="M89.054 60.4881L73.763 51.6182L42.917 64.7045C40.6124 65.6822 37.988 65.5177 35.8213 64.2626L16.255 52.9179C16.0379 52.9884 15.8231 53.0636 15.613 53.1529L1.15309 59.3059C-0.282861 59.917 -0.404274 61.9194 0.945282 62.7021L35.8236 82.9262C37.9904 84.1812 40.6148 84.3457 42.9193 83.368L88.8462 63.8819C90.2822 63.2732 90.4059 61.2707 89.054 60.4881Z" fill="#364361"/>
<path opacity="0.4" d="M0.945074 41.5552L35.8234 61.7793C37.9902 63.0344 40.6146 63.1989 42.9191 62.2212L88.846 42.7351C90.2843 42.124 90.4081 40.1216 89.0562 39.3389L62.1257 23.719C59.9613 22.464 57.3369 22.2995 55.0347 23.2725L32.3538 32.8733C30.9365 33.4727 29.3722 33.6184 27.8708 33.287L20.1097 31.583C18.6037 31.2516 17.0323 31.3997 15.6127 32.0037L1.15288 38.1591C-0.285404 38.7702 -0.406817 40.7726 0.945074 41.5552Z" fill="#5E6C8A"/>
<path opacity="0.8" d="M40.9181 10.6155L60.0617 2.45067C61.6915 1.75499 63.5524 1.87015 65.0864 2.75856L73.8211 7.82339C75.7824 8.96093 75.605 11.8635 73.5223 12.7519L54.3786 20.9168C52.7489 21.6125 50.888 21.4973 49.354 20.6089L40.6192 15.544C38.6579 14.4089 38.8331 11.5039 40.9181 10.6155Z" stroke="#92C6FF" stroke-miterlimit="10" stroke-linecap="round"/>
<path opacity="0.8" d="M61.1992 6.50488L53.9004 15.49" stroke="#92C6FF" stroke-miterlimit="10" stroke-linecap="round"/>
<path d="M89.9953 41.1134C89.951 41.7856 89.5611 42.4343 88.8442 42.7375L42.9173 62.2236C40.6128 63.2013 37.9884 63.0368 35.8216 61.7817L0.945624 41.5553C0.27318 41.1651 -0.0350231 40.4718 0.00466975 39.7996C0.00466975 39.7973 0.00233487 39.7973 0 39.7949C0 41.0359 0.00933949 43.0007 0.00466975 43.3673C-0.00700462 44.0113 0.301199 44.6623 0.945624 45.036L35.824 65.2601C37.9907 66.5152 40.6151 66.6797 42.9196 65.702L88.8466 46.2159C89.6031 45.8962 89.993 45.1912 89.9977 44.479C89.9977 44.1053 89.9953 41.9666 89.9953 41.1134Z" fill="url(#paint0_linear_18641_256865)"/>
<path opacity="0.8" d="M4.45208 49.6102L19.2879 43.2833C20.2078 42.8908 21.2538 42.9566 22.1201 43.4572L29.9839 48.0167C31.3591 48.8135 31.2354 50.8488 29.7738 51.4716L14.938 57.7986C14.0181 58.1911 12.972 58.1253 12.1058 57.6246L4.24194 53.0651C2.86904 52.2684 2.99279 50.233 4.45208 49.6102Z" stroke="#92C6FF" stroke-miterlimit="10" stroke-linecap="round"/>
</g>
<defs>
<linearGradient id="paint0_linear_18641_256865" x1="2.02926e-05" y1="53.0649" x2="89.9969" y2="53.0649" gradientUnits="userSpaceOnUse">
<stop stop-color="#36455A"/>
<stop offset="1" stop-color="#23355F"/>
</linearGradient>
<clipPath id="clip0_18641_256865">
<rect width="90.0021" height="84" fill="white" transform="translate(-0.000976562)"/>
</clipPath>
</defs>
</svg>
