<svg width="90" height="84" viewBox="0 0 90 84" fill="none" xmlns="http://www.w3.org/2000/svg">
<path d="M89.054 60.8318L73.763 52.0918L42.917 64.9864C40.6124 65.9498 37.988 65.7877 35.8213 64.5511L16.255 53.3725C16.0379 53.4419 15.8231 53.516 15.613 53.604L1.15309 59.6669C-0.282861 60.2691 -0.404274 62.2422 0.945282 63.0133L35.8236 82.9412C37.9904 84.1779 40.6148 84.34 42.9193 83.3766L88.8462 64.1759C90.2822 63.5761 90.4059 61.603 89.054 60.8318Z" fill="#F8FBFE"/>
<path opacity="0.4" d="M0.945074 41.1913L35.8234 61.1192C37.9902 62.3559 40.6146 62.518 42.9191 61.5546L88.846 42.3539C90.2843 41.7518 90.4081 39.7787 89.0562 39.0075L62.1257 23.6164C59.9613 22.3797 57.3369 22.2176 55.0347 23.1764L32.3538 32.6366C30.9365 33.2271 29.3722 33.3707 27.8708 33.0442L20.1097 31.3652C18.6037 31.0387 17.0323 31.1846 15.6127 31.7797L1.15288 37.8449C-0.285404 38.4471 -0.406817 40.4202 0.945074 41.1913Z" fill="#BCDDFE"/>
<path opacity="0.8" d="M40.9181 9.71882L60.0617 1.67356C61.6915 0.988069 63.5524 1.10155 65.0864 1.97694L73.8211 6.96759C75.7824 8.08846 75.605 10.9485 73.5223 11.8239L54.3786 19.8692C52.7489 20.5547 50.888 20.4412 49.354 19.5658L40.6192 14.5752C38.6579 13.4566 38.8331 10.5942 40.9181 9.71882Z" stroke="#92C6FF" stroke-miterlimit="10" stroke-linecap="round"/>
<path opacity="0.8" d="M61.1992 5.66846L53.9004 14.5219" stroke="#92C6FF" stroke-miterlimit="10" stroke-linecap="round"/>
<path d="M89.9953 40.7557C89.951 41.4181 89.5611 42.0572 88.8442 42.356L42.9173 61.5567C40.6128 62.5201 37.9884 62.358 35.8216 61.1213L0.945624 41.1911C0.27318 40.8067 -0.0350231 40.1235 0.00466975 39.4612C0.00466975 39.4589 0.00233487 39.4589 0 39.4565C0 40.6793 0.00933949 42.6154 0.00466975 42.9766C-0.00700462 43.6112 0.301199 44.2527 0.945624 44.6209L35.824 64.5488C37.9907 65.7854 40.6151 65.9475 42.9196 64.9841L88.8466 45.7834C89.6031 45.4685 89.993 44.7737 89.9977 44.072C89.9977 43.7038 89.9953 41.5964 89.9953 40.7557Z" fill="url(#paint0_linear_6386_26433)"/>
<path opacity="0.8" d="M4.45208 49.1276L19.2879 42.8933C20.2078 42.5066 21.2538 42.5714 22.1201 43.0647L29.9839 47.5574C31.3591 48.3425 31.2354 50.348 29.7738 50.9617L14.938 57.196C14.0181 57.5828 12.972 57.5179 12.1058 57.0246L4.24194 52.5319C2.86904 51.7468 2.99279 49.7413 4.45208 49.1276Z" stroke="#92C6FF" stroke-miterlimit="10" stroke-linecap="round"/>
<defs>
<linearGradient id="paint0_linear_6386_26433" x1="2.02926e-05" y1="52.5322" x2="89.9969" y2="52.5322" gradientUnits="userSpaceOnUse">
<stop stop-color="#EEF5FD"/>
<stop offset="1" stop-color="#98C4F3"/>
</linearGradient>
</defs>
</svg>
