<svg width="91" height="84" viewBox="0 0 91 84" fill="none" xmlns="http://www.w3.org/2000/svg">
<g clip-path="url(#clip0_723_76845)">
<path d="M89.055 60.4881L73.7639 51.6182L42.9179 64.7045C40.6134 65.6822 37.989 65.5177 35.8223 64.2626L16.256 52.9179C16.0389 52.9884 15.8241 53.0636 15.6139 53.1529L1.15406 59.3059C-0.281884 59.917 -0.403298 61.9194 0.946259 62.7021L35.8246 82.9262C37.9913 84.1812 40.6157 84.3457 42.9203 83.368L88.8472 63.8819C90.2831 63.2732 90.4069 61.2707 89.055 60.4881Z" fill="#404347"/>
<path opacity="0.4" d="M0.946051 41.5557L35.8244 61.7798C37.9911 63.0349 40.6155 63.1994 42.9201 62.2217L88.847 42.7356C90.2853 42.1245 90.409 40.1221 89.0572 39.3394L62.1267 23.7195C59.9623 22.4645 57.3379 22.2999 55.0357 23.273L32.3548 32.8738C30.9375 33.4731 29.3731 33.6189 27.8718 33.2875L20.1107 31.5835C18.6047 31.2521 17.0333 31.4002 15.6137 32.0042L1.15385 38.1596C-0.284427 38.7707 -0.405841 40.7731 0.946051 41.5557Z" fill="#595D61"/>
<path opacity="0.8" d="M40.9191 10.6155L60.0627 2.45067C61.6924 1.75499 63.5533 1.87015 65.0873 2.75856L73.8221 7.82339C75.7834 8.96093 75.6059 11.8635 73.5232 12.7519L54.3796 20.9168C52.7499 21.6125 50.889 21.4973 49.355 20.6089L40.6202 15.544C38.6589 14.4089 38.834 11.5039 40.9191 10.6155Z" stroke="#2C5C4B" stroke-miterlimit="10" stroke-linecap="round"/>
<path opacity="0.8" d="M61.2002 6.50488L53.9014 15.49" stroke="#2C5C4B" stroke-miterlimit="10" stroke-linecap="round"/>
<path d="M89.9963 41.1139C89.952 41.7861 89.562 42.4348 88.8452 42.738L42.9183 62.2241C40.6138 63.2018 37.9894 63.0373 35.8226 61.7822L0.9466 41.5558C0.274157 41.1656 -0.0340465 40.4723 0.00564631 39.8001C0.00564631 39.7978 0.00331144 39.7978 0.000976562 39.7954C0.000976562 41.0364 0.0103161 43.0012 0.00564631 43.3678C-0.00602806 44.0118 0.302175 44.6628 0.9466 45.0365L35.8249 65.2606C37.9917 66.5157 40.6161 66.6802 42.9206 65.7025L88.8475 46.2164C89.604 45.8967 89.994 45.1916 89.9986 44.4795C89.9986 44.1058 89.9963 41.9671 89.9963 41.1139Z" fill="url(#paint0_linear_723_76845)"/>
<path opacity="0.8" d="M4.45306 49.6102L19.2888 43.2833C20.2088 42.8908 21.2548 42.9566 22.121 43.4572L29.9849 48.0167C31.3601 48.8135 31.2364 50.8488 29.7747 51.4716L14.939 57.7986C14.019 58.1911 12.973 58.1253 12.1068 57.6246L4.24292 53.0651C2.87001 52.2684 2.99376 50.233 4.45306 49.6102Z" stroke="#2C5C4B" stroke-miterlimit="10" stroke-linecap="round"/>
</g>
<defs>
<linearGradient id="paint0_linear_723_76845" x1="0.000996855" y1="53.0654" x2="89.9979" y2="53.0654" gradientUnits="userSpaceOnUse">
<stop stop-color="#2A4632"/>
<stop offset="1" stop-color="#15372B"/>
</linearGradient>
<clipPath id="clip0_723_76845">
<rect width="90.0021" height="84" fill="white"/>
</clipPath>
</defs>
</svg>
