<svg width="12" height="14" viewBox="0 0 12 14" fill="none" xmlns="http://www.w3.org/2000/svg">
<path d="M3.52667 7.85992C3.46418 7.92189 3.41459 7.99563 3.38074 8.07687C3.34689 8.15811 3.32947 8.24524 3.32947 8.33325C3.32947 8.42126 3.34689 8.5084 3.38074 8.58964C3.41459 8.67088 3.46418 8.74461 3.52667 8.80659L5.52667 10.8066C5.58864 10.8691 5.66238 10.9187 5.74362 10.9525C5.82486 10.9864 5.91199 11.0038 6 11.0038C6.08801 11.0038 6.17515 10.9864 6.25638 10.9525C6.33762 10.9187 6.41136 10.8691 6.47333 10.8066L8.47333 8.80659C8.59887 8.68105 8.66939 8.51079 8.66939 8.33325C8.66939 8.15572 8.59887 7.98545 8.47333 7.85992C8.3478 7.73438 8.17754 7.66386 8 7.66386C7.82247 7.66386 7.6522 7.73438 7.52667 7.85992L6.66667 8.72659V0.999919C6.66667 0.823108 6.59643 0.653538 6.4714 0.528514C6.34638 0.40349 6.17681 0.333252 6 0.333252C5.82319 0.333252 5.65362 0.40349 5.5286 0.528514C5.40357 0.653538 5.33333 0.823108 5.33333 0.999919V8.72659L4.47333 7.85992C4.41136 7.79743 4.33762 7.74784 4.25638 7.71399C4.17515 7.68015 4.08801 7.66272 4 7.66272C3.91199 7.66272 3.82486 7.68015 3.74362 7.71399C3.66238 7.74784 3.58864 7.79743 3.52667 7.85992ZM10 4.99992H8.66667C8.48986 4.99992 8.32029 5.07016 8.19526 5.19518C8.07024 5.32021 8 5.48977 8 5.66659C8 5.8434 8.07024 6.01297 8.19526 6.13799C8.32029 6.26301 8.48986 6.33325 8.66667 6.33325H10C10.1768 6.33325 10.3464 6.40349 10.4714 6.52851C10.5964 6.65354 10.6667 6.82311 10.6667 6.99992V11.6666C10.6667 11.8434 10.5964 12.013 10.4714 12.138C10.3464 12.263 10.1768 12.3333 10 12.3333H2C1.82319 12.3333 1.65362 12.263 1.5286 12.138C1.40357 12.013 1.33333 11.8434 1.33333 11.6666V6.99992C1.33333 6.82311 1.40357 6.65354 1.5286 6.52851C1.65362 6.40349 1.82319 6.33325 2 6.33325H3.33333C3.51014 6.33325 3.67971 6.26301 3.80474 6.13799C3.92976 6.01297 4 5.8434 4 5.66659C4 5.48977 3.92976 5.32021 3.80474 5.19518C3.67971 5.07016 3.51014 4.99992 3.33333 4.99992H2C1.46957 4.99992 0.960859 5.21063 0.585787 5.5857C0.210714 5.96078 0 6.46949 0 6.99992V11.6666C0 12.197 0.210714 12.7057 0.585787 13.0808C0.960859 13.4559 1.46957 13.6666 2 13.6666H10C10.5304 13.6666 11.0391 13.4559 11.4142 13.0808C11.7893 12.7057 12 12.197 12 11.6666V6.99992C12 6.46949 11.7893 5.96078 11.4142 5.5857C11.0391 5.21063 10.5304 4.99992 10 4.99992Z" fill="none"/>
</svg>
