<svg width="16" height="18" viewBox="0 0 16 18" fill="#364361" xmlns="http://www.w3.org/2000/svg">
<path d="M4.69056 10.0748C4.61245 10.1523 4.55046 10.2445 4.50815 10.346C4.46584 10.4476 4.44406 10.5565 4.44406 10.6665C4.44406 10.7765 4.46584 10.8854 4.50815 10.987C4.55046 11.0885 4.61245 11.1807 4.69056 11.2582L7.19056 13.7582C7.26803 13.8363 7.3602 13.8983 7.46175 13.9406C7.56329 13.9829 7.67222 14.0047 7.78223 14.0047C7.89224 14.0047 8.00116 13.9829 8.10271 13.9406C8.20426 13.8983 8.29642 13.8363 8.37389 13.7582L10.8739 11.2582C11.0308 11.1013 11.119 10.8884 11.119 10.6665C11.119 10.4446 11.0308 10.2318 10.8739 10.0748C10.717 9.91792 10.5041 9.82976 10.2822 9.82976C10.0603 9.82976 9.84748 9.91792 9.69056 10.0748L8.61556 11.1582V1.49984C8.61556 1.27882 8.52776 1.06686 8.37148 0.910582C8.2152 0.754301 8.00324 0.666504 7.78223 0.666504C7.56121 0.666504 7.34925 0.754301 7.19297 0.910582C7.03669 1.06686 6.94889 1.27882 6.94889 1.49984V11.1582L5.87389 10.0748C5.79642 9.99673 5.70426 9.93474 5.60271 9.89243C5.50116 9.85012 5.39224 9.82834 5.28223 9.82834C5.17222 9.82834 5.0633 9.85012 4.96175 9.89243C4.8602 9.93474 4.76803 9.99673 4.69056 10.0748ZM12.7822 6.49984H11.1156C10.8945 6.49984 10.6826 6.58764 10.5263 6.74392C10.37 6.9002 10.2822 7.11216 10.2822 7.33317C10.2822 7.55418 10.37 7.76615 10.5263 7.92243C10.6826 8.07871 10.8945 8.1665 11.1156 8.1665H12.7822C13.0032 8.1665 13.2152 8.2543 13.3715 8.41058C13.5278 8.56686 13.6156 8.77882 13.6156 8.99984V14.8332C13.6156 15.0542 13.5278 15.2661 13.3715 15.4224C13.2152 15.5787 13.0032 15.6665 12.7822 15.6665H2.78223C2.56121 15.6665 2.34925 15.5787 2.19297 15.4224C2.03669 15.2661 1.94889 15.0542 1.94889 14.8332V8.99984C1.94889 8.77882 2.03669 8.56686 2.19297 8.41058C2.34925 8.2543 2.56121 8.1665 2.78223 8.1665H4.44889C4.66991 8.1665 4.88187 8.07871 5.03815 7.92243C5.19443 7.76615 5.28223 7.55418 5.28223 7.33317C5.28223 7.11216 5.19443 6.9002 5.03815 6.74392C4.88187 6.58764 4.66991 6.49984 4.44889 6.49984H2.78223C2.11919 6.49984 1.4833 6.76323 1.01446 7.23207C0.545619 7.70091 0.282227 8.3368 0.282227 8.99984V14.8332C0.282227 15.4962 0.545619 16.1321 1.01446 16.6009C1.4833 17.0698 2.11919 17.3332 2.78223 17.3332H12.7822C13.4453 17.3332 14.0812 17.0698 14.55 16.6009C15.0188 16.1321 15.2822 15.4962 15.2822 14.8332V8.99984C15.2822 8.3368 15.0188 7.70091 14.55 7.23207C14.0812 6.76323 13.4453 6.49984 12.7822 6.49984Z" />
</svg>
