<svg width="16" height="18" viewBox="0 0 16 18" fill="none" xmlns="http://www.w3.org/2000/svg">
<path d="M4.76014 10.0753C4.68203 10.1528 4.62004 10.245 4.57773 10.3465C4.53542 10.4481 4.51364 10.557 4.51364 10.667C4.51364 10.777 4.53542 10.8859 4.57773 10.9875C4.62004 11.089 4.68203 11.1812 4.76014 11.2587L7.26014 13.7587C7.33761 13.8368 7.42978 13.8988 7.53133 13.9411C7.63288 13.9834 7.7418 14.0052 7.85181 14.0052C7.96182 14.0052 8.07074 13.9834 8.17229 13.9411C8.27384 13.8988 8.366 13.8368 8.44347 13.7587L10.9435 11.2587C11.1004 11.1017 11.1885 10.8889 11.1885 10.667C11.1885 10.4451 11.1004 10.2322 10.9435 10.0753C10.7866 9.91841 10.5737 9.83025 10.3518 9.83025C10.1299 9.83025 9.91706 9.91841 9.76014 10.0753L8.68514 11.1587V1.50033C8.68514 1.27931 8.59734 1.06735 8.44106 0.91107C8.28478 0.75479 8.07282 0.666992 7.85181 0.666992C7.63079 0.666992 7.41883 0.75479 7.26255 0.91107C7.10627 1.06735 7.01847 1.27931 7.01847 1.50033V11.1587L5.94347 10.0753C5.866 9.99722 5.77384 9.93522 5.67229 9.89292C5.57074 9.85061 5.46182 9.82883 5.35181 9.82883C5.2418 9.82883 5.13288 9.85061 5.03133 9.89292C4.92978 9.93522 4.83761 9.99722 4.76014 10.0753ZM12.8518 6.50033H11.1851C10.9641 6.50033 10.7522 6.58812 10.5959 6.7444C10.4396 6.90068 10.3518 7.11265 10.3518 7.33366C10.3518 7.55467 10.4396 7.76663 10.5959 7.92291C10.7522 8.0792 10.9641 8.16699 11.1851 8.16699H12.8518C13.0728 8.16699 13.2848 8.25479 13.4411 8.41107C13.5973 8.56735 13.6851 8.77931 13.6851 9.00033V14.8337C13.6851 15.0547 13.5973 15.2666 13.4411 15.4229C13.2848 15.5792 13.0728 15.667 12.8518 15.667H2.85181C2.63079 15.667 2.41883 15.5792 2.26255 15.4229C2.10627 15.2666 2.01847 15.0547 2.01847 14.8337V9.00033C2.01847 8.77931 2.10627 8.56735 2.26255 8.41107C2.41883 8.25479 2.63079 8.16699 2.85181 8.16699H4.51847C4.73949 8.16699 4.95145 8.0792 5.10773 7.92291C5.26401 7.76663 5.35181 7.55467 5.35181 7.33366C5.35181 7.11265 5.26401 6.90068 5.10773 6.7444C4.95145 6.58812 4.73949 6.50033 4.51847 6.50033H2.85181C2.18877 6.50033 1.55288 6.76372 1.08404 7.23256C0.615199 7.7014 0.351807 8.33728 0.351807 9.00033V14.8337C0.351807 15.4967 0.615199 16.1326 1.08404 16.6014C1.55288 17.0703 2.18877 17.3337 2.85181 17.3337H12.8518C13.5148 17.3337 14.1507 17.0703 14.6196 16.6014C15.0884 16.1326 15.3518 15.4967 15.3518 14.8337V9.00033C15.3518 8.33728 15.0884 7.7014 14.6196 7.23256C14.1507 6.76372 13.5148 6.50033 12.8518 6.50033Z" fill="white"/>
</svg>
