<svg width="12" height="13" viewBox="0 0 12 13" fill="none" xmlns="http://www.w3.org/2000/svg">
<path fill-rule="evenodd" clip-rule="evenodd" d="M1.64645 7.64645C1.84171 7.45118 2.15829 7.45118 2.35355 7.64645L4.5 9.79289L6.64645 7.64645C6.84171 7.45118 7.15829 7.45118 7.35355 7.64645C7.54882 7.84171 7.54882 8.15829 7.35355 8.35355L4.85355 10.8536C4.65829 11.0488 4.34171 11.0488 4.14645 10.8536L1.64645 8.35355C1.45118 8.15829 1.45118 7.84171 1.64645 7.64645Z" fill="white"/>
<path fill-rule="evenodd" clip-rule="evenodd" d="M4.73223 2.73223C5.20107 2.26339 5.83696 2 6.5 2H10C10.2761 2 10.5 2.22386 10.5 2.5C10.5 2.77614 10.2761 3 10 3H6.5C6.10218 3 5.72064 3.15804 5.43934 3.43934C5.15804 3.72064 5 4.10218 5 4.5V10.5C5 10.7761 4.77614 11 4.5 11C4.22386 11 4 10.7761 4 10.5V4.5C4 3.83696 4.26339 3.20107 4.73223 2.73223Z" fill="white"/>
</svg>
