<svg width="17" height="16" viewBox="0 0 17 16" fill="none" xmlns="http://www.w3.org/2000/svg">
<path d="M15.5674 1.37486C15.5373 1.26067 15.4775 1.15652 15.394 1.07302C15.3105 0.989524 15.2063 0.929681 15.0921 0.8996C13.7246 0.544393 12.2845 0.582651 10.9377 1.00997C9.59088 1.43729 8.39215 2.23629 7.47952 3.31497L6.73623 4.19753L4.9997 3.77854C4.57753 3.63136 4.11636 3.64191 3.70135 3.80824C3.28635 3.97457 2.94555 4.28545 2.74189 4.68346L1.27509 7.28339C1.2237 7.37446 1.19445 7.47634 1.18971 7.58081C1.18497 7.68527 1.20488 7.78938 1.24781 7.88473C1.29075 7.98007 1.35552 8.06398 1.43688 8.12967C1.51824 8.19536 1.61392 8.24098 1.71617 8.26286L3.76467 8.70199C3.59114 9.23022 3.46724 9.77348 3.39456 10.3247C3.38138 10.426 3.39164 10.5289 3.42455 10.6256C3.45745 10.7223 3.51212 10.8101 3.58433 10.8823L5.65107 12.9491C5.71294 13.011 5.78642 13.0601 5.8673 13.0936C5.94817 13.1271 6.03486 13.1444 6.1224 13.1444C6.14161 13.1444 6.16081 13.1434 6.18035 13.1418C6.74391 13.0911 7.30062 12.9816 7.84139 12.8151L8.27051 14.8172C8.29244 14.9195 8.3381 15.0151 8.4038 15.0964C8.4695 15.1778 8.5534 15.2425 8.64873 15.2854C8.74407 15.3284 8.84816 15.3483 8.9526 15.3436C9.05705 15.3389 9.15893 15.3097 9.25001 15.2583L11.8535 13.7899C12.22 13.5672 12.5062 13.234 12.6709 12.8381C12.8357 12.4423 12.8704 12.0043 12.7702 11.5874L12.3244 9.74809L13.1491 8.98975C14.2318 8.07967 15.0339 6.88088 15.462 5.53283C15.8901 4.18477 15.9267 2.74287 15.5674 1.37486ZM2.88154 7.14895L3.91897 5.30911C3.98341 5.18421 4.09319 5.08869 4.22581 5.04214C4.35842 4.9956 4.50382 5.00155 4.63219 5.05879L5.77713 5.33625L5.34379 5.85078C4.93297 6.34316 4.57764 6.87931 4.28425 7.44953L2.88154 7.14895ZM11.195 12.6304L9.38447 13.6515L9.09813 12.3151C9.67855 12.0256 10.2193 11.6627 10.7071 11.2352L11.2027 10.7794L11.4717 11.8892C11.5066 12.0262 11.4988 12.1706 11.4493 12.3031C11.3999 12.4355 11.3112 12.5497 11.195 12.6304ZM12.2712 7.98686L9.81481 10.2443C8.84251 11.0852 7.64322 11.6197 6.36787 11.7805L4.765 10.1776C4.98028 8.89894 5.53281 7.70085 6.36559 6.70695L7.48448 5.37849C7.50312 5.35899 7.52052 5.33834 7.53657 5.31665L8.49319 4.18086C9.20051 3.34546 10.1169 2.71273 11.1487 2.34729C12.1805 1.98185 13.2908 1.89678 14.3662 2.10078C14.5752 3.17959 14.491 4.29469 14.1225 5.32993C13.7541 6.36516 13.1147 7.28266 12.2712 7.98686ZM11.6559 3.87769C11.4581 3.87769 11.2647 3.93634 11.1003 4.04622C10.9358 4.1561 10.8077 4.31228 10.732 4.495C10.6563 4.67773 10.6365 4.8788 10.6751 5.07278C10.7137 5.26676 10.8089 5.44494 10.9487 5.58479C11.0886 5.72465 11.2668 5.81989 11.4608 5.85847C11.6547 5.89706 11.8558 5.87725 12.0385 5.80157C12.2213 5.72588 12.3774 5.59771 12.4873 5.43326C12.5972 5.26881 12.6559 5.07547 12.6559 4.87769C12.6559 4.74636 12.63 4.61632 12.5797 4.49498C12.5295 4.37365 12.4558 4.26341 12.363 4.17055C12.2701 4.07768 12.1599 4.00402 12.0385 3.95377C11.9172 3.90352 11.7872 3.87766 11.6558 3.87767L11.6559 3.87769Z" fill="#171727"/>
</svg>
