<svg width="16" height="16" viewBox="0 0 16 16" fill="#364361" xmlns="http://www.w3.org/2000/svg">
<path d="M14.4681 5.98698L3.96863 0.735756C3.55427 0.529465 3.08639 0.456024 2.62878 0.525446C2.17117 0.594868 1.7461 0.803775 1.41152 1.12368C1.07694 1.44359 0.849141 1.85893 0.759176 2.31308C0.669211 2.76723 0.721459 3.23808 0.908798 3.66144L2.7087 7.68987C2.74954 7.78727 2.77057 7.89183 2.77057 7.99744C2.77057 8.10306 2.74954 8.20762 2.7087 8.30501L0.908798 12.3335C0.756331 12.6761 0.691877 13.0514 0.721291 13.4252C0.750705 13.7991 0.873057 14.1597 1.07723 14.4742C1.28139 14.7888 1.56091 15.0473 1.89036 15.2263C2.21982 15.4053 2.58877 15.4991 2.96369 15.4992C3.31484 15.4957 3.66077 15.4137 3.97613 15.2591L14.4756 10.0079C14.848 9.82051 15.161 9.53328 15.3798 9.17828C15.5985 8.82327 15.7144 8.41446 15.7144 7.99744C15.7144 7.58043 15.5985 7.17161 15.3798 6.81661C15.161 6.46161 14.848 6.17438 14.4756 5.98698H14.4681ZM13.8006 8.6651L3.30117 13.9163C3.1633 13.9825 3.00848 14.005 2.85748 13.9807C2.70648 13.9564 2.56651 13.8865 2.45635 13.7804C2.34618 13.6743 2.27108 13.537 2.24112 13.387C2.21116 13.237 2.22777 13.0814 2.28872 12.9411L4.08113 8.91266C4.10433 8.85886 4.12436 8.80375 4.14112 8.74762H9.30834C9.50724 8.74762 9.698 8.66858 9.83864 8.5279C9.97929 8.38721 10.0583 8.1964 10.0583 7.99744C10.0583 7.79848 9.97929 7.60767 9.83864 7.46699C9.698 7.3263 9.50724 7.24727 9.30834 7.24727H4.14112C4.12436 7.19113 4.10433 7.13602 4.08113 7.08223L2.28872 3.05379C2.22777 2.91348 2.21116 2.75789 2.24112 2.60787C2.27108 2.45785 2.34618 2.32058 2.45635 2.21446C2.56651 2.10834 2.70648 2.03846 2.85748 2.01417C3.00848 1.98988 3.1633 2.01235 3.30117 2.07857L13.8006 7.32979C13.9234 7.39274 14.0265 7.48838 14.0985 7.60619C14.1705 7.72399 14.2086 7.85938 14.2086 7.99744C14.2086 8.13551 14.1705 8.2709 14.0985 8.3887C14.0265 8.5065 13.9234 8.60215 13.8006 8.6651Z"/>
</svg>
