<svg width="16" height="16" viewBox="0 0 16 16" fill="none" xmlns="http://www.w3.org/2000/svg">
<path d="M14.5376 5.98698L4.03821 0.735756C3.62385 0.529465 3.15597 0.456024 2.69836 0.525446C2.24075 0.594868 1.81568 0.803775 1.4811 1.12368C1.14652 1.44359 0.918721 1.85893 0.828756 2.31308C0.738791 2.76723 0.791039 3.23808 0.978378 3.66144L2.77828 7.68987C2.81912 7.78727 2.84015 7.89183 2.84015 7.99744C2.84015 8.10306 2.81912 8.20762 2.77828 8.30501L0.978378 12.3334C0.825911 12.6761 0.761457 13.0514 0.790871 13.4252C0.820286 13.7991 0.942637 14.1597 1.14681 14.4742C1.35097 14.7888 1.63049 15.0473 1.95994 15.2263C2.2894 15.4053 2.65835 15.4991 3.03327 15.4992C3.38442 15.4957 3.73035 15.4137 4.04571 15.2591L14.5451 10.0079C14.9176 9.8205 15.2306 9.53328 15.4494 9.17828C15.6681 8.82327 15.7839 8.41446 15.7839 7.99744C15.7839 7.58043 15.6681 7.17161 15.4494 6.81661C15.2306 6.46161 14.9176 6.17438 14.5451 5.98698H14.5376ZM13.8702 8.6651L3.37075 13.9163C3.23288 13.9825 3.07806 14.005 2.92706 13.9807C2.77606 13.9564 2.63609 13.8865 2.52593 13.7804C2.41576 13.6743 2.34066 13.537 2.3107 13.387C2.28074 13.237 2.29735 13.0814 2.3583 12.9411L4.15071 8.91266C4.17391 8.85886 4.19394 8.80375 4.2107 8.74762H9.37792C9.57682 8.74762 9.76758 8.66858 9.90822 8.5279C10.0489 8.38721 10.1279 8.1964 10.1279 7.99744C10.1279 7.79848 10.0489 7.60767 9.90822 7.46699C9.76758 7.3263 9.57682 7.24727 9.37792 7.24727H4.2107C4.19394 7.19113 4.17391 7.13602 4.15071 7.08223L2.3583 3.05379C2.29735 2.91348 2.28074 2.75789 2.3107 2.60787C2.34066 2.45785 2.41576 2.32058 2.52593 2.21446C2.63609 2.10834 2.77606 2.03846 2.92706 2.01417C3.07806 1.98988 3.23288 2.01235 3.37075 2.07857L13.8702 7.32979C13.993 7.39274 14.0961 7.48838 14.1681 7.60619C14.2401 7.72399 14.2782 7.85938 14.2782 7.99744C14.2782 8.13551 14.2401 8.2709 14.1681 8.3887C14.0961 8.5065 13.993 8.60214 13.8702 8.6651V8.6651Z" fill="white"/>
</svg>
