<svg width="12" height="12" viewBox="0 0 12 12" fill="none" xmlns="http://www.w3.org/2000/svg">
<path d="M11.003 4.38958L2.60342 0.188605C2.27193 0.0235723 1.89763 -0.0351805 1.53154 0.0203571C1.16545 0.0758947 0.825393 0.24302 0.557731 0.498947C0.290069 0.754874 0.107828 1.08715 0.0358562 1.45046C-0.0361159 1.81378 0.00568301 2.19046 0.155554 2.52915L1.59548 5.7519C1.62815 5.82981 1.64497 5.91346 1.64497 5.99795C1.64497 6.08245 1.62815 6.16609 1.59548 6.24401L0.155554 9.46676C0.0335808 9.74085 -0.0179831 10.0411 0.00554846 10.3402C0.02908 10.6393 0.126961 10.9277 0.290296 11.1794C0.453631 11.431 0.677241 11.6378 0.940805 11.781C1.20437 11.9242 1.49953 11.9993 1.79946 11.9993C2.08039 11.9965 2.35713 11.9309 2.60942 11.8073L11.009 7.60633C11.3069 7.4564 11.5573 7.22662 11.7323 6.94262C11.9073 6.65862 12 6.33157 12 5.99795C12 5.66434 11.9073 5.33729 11.7323 5.05329C11.5573 4.76929 11.3069 4.5395 11.009 4.38958H11.003ZM10.469 6.53208L2.06945 10.7331C1.95915 10.786 1.8353 10.804 1.7145 10.7846C1.5937 10.7651 1.48173 10.7092 1.39359 10.6243C1.30546 10.5394 1.24538 10.4296 1.22141 10.3096C1.19745 10.1896 1.21073 10.0651 1.25949 9.95287L2.69342 6.73012C2.71198 6.68709 2.72801 6.643 2.74141 6.59809H6.87519C7.03431 6.59809 7.18691 6.53486 7.29943 6.42232C7.41194 6.30977 7.47516 6.15712 7.47516 5.99795C7.47516 5.83879 7.41194 5.68614 7.29943 5.57359C7.18691 5.46104 7.03431 5.39782 6.87519 5.39782H2.74141C2.72801 5.35291 2.71198 5.30882 2.69342 5.26578L1.25949 2.04304C1.21073 1.93079 1.19745 1.80631 1.22141 1.68629C1.24538 1.56628 1.30546 1.45646 1.39359 1.37157C1.48173 1.28668 1.5937 1.23077 1.7145 1.21133C1.8353 1.1919 1.95915 1.20988 2.06945 1.26285L10.469 5.46383C10.5673 5.51419 10.6497 5.59071 10.7073 5.68495C10.7649 5.77919 10.7954 5.8875 10.7954 5.99795C10.7954 6.10841 10.7649 6.21672 10.7073 6.31096C10.6497 6.4052 10.5673 6.48172 10.469 6.53208Z" fill="none"/>
</svg>
