<svg width="32" height="32" viewBox="0 0 32 32" fill="none" xmlns="http://www.w3.org/2000/svg">
<path d="M32 0H0V32H32V0Z" fill="white" fill-opacity="0.01"/>
<path d="M20.3785 25C21.0752 25 21.7217 24.6374 22.0851 24.0429L26.3627 17.0429C26.7539 16.4027 26.7539 15.5973 26.3627 14.9571L22.0851 7.95712C21.7217 7.3626 21.0752 7 20.3785 7H11.6218C10.925 7 10.2785 7.36258 9.91521 7.95708L5.63735 14.9571C5.24609 15.5973 5.24609 16.4027 5.63735 17.0429L9.91521 24.0429C10.2785 24.6374 10.925 25 11.6218 25H20.3785Z" stroke="#364361" stroke-width="1.5" stroke-linejoin="round"/>
<path d="M16 20C18.2091 20 20 18.2091 20 16C20 13.7909 18.2091 12 16 12C13.7909 12 12 13.7909 12 16C12 18.2091 13.7909 20 16 20Z" stroke="#364361" stroke-width="1.5" stroke-linejoin="round"/>
</svg>
