<svg width="102" height="13" viewBox="0 0 102 13" fill="none" xmlns="http://www.w3.org/2000/svg">
<path fill-rule="evenodd" clip-rule="evenodd" d="M8.47247 0.0214844H0.555786V2.82148H4.86212C4.7849 3.12261 4.74576 3.43226 4.7456 3.74315L4.72346 10.8427V12.4414H7.51978V10.8497L7.54192 3.7521C7.54264 3.50503 7.64116 3.26833 7.81589 3.09389C7.99061 2.91944 8.22729 2.82148 8.47403 2.82148H11.7411V0.0214844H8.47247ZM13.6158 8.69371V3.75482C13.6169 2.76502 14.0101 1.81609 14.709 1.1162C15.408 0.416312 16.3557 0.0226166 17.3442 0.0214844H24.801V2.82148H17.3442C17.097 2.82148 16.8599 2.91982 16.6851 3.09485C16.5103 3.26989 16.4121 3.50728 16.4121 3.75482V4.84371H24.801V7.64371H16.4121V8.69371C16.4121 8.94124 16.5103 9.17864 16.6851 9.35367C16.8599 9.52871 17.097 9.62704 17.3442 9.62704H24.801V12.427H17.3442C16.3557 12.4259 15.408 12.0322 14.709 11.3323C14.0101 10.6324 13.6169 9.6835 13.6158 8.69371ZM29.4616 0.0214844V8.69371C29.4616 8.94124 29.5598 9.17864 29.7346 9.35367C29.9094 9.52871 30.1464 9.62704 30.3937 9.62704H35.9863V12.427H30.3937C29.4052 12.4259 28.4575 12.0322 27.7585 11.3323C27.0595 10.6324 26.6664 9.6835 26.6652 8.69371V0.0214844H29.4616ZM40.6468 3.75482C40.6468 3.50728 40.745 3.26989 40.9198 3.09485C41.0946 2.91982 41.3317 2.82148 41.5789 2.82148H49.0358V0.0214844H41.5789C40.5904 0.0226166 39.6428 0.416312 38.9438 1.1162C38.2448 1.81609 37.8516 2.76502 37.8505 3.75482V8.69371C37.8516 9.6835 38.2448 10.6324 38.9438 11.3323C39.6428 12.0322 40.5904 12.4259 41.5789 12.427H49.0358V9.62704H41.5789C41.3317 9.62704 41.0946 9.52871 40.9198 9.35367C40.745 9.17864 40.6468 8.94124 40.6468 8.69371V7.64371L49.0327 7.66198L49.0389 4.86198L40.6468 4.84371V3.75482ZM50.9 0.0214844H57.2977C59.9387 0.0214844 62.0868 2.03632 62.0868 4.51315C62.0868 6.98998 59.9387 9.00482 57.2977 9.00482H54.6284C54.3812 9.00482 54.1441 9.10315 53.9693 9.27818C53.7945 9.45322 53.6963 9.69062 53.6963 9.93815V12.4659H50.9V0.0214844ZM54.63 6.20482H57.2977C58.3949 6.20482 59.2905 5.4461 59.2905 4.51315C59.2905 3.58021 58.3964 2.82148 57.2977 2.82148H53.6979V6.32148C54.0024 6.24319 54.3156 6.20399 54.63 6.20482ZM88.9858 4.44004C88.9858 2.00482 86.9736 0.0214844 84.5001 0.0214844H77.7757V12.4659H80.572V2.82148H84.5001C85.4322 2.82148 86.1895 3.54754 86.1895 4.44004C86.1895 5.33254 85.4341 6.05626 84.5047 6.0586L80.9864 6.03098L82.4285 8.82904C82.9933 9.92466 83.8483 10.8435 84.8999 11.485C85.9515 12.1265 87.1591 12.4658 88.3904 12.4659H88.9548V9.66593H88.3904C87.4296 9.6679 86.5019 9.31463 85.7852 8.67387C87.6343 8.12826 88.9858 6.43815 88.9858 4.44004ZM90.8147 0.0214844H99.4472H102V2.82148H98.7329C98.4862 2.82148 98.2495 2.91944 98.0748 3.09389C97.9001 3.26833 97.8015 3.50503 97.8008 3.7521L97.7787 10.8497V12.4414H94.9824V10.8427L95.0045 3.74315C95.0047 3.43226 95.0438 3.12261 95.121 2.82148H90.8147V0.0214844ZM69.7545 0.0214844H70.1064C73.3074 0.0214844 75.9115 2.61226 75.9115 5.79648V6.65204C75.9115 9.83626 73.3074 12.427 70.1064 12.427H69.7545C66.5516 12.427 63.9495 9.83626 63.9495 6.65204V5.79648C63.9495 2.61226 66.5535 0.0214844 69.7545 0.0214844ZM70.1064 9.62704C71.7555 9.62704 73.0969 8.29237 73.0969 6.65204V5.79648C73.0969 4.15615 71.7555 2.82148 70.1064 2.82148H69.7545C68.1055 2.82148 66.764 4.15615 66.764 5.79648V6.65204C66.764 8.29237 68.1055 9.62704 69.7545 9.62704H70.1064Z" fill="#111621"/>
</svg>
