<svg width="123" height="122" viewBox="0 0 123 122" fill="none" xmlns="http://www.w3.org/2000/svg">
<path fill-rule="evenodd" clip-rule="evenodd" d="M74.4069 10.3137C68.9968 4.9844 50.1475 14.9119 32.3058 32.4874C14.464 50.0628 4.38616 68.6309 9.79623 73.9602C15.2063 79.2896 34.0556 69.3621 51.8974 51.7866C69.7391 34.2111 79.817 15.6431 74.4069 10.3137ZM35.3779 36.029C49.9114 21.7123 64.427 12.7993 67.7993 16.1213C71.1716 19.4432 62.1236 33.7422 47.59 48.0589C33.0564 62.3756 18.5408 71.2886 15.1685 67.9666C11.7963 64.6447 20.8443 50.3457 35.3779 36.029Z" fill="url(#paint0_linear_15121_101127)"/>
<path fill-rule="evenodd" clip-rule="evenodd" d="M53.7678 49.9122C68.1681 35.2156 76.4978 20.5865 72.5138 16.6619C68.3602 12.5703 52.3958 21.6628 36.8562 36.9705C21.3166 52.2782 12.0864 68.0044 16.24 72.0959C20.223 76.0196 35.0674 67.8192 49.9829 53.6403C32.7266 70.0521 15.0131 79.0997 9.79623 73.9607C4.38615 68.6313 14.464 50.0633 32.3058 32.4878C50.1475 14.9123 68.9968 4.98484 74.4069 10.3142C79.6249 15.4543 70.4351 32.91 53.7678 49.9122Z" fill="url(#paint1_linear_15121_101127)"/>
<path fill-rule="evenodd" clip-rule="evenodd" d="M89.3287 88.6608C76.9569 100.848 63.8863 107.732 60.1349 104.036C56.3834 100.341 63.3716 87.4655 75.7435 75.2783C88.1153 63.0911 101.186 56.2072 104.937 59.9027C108.689 63.5982 101.701 76.4736 89.3287 88.6608ZM87.1983 86.2028C77.1204 96.1303 67.055 102.311 64.7166 100.007C62.3782 97.7037 68.6523 87.7885 78.7302 77.861C88.808 67.9335 98.8734 61.7531 101.212 64.0566C103.55 66.3601 97.2762 76.2753 87.1983 86.2028Z" fill="url(#paint2_linear_15121_101127)"/>
<path fill-rule="evenodd" clip-rule="evenodd" d="M77.9544 73.1614C89.6355 62.3093 101.408 56.4262 104.936 59.902C108.688 63.5975 101.7 76.4729 89.3278 88.6601C76.956 100.847 63.8855 107.731 60.134 104.036C56.6025 100.557 62.5881 88.9432 73.6229 77.4266C64.1456 87.3263 58.7608 96.988 61.4466 99.6337C64.3268 102.471 75.3969 96.166 86.1723 85.5513C96.9478 74.9366 103.348 64.0318 100.468 61.1946C97.7849 58.5514 87.9936 63.8428 77.9544 73.1614Z" fill="url(#paint3_linear_15121_101127)"/>
<path fill-rule="evenodd" clip-rule="evenodd" d="M98.3753 72.5221C97.6846 73.2024 96.5649 73.2024 95.8742 72.5221L77.95 54.8653C77.2593 54.185 77.2593 53.0819 77.95 52.4016C78.6406 51.7212 79.7604 51.7212 80.451 52.4016L98.3753 70.0583C99.0659 70.7387 99.0659 71.8417 98.3753 72.5221ZM80.8679 79.9133C80.1773 80.5937 79.0575 80.5937 78.3668 79.9133L75.4489 77.039C74.7583 76.3586 74.7583 75.2556 75.4489 74.5752C76.1396 73.8949 77.2594 73.8949 77.95 74.5752L80.8679 77.4496C81.5586 78.1299 81.5586 79.233 80.8679 79.9133ZM67.9459 67.1833C67.2552 67.8636 66.1355 67.8636 65.4448 67.1833L45.8532 47.884C45.1626 47.2037 45.1626 46.1006 45.8532 45.4203C46.5439 44.7399 47.6636 44.7399 48.3543 45.4203L67.9459 64.7195C68.6365 65.3999 68.6365 66.5029 67.9459 67.1833ZM69.6129 46.6523C70.3035 47.3327 71.4233 47.3327 72.114 46.6523C72.8046 45.972 72.8046 44.8689 72.114 44.1886L69.1961 41.3142C68.5054 40.6339 67.3856 40.6339 66.695 41.3142C66.0043 41.9946 66.0043 43.0976 66.695 43.778L69.6129 46.6523ZM58.3584 35.5658C59.049 36.2461 60.1688 36.2461 60.8595 35.5658C61.5501 34.8854 61.5501 33.7824 60.8595 33.102L55.8573 28.1746C55.1667 27.4942 54.0469 27.4942 53.3563 28.1746C52.6656 28.8549 52.6656 29.958 53.3563 30.6383L58.3584 35.5658ZM73.3647 97.1587C72.674 97.839 71.5543 97.839 70.8636 97.1587L61.2762 87.7144C60.5856 87.034 60.5856 85.931 61.2762 85.2506C61.9669 84.5703 63.0866 84.5703 63.7773 85.2506L73.3647 94.6949C74.0553 95.3753 74.0553 96.4783 73.3647 97.1587ZM51.2723 77.8609C51.9629 78.5412 53.0827 78.5412 53.7733 77.8609C54.464 77.1805 54.464 76.0775 53.7733 75.3971L30.847 52.8129C30.1563 52.1325 29.0366 52.1325 28.3459 52.8129C27.6553 53.4932 27.6553 54.5963 28.3459 55.2766L51.2723 77.8609Z" fill="url(#paint4_linear_15121_101127)"/>
<rect width="50.3306" height="78.1977" transform="matrix(0.712402 -0.701771 0.712402 0.701771 16.4424 52.4102)" fill="url(#paint5_linear_15121_101127)" fill-opacity="0.3"/>
<defs>
<linearGradient id="paint0_linear_15121_101127" x1="9.79623" y1="73.9602" x2="73.4355" y2="9.35688" gradientUnits="userSpaceOnUse">
<stop stop-color="#DDDDDD"/>
<stop offset="1" stop-color="#DDDDDD"/>
</linearGradient>
<linearGradient id="paint1_linear_15121_101127" x1="74.3987" y1="10.3061" x2="10.7594" y2="74.9095" gradientUnits="userSpaceOnUse">
<stop stop-color="white"/>
<stop offset="1" stop-color="white"/>
</linearGradient>
<linearGradient id="paint2_linear_15121_101127" x1="104.937" y1="59.9027" x2="60.8084" y2="104.7" gradientUnits="userSpaceOnUse">
<stop stop-color="#DDDDDD"/>
<stop offset="1" stop-color="#DDDDDD"/>
</linearGradient>
<linearGradient id="paint3_linear_15121_101127" x1="60.1495" y1="104.051" x2="104.278" y2="59.2537" gradientUnits="userSpaceOnUse">
<stop stop-color="white"/>
<stop offset="1" stop-color="white"/>
</linearGradient>
<linearGradient id="paint4_linear_15121_101127" x1="84.411" y1="83.4036" x2="42.5321" y2="40.8903" gradientUnits="userSpaceOnUse">
<stop stop-color="white" stop-opacity="0"/>
<stop offset="0.192708" stop-color="white"/>
<stop offset="0.78125" stop-color="white"/>
<stop offset="1" stop-color="white" stop-opacity="0"/>
</linearGradient>
<linearGradient id="paint5_linear_15121_101127" x1="25.1653" y1="0" x2="25.1653" y2="78.1977" gradientUnits="userSpaceOnUse">
<stop stop-color="white" stop-opacity="0"/>
<stop offset="0.510417" stop-color="white"/>
<stop offset="1" stop-color="white" stop-opacity="0"/>
</linearGradient>
</defs>
</svg>
