<svg width="94" height="20" viewBox="0 0 94 20" fill="none" xmlns="http://www.w3.org/2000/svg">
<path fill-rule="evenodd" clip-rule="evenodd" d="M3.30532 10.4477V16.8903H6.05042C6.79739 16.8903 7.46032 16.7689 8.03922 16.5261C8.61811 16.2834 9.07563 15.9192 9.41177 15.4337C9.7479 14.9482 9.91597 14.3412 9.91597 13.613C9.91597 13.0901 9.81326 12.6326 9.60784 12.2404C9.4211 11.8296 9.15033 11.4934 8.79552 11.232C8.45938 10.9519 8.05789 10.7558 7.59104 10.6438C7.12418 10.5131 6.61064 10.4477 6.05042 10.4477H3.30532ZM9.11322 8.98055C9.88155 9.18616 10.5693 9.48847 11.1765 9.88747C11.8487 10.317 12.3716 10.8679 12.7451 11.5401C13.1186 12.2124 13.3053 13.0154 13.3053 13.9491C13.3053 15.2376 12.9972 16.302 12.381 17.1424C11.7834 17.9827 10.9524 18.6083 9.88796 19.0191C8.84221 19.4113 7.62839 19.6074 6.2465 19.6074H0V-0.000488281H5.91036C7.14286 -0.000488281 8.22596 0.176916 9.15967 0.531724C10.112 0.886533 10.8497 1.42808 11.3726 2.15637C11.9141 2.88467 12.1849 3.80903 12.1849 4.92948C12.1849 5.90054 11.9141 6.73154 11.3726 7.42248C10.8497 8.09475 10.112 8.60829 9.15967 8.9631L9.11322 8.98055ZM3.30532 7.87066H5.68628C6.30252 7.87066 6.84407 7.76795 7.31093 7.56254C7.77778 7.35712 8.14192 7.06767 8.40336 6.69419C8.6648 6.30203 8.79552 5.83518 8.79552 5.29363C8.79552 4.47197 8.50607 3.83705 7.92717 3.38887C7.34827 2.94069 6.60131 2.7166 5.68628 2.7166H3.30532V7.87066ZM53.9126 19.0191C52.8482 19.598 51.569 19.8875 50.0751 19.8875C48.7679 19.8875 47.6101 19.6074 46.6017 19.0471C45.6119 18.4869 44.8463 17.7026 44.3048 16.6942C43.7632 15.6858 43.4924 14.5093 43.4924 13.1648C43.4924 11.8016 43.7632 10.6158 44.3048 9.60736C44.865 8.59895 45.6493 7.82397 46.6577 7.28242C47.6661 6.7222 48.8519 6.44209 50.2151 6.44209C51.5783 6.44209 52.7361 6.70353 53.6885 7.2264C54.6409 7.74928 55.3692 8.50558 55.8734 9.49531C56.3963 10.4664 56.6577 11.6428 56.6577 13.0247C56.6577 13.1741 56.6484 13.3328 56.6297 13.5009C56.6297 13.669 56.6203 13.7904 56.6017 13.8651H46.5844C46.6437 14.4558 46.7708 14.9787 46.9658 15.4337C47.2459 16.0686 47.6568 16.5541 48.1983 16.8903C48.7585 17.2264 49.4308 17.3945 50.2151 17.3945C51.0368 17.3945 51.7557 17.2264 52.372 16.8903C52.9882 16.5541 53.5018 16.0406 53.9126 15.3497L56.5176 16.4141C55.8454 17.5719 54.977 18.4402 53.9126 19.0191ZM46.6664 11.7922C46.7413 11.3889 46.8504 11.0248 46.9938 10.6998C47.2739 10.0649 47.6848 9.57934 48.2263 9.24321C48.7679 8.90707 49.4215 8.73901 50.1871 8.73901C50.822 8.73901 51.3729 8.87906 51.8398 9.15917C52.3253 9.43929 52.6988 9.83144 52.9602 10.3356C53.1939 10.7562 53.3301 11.2417 53.3688 11.7922H46.6664ZM70.5009 15.3777L68.7362 17.1424C69.1097 17.6279 69.5672 18.0947 70.1088 18.5429C70.669 18.9724 71.3132 19.3272 72.0415 19.6074C72.7885 19.8688 73.6008 19.9995 74.4785 19.9995C75.8978 19.9995 77.0182 19.6354 77.8399 18.9071C78.6802 18.1601 79.1004 17.1797 79.1004 15.9659C79.1004 15.1816 78.9136 14.5467 78.5401 14.0611C78.1853 13.5756 77.7091 13.1648 77.1116 12.8286C76.514 12.4925 75.8604 12.1844 75.1508 11.9043C74.6279 11.6989 74.1517 11.5028 73.7222 11.316C73.3114 11.1293 72.9753 10.9239 72.7138 10.6998C72.471 10.457 72.3497 10.1863 72.3497 9.88747C72.3497 9.53266 72.4897 9.26188 72.7698 9.07514C73.0499 8.8884 73.4048 8.79503 73.8343 8.79503C74.4692 8.79503 75.0854 8.95376 75.683 9.27122C76.2806 9.58868 76.7941 9.99951 77.2236 10.5037L78.9043 8.711C78.5495 8.28149 78.12 7.89867 77.6158 7.56254C77.1116 7.2264 76.542 6.95563 75.9071 6.75021C75.2908 6.5448 74.6279 6.44209 73.9183 6.44209C73.134 6.44209 72.3963 6.57281 71.7054 6.83425C71.0331 7.07701 70.4916 7.45983 70.0808 7.9827C69.6886 8.50558 69.4925 9.15917 69.4925 9.94349C69.4925 10.7091 69.6699 11.344 70.0247 11.8483C70.3982 12.3525 70.8651 12.7633 71.4253 13.0807C72.0042 13.3795 72.5831 13.641 73.162 13.8651C73.7409 14.0705 74.2451 14.2759 74.6746 14.4813C75.1041 14.668 75.4402 14.9015 75.683 15.1816C75.9258 15.443 76.0471 15.7605 76.0471 16.134C76.0471 16.5635 75.8884 16.8996 75.571 17.1424C75.2722 17.3851 74.852 17.5065 74.3105 17.5065C73.8809 17.5065 73.4514 17.4318 73.0219 17.2824C72.5924 17.1144 72.1629 16.8716 71.7334 16.5541C71.3226 16.218 70.9118 15.8258 70.5009 15.3777ZM91.2244 19.0191C90.16 19.598 88.8808 19.8875 87.3869 19.8875C86.0797 19.8875 84.9219 19.6074 83.9135 19.0471C82.9238 18.4869 82.1581 17.7026 81.6166 16.6942C81.075 15.6858 80.8042 14.5093 80.8042 13.1648C80.8042 11.8016 81.075 10.6158 81.6166 9.60736C82.1768 8.59895 82.9611 7.82397 83.9695 7.28242C84.9779 6.7222 86.1637 6.44209 87.5269 6.44209C88.8901 6.44209 90.0479 6.70353 91.0003 7.2264C91.9527 7.74928 92.681 8.50558 93.1852 9.49531C93.7081 10.4664 93.9695 11.6428 93.9695 13.0247C93.9695 13.1741 93.9602 13.3328 93.9415 13.5009C93.9415 13.669 93.9322 13.7904 93.9135 13.8651H83.8962C83.9555 14.4558 84.0826 14.9787 84.2776 15.4337C84.5577 16.0686 84.9686 16.5541 85.5101 16.8903C86.0703 17.2264 86.7426 17.3945 87.5269 17.3945C88.3486 17.3945 89.0675 17.2264 89.6838 16.8903C90.3 16.5541 90.8136 16.0406 91.2244 15.3497L93.8294 16.4141C93.1572 17.5719 92.2888 18.4402 91.2244 19.0191ZM83.9782 11.7922C84.0531 11.3889 84.1622 11.0248 84.3056 10.6998C84.5857 10.0649 84.9966 9.57934 85.5381 9.24321C86.0797 8.90707 86.7333 8.73901 87.4989 8.73901C88.1338 8.73901 88.6847 8.87906 89.1516 9.15917C89.6371 9.43929 90.0106 9.83144 90.272 10.3356C90.5057 10.7562 90.6419 11.2417 90.6806 11.7922H83.9782ZM30.3084 7.03083L36.2844 19.6357H37.6686L43.6697 7.03083H40.3364L36.975 14.4538L33.6137 7.03083H30.3084Z" fill="#56FAA5"/>
<path d="M62.4649 6.72298H59.1035V19.6081H62.4649V6.72298ZM66.5266 10.1123L67.9832 7.56332C67.703 7.20851 67.2109 6.79768 66.8001 6.66696C66.3892 6.51757 65.9504 6.44287 65.4835 6.44287C64.8299 6.44287 64.195 6.6763 63.5788 7.14315C62.9812 7.61 62.4863 8.24493 62.0942 9.04791C61.7207 9.83223 61.4565 10.738 61.4565 11.765L62.4649 12.3533C62.4649 11.737 62.6077 11.2048 62.7384 10.7566C62.8878 10.2897 63.1213 9.9256 63.4387 9.66416C63.7562 9.40272 64.167 9.272 64.6712 9.272C65.0447 9.272 65.3528 9.32803 65.5956 9.44007C65.8383 9.55212 66.2465 9.88825 66.5266 10.1123Z" fill="#56FAA5"/>
<path d="M22.4092 6.75035V9.41141H29.6921V6.75035H22.4092ZM24.37 2.26855V19.6355H27.7313V2.26855H24.37Z" fill="#56FAA5"/>
<path d="M16.5274 6.75098V19.6361H19.8887V6.75098H16.5274Z" fill="#56FAA5"/>
<circle cx="18.2081" cy="2.2684" r="1.96078" fill="#FFC701"/>
</svg>
