<svg width="88" height="26" viewBox="0 0 88 26" fill="none" xmlns="http://www.w3.org/2000/svg">
<path d="M0 2.13992C0.240183 2.06859 0.624475 1.99726 1.15288 1.92593C1.68128 1.83082 2.22169 1.78326 2.77411 1.78326C3.30251 1.78326 3.77087 1.81893 4.17918 1.89026C4.61151 1.96159 4.97178 2.10425 5.26 2.31824C5.54822 2.53224 5.76438 2.82945 5.90849 3.20988C6.0526 3.56653 6.12466 4.04207 6.12466 4.63649V8.13169C6.72511 7.89392 7.28954 7.72748 7.81794 7.63237C8.37036 7.53726 8.97082 7.48971 9.61931 7.48971C10.7722 7.48971 11.865 7.69181 12.8978 8.09602C13.9306 8.50023 14.8433 9.09465 15.6359 9.87929C16.4285 10.6401 17.053 11.5912 17.5093 12.7325C17.9657 13.8738 18.1938 15.1934 18.1938 16.6914C18.1938 18.2369 17.9536 19.5921 17.4733 20.7572C17.0169 21.8985 16.3684 22.8496 15.5278 23.6104C14.6872 24.3713 13.6544 24.9538 12.4295 25.358C11.2285 25.7385 9.89552 25.9287 8.43041 25.9287C6.8452 25.9287 5.50018 25.7385 4.39534 25.358C3.2905 25.0014 2.35379 24.5496 1.58521 24.0027C0.528402 23.2657 0 22.3146 0 21.1495V2.13992ZM8.43041 21.1495C9.53525 21.1495 10.3879 20.781 10.9884 20.0439C11.6128 19.283 11.9251 18.1655 11.9251 16.6914C11.9251 15.1934 11.6128 14.0759 10.9884 13.3388C10.3639 12.6017 9.52324 12.2332 8.46644 12.2332C7.98607 12.2332 7.56575 12.2807 7.20548 12.3759C6.86922 12.471 6.49694 12.6136 6.08863 12.8038V20.5789C6.35283 20.7453 6.66507 20.888 7.02534 21.0069C7.40963 21.102 7.87799 21.1495 8.43041 21.1495Z" fill="#202226"/>
<path d="M21.0344 3.20988C21.0344 2.30635 21.3346 1.5455 21.9351 0.927296C22.5595 0.309099 23.3761 0 24.3849 0C25.3937 0 26.1983 0.309099 26.7987 0.927296C27.4232 1.5455 27.7355 2.30635 27.7355 3.20988C27.7355 4.1134 27.4232 4.87426 26.7987 5.49245C26.1983 6.11065 25.3937 6.41975 24.3849 6.41975C23.3761 6.41975 22.5595 6.11065 21.9351 5.49245C21.3346 4.87426 21.0344 4.1134 21.0344 3.20988ZM27.4472 25.3224C27.183 25.3699 26.7867 25.4294 26.2583 25.5007C25.754 25.5958 25.2376 25.6433 24.7092 25.6433C24.1808 25.6433 23.7004 25.6077 23.2681 25.5364C22.8598 25.465 22.5115 25.3224 22.2233 25.1084C21.9351 24.8944 21.7069 24.6091 21.5387 24.2524C21.3946 23.872 21.3226 23.3845 21.3226 22.7901V8.27435C21.5868 8.22679 21.9711 8.16735 22.4755 8.09602C23.0039 8.00091 23.5323 7.95336 24.0607 7.95336C24.5891 7.95336 25.0574 7.98903 25.4657 8.06036C25.8981 8.13169 26.2583 8.27435 26.5466 8.48834C26.8348 8.70233 27.0509 8.99954 27.195 9.37997C27.3632 9.73662 27.4472 10.2122 27.4472 10.8066V25.3224Z" fill="#202226"/>
<path d="M37.471 19.4019C37.471 20.0201 37.6632 20.46 38.0475 20.7215C38.4558 20.9831 39.0202 21.1139 39.7407 21.1139C40.101 21.1139 40.4733 21.0901 40.8576 21.0425C41.2419 20.9712 41.5781 20.888 41.8664 20.7929C42.0825 21.0544 42.2627 21.3516 42.4068 21.6845C42.5749 21.9936 42.659 22.374 42.659 22.8258C42.659 23.7293 42.3107 24.4664 41.6142 25.037C40.9417 25.6077 39.7407 25.893 38.0114 25.893C35.8978 25.893 34.2646 25.4175 33.1117 24.4664C31.9828 23.5153 31.4184 21.9698 31.4184 19.8299V4.56516C31.6826 4.49383 32.0549 4.4225 32.5353 4.35116C33.0396 4.25606 33.5681 4.2085 34.1205 4.2085C35.1773 4.2085 35.9939 4.39872 36.5703 4.77915C37.1708 5.1358 37.471 5.90855 37.471 7.09739V9.37997H42.1906C42.3347 9.64152 42.4668 9.97439 42.5869 10.3786C42.731 10.759 42.8031 11.187 42.8031 11.6626C42.8031 12.4947 42.6109 13.1011 42.2266 13.4815C41.8664 13.8381 41.374 14.0165 40.7495 14.0165H37.471V19.4019Z" fill="#202226"/>
<path d="M45.1589 14.5158C45.1589 12.6612 45.4471 11.0206 46.0236 9.59396C46.624 8.16735 47.4286 6.97851 48.4374 6.02743C49.4702 5.05258 50.6711 4.3155 52.0402 3.81619C53.4332 3.31687 54.9344 3.06722 56.5436 3.06722C58.1528 3.06722 59.6419 3.31687 61.011 3.81619C62.404 4.3155 63.617 5.05258 64.6497 6.02743C65.6825 6.97851 66.4871 8.16735 67.0636 9.59396C67.664 11.0206 67.9643 12.6612 67.9643 14.5158C67.9643 16.3704 67.676 18.0229 67.0996 19.4732C66.5232 20.8999 65.7186 22.1006 64.6858 23.0754C63.677 24.0265 62.4761 24.7517 61.083 25.251C59.69 25.7503 58.1768 26 56.5436 26C54.9103 26 53.3972 25.7503 52.0041 25.251C50.6111 24.7279 49.4102 23.979 48.4014 23.0041C47.3926 22.0293 46.6 20.8285 46.0236 19.4019C45.4471 17.9753 45.1589 16.3466 45.1589 14.5158ZM51.6439 14.5158C51.6439 16.6795 52.0882 18.2963 52.9769 19.3663C53.8655 20.4362 55.0544 20.9712 56.5436 20.9712C58.0567 20.9712 59.2576 20.4362 60.1463 19.3663C61.035 18.2963 61.4793 16.6795 61.4793 14.5158C61.4793 12.3759 61.035 10.7709 60.1463 9.70096C59.2817 8.631 58.0928 8.09602 56.5796 8.09602C55.0905 8.09602 53.8896 8.631 52.9769 9.70096C52.0882 10.7471 51.6439 12.3521 51.6439 14.5158Z" fill="#202226"/>
<path d="M77.7682 16.7627C76.7114 16.406 75.7507 16.0494 74.886 15.6927C74.0214 15.3123 73.2768 14.8605 72.6523 14.3374C72.0278 13.8144 71.5355 13.1962 71.1752 12.4829C70.8389 11.7458 70.6708 10.8541 70.6708 9.80796C70.6708 7.78692 71.4514 6.1701 73.0126 4.95748C74.5978 3.74486 76.8075 3.13855 79.6416 3.13855C80.6744 3.13855 81.6352 3.20988 82.5238 3.35254C83.4125 3.4952 84.1691 3.72108 84.7936 4.03018C85.442 4.3155 85.9464 4.69593 86.3067 5.17147C86.667 5.62323 86.8471 6.15821 86.8471 6.77641C86.8471 7.3946 86.703 7.92958 86.4148 8.38134C86.1266 8.80933 85.7783 9.17787 85.37 9.48697C84.8416 9.15409 84.133 8.86877 83.2444 8.631C82.3557 8.36946 81.383 8.23868 80.3262 8.23868C79.2453 8.23868 78.4527 8.39323 77.9483 8.70233C77.444 8.98765 77.1918 9.3562 77.1918 9.80796C77.1918 10.1646 77.3479 10.4618 77.6601 10.6996C77.9724 10.9136 78.4407 11.1157 79.0652 11.3059L80.9747 11.9122C83.2324 12.6255 84.9617 13.5409 86.1626 14.6584C87.3875 15.7522 88 17.2501 88 19.1523C88 21.1733 87.1954 22.8139 85.5862 24.0741C83.9769 25.3105 81.6111 25.9287 78.4888 25.9287C77.3839 25.9287 76.3511 25.8336 75.3904 25.6433C74.4537 25.4769 73.6251 25.2273 72.9045 24.8944C72.208 24.5377 71.6556 24.1097 71.2473 23.6104C70.863 23.0873 70.6708 22.4929 70.6708 21.8272C70.6708 21.1376 70.875 20.5551 71.2833 20.0796C71.6916 19.5802 72.1359 19.1998 72.6163 18.9383C73.2888 19.4614 74.1054 19.9131 75.0662 20.2936C76.0509 20.674 77.1197 20.8642 78.2726 20.8642C79.4495 20.8642 80.2781 20.6859 80.7585 20.3292C81.2389 19.9726 81.479 19.5565 81.479 19.0809C81.479 18.6054 81.2869 18.2487 80.9026 18.011C80.5183 17.7494 79.9779 17.4998 79.2814 17.262L77.7682 16.7627Z" fill="#202226"/>
</svg>