<svg width="96" height="14" viewBox="0 0 96 14" fill="none" xmlns="http://www.w3.org/2000/svg">
<path d="M21.6541 2.50977H12.6096V4.75472H21.6541V2.50977Z" fill="#262626"/>
<path d="M20.5215 5.875H12.6096V8.11996H20.5215V5.875Z" fill="#262626"/>
<path d="M21.6541 9.24414H12.6096V11.4891H21.6541V9.24414Z" fill="#262626"/>
<path d="M14.8674 11.4864L14.8674 5.87598H12.6062V11.4864H14.8674Z" fill="#262626"/>
<path d="M34.0144 9.24414H24.9699V11.4891H34.0144V9.24414Z" fill="#262626"/>
<path d="M27.2324 8.12018V2.50977L24.9713 2.50977V8.12018H27.2324Z" fill="#262626"/>
<path d="M46.3807 2.50977H37.3362V4.75472H46.3807V2.50977Z" fill="#262626"/>
<path d="M45.2482 5.875H37.3362V8.11996H45.2482V5.875Z" fill="#262626"/>
<path d="M46.3807 9.24414H37.3362V11.4891H46.3807V9.24414Z" fill="#262626"/>
<path d="M39.5947 11.4893V5.87891H37.3335V11.4893H39.5947Z" fill="#262626"/>
<path d="M71.1069 9.24414H62.0624V11.4891H71.1069V9.24414Z" fill="#262626"/>
<path d="M71.1069 2.50977H62.0624V4.75472H71.1069V2.50977Z" fill="#262626"/>
<path d="M62.0608 2.5097V8.12012H64.3219V2.5097H62.0608Z" fill="#262626"/>
<path d="M68.8458 5.87982V11.4902H71.1069V5.87982H68.8458Z" fill="#262626"/>
<path d="M58.7421 2.50977H49.6975V4.75472H58.7421V2.50977Z" fill="#262626"/>
<path d="M58.7421 5.875H49.6976V8.11996H58.7421V5.875Z" fill="#262626"/>
<path d="M58.7433 8.12116V2.51074L56.4821 2.51074V8.12116H58.7433Z" fill="#262626"/>
<path d="M51.9583 11.4874V5.87695H49.6972V11.4874H51.9583Z" fill="#262626"/>
<path d="M83.469 2.50977H74.4244V4.75472H83.469V2.50977Z" fill="#262626"/>
<path d="M83.469 5.875H74.4244V8.11996H83.469V5.875Z" fill="#262626"/>
<path d="M83.4707 8.12018V2.50977L81.2096 2.50977V8.12018H83.4707Z" fill="#262626"/>
<path d="M76.6857 11.4864V5.87598H74.4246V11.4864H76.6857Z" fill="#262626"/>
<path d="M83.4691 11.4881V9.24316H81.2079V11.4881H83.4691Z" fill="#262626"/>
<path d="M8.66251 0.113934C8.11617 -0.0325626 7.59376 0.541545 6.91183 2.03027C6.87195 2.12133 6.82809 2.21636 6.78821 2.31138H7.22289C7.75726 1.11961 8.24777 0.410886 8.55883 0.494033C9.161 0.656367 8.8659 3.69716 7.89684 7.2883C6.92779 10.8794 5.65166 13.6629 5.04949 13.5005C4.77433 13.4253 4.6866 12.7443 4.76635 11.6832H4.36756C4.26388 13.0769 4.43935 13.75 4.94581 13.8846C5.49215 14.0311 6.01456 13.457 6.69649 11.9683C7.24283 10.7765 7.80512 9.1492 8.27968 7.39125C8.75424 5.63329 9.08523 3.9466 9.21284 2.64397C9.37236 1.01271 9.20885 0.256471 8.66251 0.113934Z" fill="#57BEB5"/>
<path d="M0.969887 2.50977V4.75472H8.28765C8.46312 3.87179 8.57079 3.11555 8.62662 2.50977H0.969887Z" fill="#262626"/>
<path d="M6.62072 5.875H4.35959V11.4854H6.25383C6.36948 11.2162 6.49311 10.9192 6.62072 10.5946V5.875Z" fill="#262626"/>
<path d="M87.3966 0.113934C87.9429 -0.0325626 88.4654 0.541545 89.1473 2.03027C89.1872 2.12133 89.231 2.21636 89.2709 2.31138H88.8362C88.3019 1.11961 87.8113 0.410886 87.5003 0.494033C86.8981 0.656367 87.1932 3.69716 88.1623 7.2883C89.1313 10.8794 90.4075 13.6629 91.0096 13.5005C91.2848 13.4253 91.3725 12.7443 91.2928 11.6832H91.6916C91.7952 13.0769 91.6198 13.75 91.1133 13.8846C90.567 14.0311 90.0446 13.457 89.3626 11.9683C88.8163 10.7765 88.254 9.1492 87.7794 7.39125C87.3049 5.63329 86.9739 3.9466 86.8463 2.64397C86.6868 1.01271 86.8503 0.256471 87.3966 0.113934Z" fill="#71A8DB"/>
<path d="M95.0892 2.50977V4.75472H87.7715C87.596 3.87179 87.4883 3.11555 87.4325 2.50977H95.0892Z" fill="#262626"/>
<path d="M89.4344 5.875H91.6955V11.4854H89.8013C89.6856 11.2162 89.562 10.9192 89.4344 10.5946V5.875Z" fill="#262626"/>
</svg>
