<svg width="17" height="18" viewBox="0 0 17 18" fill="none" xmlns="http://www.w3.org/2000/svg">
<path d="M16.5913 11.9834L12.8246 8.22507C12.9035 7.84121 12.9426 7.45026 12.9413 7.0584C12.941 5.98394 12.6699 4.9269 12.1529 3.98497C11.636 3.04304 10.8899 2.24663 9.98372 1.66935C9.07752 1.09207 8.04041 0.752554 6.96826 0.682182C5.89611 0.61181 4.82352 0.812855 3.84964 1.26673C3.72625 1.3231 3.61849 1.40873 3.53571 1.5162C3.45293 1.62366 3.39764 1.74971 3.37464 1.8834C3.35172 2.01539 3.36096 2.15096 3.40158 2.27861C3.4422 2.40627 3.513 2.52225 3.60797 2.61673L7.23297 6.2334L5.73297 7.7334L2.1163 4.1084C2.02103 4.0149 1.90468 3.94566 1.77706 3.90651C1.64945 3.86735 1.51429 3.85943 1.38297 3.8834C1.25012 3.90556 1.12462 3.95959 1.01722 4.04087C0.909826 4.12214 0.823727 4.22824 0.766302 4.35007C0.310906 5.32715 0.110037 6.40355 0.182379 7.47912C0.254721 8.55469 0.597924 9.59449 1.18006 10.5018C1.7622 11.4091 2.56436 12.1544 3.51192 12.6685C4.45948 13.1825 5.52166 13.4485 6.59964 13.4417C6.9915 13.443 7.38245 13.4039 7.7663 13.3251L11.5246 17.0917C11.6021 17.1698 11.6943 17.2318 11.7958 17.2741C11.8974 17.3165 12.0063 17.3382 12.1163 17.3382C12.2263 17.3382 12.3352 17.3165 12.4368 17.2741C12.5383 17.2318 12.6305 17.1698 12.708 17.0917C12.7861 17.0143 12.8481 16.9221 12.8904 16.8205C12.9327 16.719 12.9545 16.6101 12.9545 16.5001C12.9545 16.3901 12.9327 16.2811 12.8904 16.1796C12.8481 16.078 12.7861 15.9859 12.708 15.9084L8.62464 11.8251C8.52259 11.7237 8.39606 11.6505 8.25733 11.6125C8.1186 11.5745 7.97241 11.5731 7.83297 11.6084C7.43061 11.7161 7.01616 11.7722 6.59964 11.7751C5.97634 11.7806 5.35812 11.6627 4.78059 11.4282C4.20305 11.1937 3.67761 10.8473 3.23454 10.4089C2.79147 9.97048 2.43953 9.44872 2.19898 8.87369C1.95844 8.29866 1.83404 7.68171 1.83297 7.0584C1.83189 6.77925 1.85419 6.50049 1.89964 6.22507L5.1663 9.50007C5.24377 9.57817 5.33594 9.64017 5.43749 9.68248C5.53904 9.72478 5.64796 9.74656 5.75797 9.74656C5.86798 9.74656 5.9769 9.72478 6.07845 9.68248C6.18 9.64017 6.27217 9.57817 6.34964 9.50007L8.99964 6.82507C9.14984 6.66968 9.23379 6.46201 9.23379 6.2459C9.23379 6.02978 9.14984 5.82212 8.99964 5.66673L5.75797 2.40007C6.03345 2.35508 6.31217 2.33278 6.5913 2.3334C7.84301 2.33561 9.04269 2.83439 9.927 3.72026C10.8113 4.60613 11.308 5.80669 11.308 7.0584C11.3051 7.47492 11.2491 7.88938 11.1413 8.29173C11.106 8.43117 11.1074 8.57736 11.1454 8.71609C11.1834 8.85482 11.2566 8.98136 11.358 9.0834L15.4413 13.1667C15.5982 13.3237 15.8111 13.4118 16.033 13.4118C16.2549 13.4118 16.4677 13.3237 16.6246 13.1667C16.7816 13.0098 16.8697 12.797 16.8697 12.5751C16.8697 12.3531 16.7816 12.1403 16.6246 11.9834H16.5913Z" fill="#364361"/>
</svg>
