<svg width="17" height="18" viewBox="0 0 17 18" fill="none" xmlns="http://www.w3.org/2000/svg">
<path fill-rule="evenodd" clip-rule="evenodd" d="M3.5 9C4.05228 9 4.5 8.55228 4.5 8C4.5 7.44772 4.05228 7 3.5 7C2.94772 7 2.5 7.44772 2.5 8C2.5 8.55228 2.94772 9 3.5 9ZM3.5 11C5.15685 11 6.5 9.65685 6.5 8C6.5 6.34315 5.15685 5 3.5 5C1.84315 5 0.5 6.34315 0.5 8C0.5 9.65685 1.84315 11 3.5 11Z" fill="#1484F5"/>
<path fill-rule="evenodd" clip-rule="evenodd" d="M13.5 13C14.0523 13 14.5 12.5523 14.5 12C14.5 11.4477 14.0523 11 13.5 11C12.9477 11 12.5 11.4477 12.5 12C12.5 12.5523 12.9477 13 13.5 13ZM13.5 15C15.1569 15 16.5 13.6569 16.5 12C16.5 10.3431 15.1569 9 13.5 9C11.8431 9 10.5 10.3431 10.5 12C10.5 13.6569 11.8431 15 13.5 15Z" fill="#1484F5"/>
<rect x="2.5" width="2" height="7" rx="1" fill="#1484F5"/>
<rect x="12.5" width="2" height="11" rx="1" fill="#1484F5"/>
<rect x="2.5" y="9" width="2" height="9" rx="1" fill="#1484F5"/>
<rect x="12.5" y="13" width="2" height="5" rx="1" fill="#1484F5"/>
</svg>
