<svg width="22" height="24" viewBox="0 0 22 24" fill="none" xmlns="http://www.w3.org/2000/svg">
<path fill-rule="evenodd" clip-rule="evenodd" d="M20.8246 9.65365C19.7708 9.04524 17.9697 10.0644 16.2577 12.0526C16.9497 11.5144 17.5924 11.3066 18.0251 11.5565C18.8996 12.0614 18.5853 14.2432 17.323 16.4297C16.0606 18.6162 14.3282 19.9793 13.4537 19.4744C13.0209 19.2246 12.8795 18.5641 12.9996 17.6958C12.1338 20.1725 12.1517 22.2418 13.2055 22.8502C14.6632 23.6918 17.5504 21.4199 19.6544 17.7758C21.7583 14.1316 22.2822 10.4952 20.8246 9.65365Z" fill="#020202"/>
<path fill-rule="evenodd" clip-rule="evenodd" d="M20.8246 9.65365C19.7708 9.04524 17.9697 10.0644 16.2577 12.0526C16.9497 11.5144 17.5924 11.3066 18.0251 11.5565C18.8996 12.0614 18.5853 14.2432 17.323 16.4297C16.0606 18.6162 14.3282 19.9793 13.4537 19.4744C13.0209 19.2246 12.8795 18.5641 12.9996 17.6958C12.1338 20.1725 12.1517 22.2418 13.2055 22.8502C14.6632 23.6918 17.5504 21.4199 19.6544 17.7758C21.7583 14.1316 22.2822 10.4952 20.8246 9.65365Z" fill="url(#paint0_linear_17573_251)"/>
<path fill-rule="evenodd" clip-rule="evenodd" d="M4.90275 18.0572C3.44507 17.2156 3.96898 13.5792 6.07295 9.93507C8.17692 6.29088 11.0641 4.019 12.5218 4.86059C13.2462 5.27884 13.4811 6.38766 13.2757 7.84427C14.2791 4.53938 14.1234 1.82628 12.6415 0.97072C10.455 -0.291661 6.2095 2.9684 3.15871 8.25253C0.107915 13.5367 -0.592635 18.8434 1.59387 20.1058C3.07574 20.9613 5.50323 19.7396 7.86366 17.2182C6.70487 18.1244 5.62718 18.4754 4.90275 18.0572Z" fill="#020202"/>
<path fill-rule="evenodd" clip-rule="evenodd" d="M4.90275 18.0572C3.44507 17.2156 3.96898 13.5792 6.07295 9.93507C8.17692 6.29088 11.0641 4.019 12.5218 4.86059C13.2462 5.27884 13.4811 6.38766 13.2757 7.84427C14.2791 4.53938 14.1234 1.82628 12.6415 0.97072C10.455 -0.291661 6.2095 2.9684 3.15871 8.25253C0.107915 13.5367 -0.592635 18.8434 1.59387 20.1058C3.07574 20.9613 5.50323 19.7396 7.86366 17.2182C6.70487 18.1244 5.62718 18.4754 4.90275 18.0572Z" fill="url(#paint1_linear_17573_251)"/>
<path d="M15.2771 13.9293L11.3181 11.6436C9.86046 10.802 9.36104 8.93814 10.2026 7.48047L14.1616 9.76618C15.6193 10.6078 16.1187 12.4716 15.2771 13.9293Z" fill="#00C6D2"/>
<path d="M9.97112 17.0243L6.01215 14.7386C6.85373 13.2809 8.7176 12.7815 10.1753 13.6231L14.1342 15.9088C13.2927 17.3665 11.4288 17.8659 9.97112 17.0243Z" fill="#00C6D2"/>
<defs>
<linearGradient id="paint0_linear_17573_251" x1="13.1745" y1="22.9225" x2="20.281" y2="10.0946" gradientUnits="userSpaceOnUse">
<stop stop-color="#009EFD"/>
<stop offset="1" stop-color="#12EFCF"/>
</linearGradient>
<linearGradient id="paint1_linear_17573_251" x1="14.0793" y1="1.31992" x2="2.9841" y2="21.0183" gradientUnits="userSpaceOnUse">
<stop stop-color="#009EFD"/>
<stop offset="1" stop-color="#12EFCF"/>
</linearGradient>
</defs>
</svg>
