<svg width="512" height="512" viewBox="0 0 512 512" fill="none" xmlns="http://www.w3.org/2000/svg">
<path fill-rule="evenodd" clip-rule="evenodd" d="M310.989 40.9428C288.377 18.3309 209.595 60.4523 135.024 135.024C60.4522 209.595 18.3308 288.377 40.9428 310.989C63.5547 333.601 142.337 291.48 216.909 216.909C291.48 142.337 333.601 63.5548 310.989 40.9428ZM147.864 150.06C208.608 89.3154 269.277 51.4982 283.372 65.593C297.467 79.6878 259.65 140.357 198.905 201.102C138.161 261.846 77.4915 299.663 63.3967 285.568C49.3019 271.474 87.119 210.804 147.864 150.06Z" fill="url(#paint0_linear_2200_1266)"/>
<path fill-rule="evenodd" clip-rule="evenodd" d="M222.924 210.812C284.216 147.835 319.894 84.6919 303.077 67.8746C285.717 50.5145 218.992 89.0931 154.042 154.042C89.0932 218.992 50.5146 285.716 67.8747 303.077C84.6923 319.894 147.837 284.215 210.815 222.921C138.093 293.723 62.9395 332.986 40.9426 310.989C18.3307 288.377 60.4521 209.595 135.023 135.023C209.595 60.452 288.377 18.3306 310.989 40.9426C332.986 62.9391 293.725 138.091 222.924 210.812Z" fill="url(#paint1_linear_2200_1266)"/>
<path fill-rule="evenodd" clip-rule="evenodd" d="M373.355 373.354C321.645 425.063 267.016 454.271 251.336 438.591C235.657 422.912 264.864 368.282 316.574 316.573C368.283 264.864 422.913 235.656 438.592 251.335C454.272 267.015 425.064 321.644 373.355 373.354ZM364.451 362.927C322.33 405.049 280.26 431.272 270.487 421.498C260.713 411.725 286.936 369.655 329.058 327.534C371.179 285.412 413.249 259.189 423.022 268.963C432.796 278.736 406.573 320.806 364.451 362.927Z" fill="url(#paint2_linear_2200_1266)"/>
<path fill-rule="evenodd" clip-rule="evenodd" d="M322.321 310.929C372.27 262.765 423.491 236.237 438.59 251.336C454.27 267.016 425.062 321.645 373.353 373.355C321.644 425.064 267.014 454.272 251.334 438.592C236.235 423.492 262.764 372.269 310.93 322.319C269.33 365.481 245.295 408.39 256.821 419.917C268.859 431.954 315.127 405.203 360.164 360.166C405.202 315.129 431.953 268.861 419.915 256.823C408.389 245.297 365.482 269.331 322.321 310.929Z" fill="url(#paint3_linear_2200_1266)"/>
<path fill-rule="evenodd" clip-rule="evenodd" d="M411.168 304.892C408.281 307.779 403.601 307.779 400.714 304.892L325.798 229.976C322.912 227.089 322.912 222.409 325.798 219.523C328.685 216.636 333.365 216.636 336.252 219.523L411.168 294.439C414.054 297.325 414.054 302.005 411.168 304.892ZM337.994 336.252C335.107 339.139 330.427 339.139 327.541 336.252L315.345 324.057C312.458 321.17 312.458 316.49 315.345 313.603C318.232 310.717 322.912 310.717 325.798 313.603L337.994 325.799C340.881 328.686 340.881 333.366 337.994 336.252ZM283.985 282.243C281.098 285.129 276.418 285.129 273.532 282.243L191.646 200.358C188.76 197.471 188.76 192.791 191.646 189.904C194.533 187.018 199.213 187.018 202.1 189.904L283.985 271.789C286.872 274.676 286.872 279.356 283.985 282.243ZM290.954 195.132C293.841 198.018 298.521 198.018 301.407 195.132C304.294 192.245 304.294 187.565 301.407 184.678L289.212 172.482C286.325 169.596 281.645 169.596 278.758 172.482C275.872 175.369 275.872 180.049 278.758 182.936L290.954 195.132ZM243.913 148.091C246.8 150.977 251.48 150.977 254.367 148.091C257.253 145.204 257.253 140.524 254.367 137.637L233.46 116.73C230.573 113.844 225.893 113.844 223.007 116.73C220.12 119.617 220.12 124.297 223.007 127.184L243.913 148.091ZM306.634 409.426C303.747 412.313 299.067 412.313 296.18 409.426L256.109 369.355C253.222 366.468 253.222 361.788 256.109 358.901C258.996 356.015 263.676 356.015 266.562 358.901L306.634 398.973C309.52 401.859 309.52 406.539 306.634 409.426ZM214.295 327.541C217.182 330.428 221.862 330.428 224.749 327.541C227.635 324.655 227.635 319.975 224.749 317.088L128.926 221.265C126.039 218.378 121.359 218.378 118.472 221.265C115.586 224.152 115.586 228.832 118.472 231.718L214.295 327.541Z" fill="url(#paint4_linear_2200_1266)"/>
<rect x="68.7208" y="219.556" width="211.937" height="329.283" transform="rotate(-45 68.7208 219.556)" fill="url(#paint5_linear_2200_1266)" fill-opacity="0.3"/>
<defs>
<linearGradient id="paint0_linear_2200_1266" x1="40.9428" y1="310.989" x2="310.989" y2="40.9429" gradientUnits="userSpaceOnUse">
<stop stop-color="#006B81"/>
<stop offset="1" stop-color="#019E62"/>
</linearGradient>
<linearGradient id="paint1_linear_2200_1266" x1="310.969" y1="40.9224" x2="40.9224" y2="310.969" gradientUnits="userSpaceOnUse">
<stop stop-color="#00D1FF"/>
<stop offset="1" stop-color="#45EBA5"/>
</linearGradient>
<linearGradient id="paint2_linear_2200_1266" x1="438.592" y1="251.335" x2="251.336" y2="438.591" gradientUnits="userSpaceOnUse">
<stop stop-color="#006B81"/>
<stop offset="1" stop-color="#019E62"/>
</linearGradient>
<linearGradient id="paint3_linear_2200_1266" x1="251.36" y1="438.618" x2="438.616" y2="251.362" gradientUnits="userSpaceOnUse">
<stop stop-color="#00D1FF"/>
<stop offset="1" stop-color="#45EBA5"/>
</linearGradient>
<linearGradient id="paint4_linear_2200_1266" x1="352.803" y1="351.061" x2="175.095" y2="173.353" gradientUnits="userSpaceOnUse">
<stop stop-color="#45EBA5" stop-opacity="0"/>
<stop offset="0.192708" stop-color="#45EBA5"/>
<stop offset="0.78125" stop-color="#45EBA5"/>
<stop offset="1" stop-color="#45EBA5" stop-opacity="0"/>
</linearGradient>
<linearGradient id="paint5_linear_2200_1266" x1="174.689" y1="219.556" x2="174.689" y2="548.839" gradientUnits="userSpaceOnUse">
<stop stop-color="#00D1FF" stop-opacity="0"/>
<stop offset="0.510417" stop-color="#00D1FF"/>
<stop offset="1" stop-color="#45EBA5" stop-opacity="0"/>
</linearGradient>
</defs>
</svg>
