<svg width="48" height="48" viewBox="0 0 48 48" fill="none" xmlns="http://www.w3.org/2000/svg">
<rect width="48" height="48" rx="24" fill="white"/>
<g clip-path="url(#clip0_9033_44486)">
<path d="M15.7728 13.2831L3.61995 33.9253C3.56169 34.0246 3.5 34.1035 3.5 34.2166V35.0083C3.5 35.2207 3.60282 35.4229 3.7776 35.5429L5.43637 36.6944C5.45351 36.7047 5.47065 36.715 5.48435 36.7253L16.0162 43.0314C16.4309 43.2781 16.9689 43.141 17.2088 42.7229L33.351 14.8322C33.6766 14.2667 33.2859 13.5573 32.6313 13.5333L16.3555 12.961C16.119 12.9541 15.8928 13.0775 15.7728 13.2831Z" fill="#FEFEFE"/>
<path d="M23.6348 1.03084C23.6348 1.02056 23.6383 1.01028 23.6383 1C23.8679 1 24.0941 1 24.3238 1C24.3238 1.01028 24.3238 1.02056 24.3272 1.03084C24.0941 1.12338 23.8645 1.12338 23.6348 1.03084Z" fill="#CDE3F0"/>
<path d="M16.5028 40.005C17.4453 38.4045 18.3844 36.804 19.3303 35.2034C22.2948 30.1792 25.2559 25.1549 28.2205 20.1306C29.3035 18.297 30.383 16.46 31.466 14.6265C31.4934 14.5785 31.5209 14.5305 31.562 14.4586C31.0616 14.4586 30.5852 14.4586 30.1089 14.4586C30.0643 14.4586 30.0163 14.462 29.9718 14.462C28.4981 14.4654 27.0278 14.4688 25.5541 14.4723C25.3724 14.4723 25.1874 14.486 25.0057 14.4825C24.8995 14.4791 24.8447 14.5168 24.7898 14.6059C23.885 16.1036 22.9803 17.5979 22.072 19.0921C19.0698 24.0479 16.0641 29.0002 13.0619 33.9559C11.9858 35.7278 10.9679 37.4037 9.89516 39.179C9.82662 39.2955 9.78206 39.3058 9.66896 39.2373C9.18573 38.9494 8.70592 38.6615 8.21583 38.3668C8.10273 38.3016 8.09587 38.2468 8.16785 38.1337C9.36394 36.2282 10.4744 34.4529 11.6636 32.5405C15.3684 26.6012 19.0767 20.6584 22.7815 14.719C22.8295 14.6436 22.8774 14.5648 22.9563 14.4346C22.665 14.4346 22.4148 14.4346 22.1611 14.4346C21.3043 14.4311 20.451 14.3557 19.5942 14.4071C18.5866 14.4688 17.603 14.647 16.681 15.0789C15.8928 15.449 15.2656 15.9905 14.7892 16.7308C12.0235 21.0422 9.24056 25.3502 6.46109 29.6582C6.4371 29.6959 6.40626 29.7268 6.37884 29.761C6.30002 29.6719 6.33086 29.5657 6.33086 29.4663C6.32743 26.6457 6.33086 23.8285 6.33086 21.0079C6.33086 19.2669 6.33086 17.5259 6.33086 15.7849C6.33086 15.4319 6.27945 15.0789 6.29659 14.7259C6.31372 14.39 6.37541 14.0713 6.58105 13.7902C6.701 13.6257 6.84837 13.4955 7.02316 13.3927C8.43517 12.5702 9.84718 11.7545 11.2592 10.9354C12.8494 10.0135 14.4396 9.09497 16.0299 8.17305C17.7949 7.15517 19.553 6.13044 21.3215 5.11256C21.9212 4.76984 22.521 4.43054 23.1139 4.07069C23.6931 3.72111 24.2449 3.71768 24.8378 4.0604C27.2403 5.44842 29.6462 6.82616 32.0487 8.21075C34.883 9.8421 37.7207 11.4666 40.5516 13.1014C40.7195 13.1973 40.8943 13.283 41.0519 13.3961C41.4495 13.6771 41.6723 14.0541 41.6723 14.5511C41.6723 19.7502 41.6723 24.9492 41.6723 30.1483C41.6723 30.2271 41.6791 30.3094 41.6551 30.3848C41.5626 30.4705 41.5386 30.3608 41.5078 30.3197C41.3227 30.0661 41.1616 29.7953 40.9937 29.5314C40.4522 28.6849 39.9107 27.8418 39.3658 26.9953C38.2862 25.3159 37.2066 23.6332 36.127 21.9539C35.5101 20.9942 34.8967 20.0312 34.2763 19.075C33.7383 18.2422 33.2105 17.3991 32.6656 16.5697C32.6381 16.5286 32.6244 16.4738 32.5593 16.4498C32.4565 16.5971 32.3674 16.7548 32.2749 16.9124C31.2947 18.5781 30.3111 20.2471 29.3274 21.9093C29.2589 22.0258 29.2555 22.1149 29.3274 22.2383C30.2288 23.6915 31.1302 25.148 32.0315 26.6046C33.1968 28.4861 34.362 30.3711 35.5273 32.2526C36.3155 33.5241 37.1004 34.7956 37.8852 36.0671C37.9229 36.1288 37.9709 36.1871 37.9777 36.2659C37.9709 36.3241 37.9297 36.355 37.8852 36.379C37.4054 36.6463 36.9359 36.9308 36.4595 37.2015C36.4149 37.2255 36.3704 37.2563 36.3155 37.2358C36.0414 36.8656 35.8083 36.4647 35.5615 36.074C34.9275 35.0766 34.2969 34.0793 33.6629 33.082C32.8575 31.8105 32.0487 30.539 31.2433 29.2675C30.6229 28.2908 30.0026 27.314 29.3823 26.3338C28.9607 25.669 28.5358 25.0041 28.1176 24.3392C28.0114 24.1713 28.0114 24.1678 27.9052 24.3461C26.9901 25.8917 26.0785 27.4408 25.1668 28.9899C24.8686 29.4971 24.5739 30.0044 24.2689 30.5047C24.1969 30.6247 24.2038 30.7172 24.2757 30.8338C25.4033 32.5851 26.5171 34.3432 27.6378 36.0979C28.546 37.5202 29.4508 38.946 30.359 40.3682C30.407 40.4436 30.4687 40.5156 30.4756 40.6116C30.4584 40.6801 30.4002 40.711 30.3453 40.7418C29.2383 41.3793 28.1348 42.0202 27.0312 42.661C26.2807 43.0963 25.5267 43.5247 24.783 43.9668C24.2997 44.2547 23.8268 44.2616 23.3435 43.984C21.911 43.1614 20.475 42.3355 19.0424 41.5129C18.2507 41.0571 17.4624 40.6047 16.6708 40.1489C16.6022 40.1249 16.5131 40.1044 16.5028 40.005Z" fill="#2A374D"/>
<path d="M41.6277 30.4397C41.6277 30.378 41.6311 30.3129 41.6311 30.2512C41.6311 25.0521 41.6311 19.853 41.6311 14.6539C41.6311 14.061 41.3741 13.6326 40.8634 13.3413C37.3985 11.3535 33.9336 9.3589 30.4687 7.36769C28.5426 6.26069 26.6131 5.15028 24.687 4.04329C24.2175 3.77596 23.7377 3.77254 23.2716 4.04329C20.8725 5.42788 18.4735 6.8159 16.0744 8.20393C13.0688 9.94495 10.0665 11.686 7.06088 13.4236C6.58107 13.7012 6.34459 14.1262 6.34802 14.6642C6.37886 19.6954 6.36172 24.73 6.37543 29.7611C6.2829 30.0216 6.09783 30.2306 5.95046 30.4568C5.17248 31.6632 4.38423 32.8627 3.59597 34.0657C3.57541 34.0965 3.56855 34.1445 3.50001 34.1514C3.50001 34.0897 3.50001 34.0314 3.50001 33.9697C3.50001 27.5163 3.48973 21.0628 3.50686 14.6094C3.51029 13.0055 4.26085 11.7717 5.64544 10.9526C6.92036 10.1986 8.21242 9.472 9.49762 8.73172C10.9199 7.90919 12.3388 7.08665 13.7576 6.26069C16.1121 4.90009 18.4632 3.53263 20.8177 2.17888C21.342 1.87728 21.8424 1.53456 22.4079 1.30837C22.802 1.15071 23.2099 1.05818 23.6348 1.03076C23.8645 1.03076 24.0941 1.03076 24.3237 1.03076C25.0023 1.07874 25.6226 1.29466 26.2087 1.63738C27.6207 2.46334 29.043 3.27216 30.4618 4.08784C31.8739 4.90009 33.2893 5.71577 34.7013 6.52802C36.0996 7.33341 37.4979 8.13538 38.8996 8.94078C40.106 9.63308 41.3261 10.3014 42.5119 11.028C43.5641 11.6723 44.1981 12.6387 44.4277 13.8588C44.4757 14.1124 44.4928 14.3661 44.4928 14.6231C44.4928 20.9018 44.4997 27.1804 44.486 33.4591C44.4825 34.7683 43.9376 35.8616 42.8992 36.6704C42.5153 36.9686 42.0629 37.1776 41.638 37.4244C40.3665 38.1612 39.0915 38.8981 37.8201 39.6349C36.3943 40.4609 34.9686 41.2834 33.5395 42.1094C32.292 42.8325 31.0445 43.5557 29.7935 44.2788C28.4055 45.0808 27.0278 45.893 25.6295 46.6813C25.2422 46.9006 24.7898 46.9623 24.3443 46.9932C23.4087 47.0549 22.5621 46.8081 21.7567 46.3317C20.2008 45.4098 18.6277 44.5221 17.0615 43.6208C16.4343 43.2609 15.8071 42.9011 15.1765 42.5378C15.1045 42.4967 15.0257 42.4692 15.0977 42.3493C15.5569 41.5816 16.0093 40.8105 16.4651 40.0393C16.472 40.0256 16.4891 40.0188 16.5028 40.0051C16.9107 40.2792 17.3425 40.5054 17.7675 40.7488C19.6524 41.8352 21.5374 42.9216 23.4292 44.0012C23.8131 44.2205 24.2312 44.2411 24.6219 44.0149C26.5445 42.9114 28.4604 41.7975 30.3762 40.6871C30.4036 40.6699 30.431 40.646 30.4584 40.6288C30.4961 40.5671 30.5578 40.5363 30.6161 40.502C32.1789 39.6075 33.7348 38.6959 35.2942 37.7945C35.5821 37.63 35.8665 37.4655 36.151 37.2976C36.2058 37.2667 36.2538 37.2256 36.3224 37.2359C36.8741 36.9274 37.4191 36.6156 37.9571 36.2865C37.988 36.218 38.0531 36.1906 38.1114 36.1563C39.023 35.6251 39.9278 35.0836 40.8497 34.5764C41.3843 34.285 41.59 33.8429 41.5968 33.2774C41.6071 32.4001 41.6003 31.5227 41.6003 30.6453C41.6071 30.5734 41.5934 30.5048 41.6277 30.4397Z" fill="#88BEDE"/>
<path d="M41.6277 30.4398C41.6586 30.5049 41.6483 30.5735 41.6483 30.642C41.6483 31.5194 41.6483 32.3967 41.6483 33.2775C41.6483 33.6443 41.5592 33.9835 41.3261 34.2817C41.1616 34.4942 40.9149 34.5833 40.699 34.7135C39.8456 35.2139 38.9888 35.7074 38.1285 36.2044C38.0737 36.2352 38.0154 36.2592 37.9606 36.2866C36.8022 34.4154 35.6438 32.5441 34.4854 30.6729C32.7444 27.8591 31.0068 25.0488 29.2623 22.2385C29.1972 22.1323 29.1903 22.0603 29.2554 21.9506C30.3384 20.1273 31.4146 18.2972 32.4907 16.4739C32.5113 16.4397 32.5319 16.4054 32.5627 16.3608C32.7821 16.7001 32.9945 17.0291 33.207 17.3582C35.3902 20.7579 37.5768 24.1612 39.7599 27.5644C40.346 28.476 40.932 29.3877 41.5181 30.2993C41.5523 30.3404 41.5935 30.3884 41.6277 30.4398Z" fill="#00A1F6"/>
<path d="M36.3258 37.2324C35.6883 37.6059 35.0509 37.9829 34.41 38.3565C33.2961 39.0042 32.1823 39.6486 31.0684 40.2894C30.8662 40.406 30.6743 40.5362 30.4584 40.6287C28.7551 37.9555 27.0517 35.2823 25.3484 32.6091C24.968 32.0127 24.5876 31.4164 24.2072 30.8235C24.1557 30.7447 24.1215 30.683 24.1832 30.5802C25.4444 28.4519 26.6987 26.3201 27.9565 24.1884C27.9668 24.1679 27.984 24.1541 28.0079 24.1199C28.1827 24.3975 28.3541 24.6648 28.5255 24.9287C30.7806 28.4827 33.0357 32.0333 35.2908 35.5873C35.6369 36.1288 35.9797 36.6806 36.3258 37.2324Z" fill="#00A1F6"/>
</g>
<defs>
<clipPath id="clip0_9033_44486">
<rect width="40.9963" height="46" fill="white" transform="translate(3.5 1)"/>
</clipPath>
</defs>
</svg>