<svg width="60" height="60" viewBox="0 0 60 60" fill="none" xmlns="http://www.w3.org/2000/svg">
<circle cx="30" cy="30" r="30" fill="#F3BA2F"/>
<path fill-rule="evenodd" clip-rule="evenodd" d="M30 19.04L22.2317 26.8083L22.2318 26.808L17.712 22.288L30 10L42.292 22.2917L37.772 26.8117L30 19.04ZM14.5202 25.4792L10 30L14.5198 34.5192L19.04 29.999L14.5202 25.4792ZM30 40.96L22.2317 33.1922L17.7056 37.7056L17.712 37.712L30 50L42.292 37.7085L42.2942 37.7061L37.7718 33.1885L30 40.96ZM45.4802 25.4818L40.96 30.0019L45.48 34.5218L50 30.0016L45.4802 25.4818ZM34.5862 29.9975H34.5846L34.5888 29.9998L34.5865 30.0023L30 34.5889L25.4174 30.0057L25.411 29.9991L25.4174 29.9929L26.2206 29.1895L26.6101 28.7999L30 25.411L34.5862 29.9975Z" fill="black"/>
</svg>
